{"glyphs":{"0":{"ha":668,"x_min":31,"x_max":644,"o":"m 278 -17 q 95 60 160 -17 q 31 272 31 138 q 58 448 31 368 q 135 586 86 528 q 252 676 185 644 q 400 708 319 708 q 581 632 518 708 q 644 422 644 556 q 617 246 644 326 q 542 107 590 165 q 426 16 493 49 q 278 -17 358 -17 m 321 165 q 472 217 417 165 q 526 358 526 269 q 480 476 526 433 q 350 519 433 519 q 201 467 254 519 q 147 325 147 414 q 192 208 147 251 q 321 165 238 165 z "},"1":{"ha":490,"x_min":0,"x_max":442,"o":"m 376 558 q 356 457 367 511 q 335 349 344 403 q 320 245 326 296 q 314 154 314 194 q 326 105 314 119 q 364 90 338 90 q 387 90 375 90 q 408 92 399 90 q 429 94 419 93 l 432 88 l 406 -6 q 335 -3 371 -4 q 271 -1 304 -1 q 213 0 238 0 q 143 -3 181 0 q 74 -8 106 -6 q 21 -13 42 -11 q 0 -15 0 -15 l 19 72 q 78 83 54 75 q 117 105 101 90 q 142 142 133 119 q 154 200 150 165 l 192 499 q 184 563 199 549 q 133 578 169 578 q 113 576 124 578 q 90 574 101 575 q 67 571 78 572 l 60 581 l 78 660 q 148 668 101 663 q 243 681 194 674 q 387 701 343 694 q 432 708 431 708 l 442 667 q 401 624 415 647 q 376 558 388 601 z "},"2":{"ha":649,"x_min":-17,"x_max":625,"o":"m -17 33 l 97 149 q 206 266 161 214 q 278 358 250 318 q 321 431 307 399 q 335 488 335 463 q 263 561 339 561 q 181 533 224 561 q 101 454 138 504 l 83 454 l 71 557 q 208 668 133 628 q 354 708 282 708 q 494 665 442 708 q 546 549 546 621 q 536 483 546 515 q 495 406 526 450 q 405 299 464 363 q 249 140 346 236 l 254 129 l 375 129 q 428 135 406 129 q 466 155 450 140 q 494 194 482 169 q 517 256 506 218 l 625 265 q 599 176 611 222 q 576 92 588 138 q 556 4 564 46 l 533 -12 q 353 -7 439 -10 q 201 -2 278 -4 q 76 0 125 0 l -11 -12 l -17 33 z "},"3":{"ha":581,"x_min":-29,"x_max":519,"o":"m -3 22 q 110 4 43 4 q 192 15 154 4 q 259 46 231 26 q 303 92 288 65 q 319 150 319 118 q 138 247 319 247 l 126 261 l 128 347 l 217 367 q 300 428 268 390 q 332 508 332 467 q 312 557 332 539 q 260 575 292 575 q 186 557 226 575 q 106 507 146 539 q 98 506 103 507 q 89 506 93 506 l 72 604 q 119 633 89 615 q 187 668 150 651 q 263 697 224 685 q 336 708 303 708 q 470 669 421 708 q 519 564 519 631 q 472 444 519 500 q 346 357 425 389 l 344 346 q 510 179 510 299 q 469 65 510 122 q 366 -37 429 8 q 224 -110 303 -82 q 68 -139 144 -139 q -10 -107 10 -139 q -24 3 -29 -75 l -3 22 z "},"4":{"ha":631,"x_min":-24,"x_max":593,"o":"m -24 101 q -16 148 -21 125 q -8 194 -11 171 l 408 706 q 413 707 411 706 q 417 708 415 708 l 533 693 l 475 218 l 583 218 l 593 203 l 567 88 q 538 89 553 88 q 504 90 524 89 q 461 92 485 90 q 454 17 457 53 q 449 -47 451 -19 q 444 -110 446 -81 l 432 -122 l 269 -139 l 261 -125 q 272 -53 267 -90 q 283 19 278 -21 q 296 96 289 58 q 133 100 217 99 q -24 101 49 101 m 135 218 l 311 218 l 343 465 l 329 465 l 135 218 z "},"5":{"ha":572,"x_min":-46,"x_max":579,"o":"m 501 201 q 460 75 501 136 q 353 -34 418 14 q 208 -110 288 -82 q 53 -139 129 -139 q -23 -109 0 -139 q -39 3 -46 -79 l -18 22 q 96 4 31 4 q 179 15 140 4 q 247 44 218 25 q 293 90 276 64 q 310 149 310 117 q 257 226 310 197 q 75 275 204 256 l 65 290 q 93 426 81 358 q 117 546 106 493 q 139 665 129 608 l 150 676 l 411 686 q 469 699 450 689 q 503 742 488 710 l 579 747 l 519 543 l 500 525 q 422 531 464 528 q 338 535 386 533 q 236 536 290 536 l 211 408 q 426 335 350 383 q 501 201 501 288 z "},"6":{"ha":622,"x_min":29,"x_max":597,"o":"m 597 747 q 472 681 533 721 q 363 591 419 646 q 265 458 306 536 l 269 450 q 290 459 275 451 q 322 475 304 467 q 357 491 339 483 q 388 501 375 499 q 474 485 436 501 q 536 440 511 468 q 574 374 561 413 q 588 294 588 336 q 563 171 588 228 q 495 72 539 114 q 390 7 451 31 q 257 -17 329 -17 q 160 2 203 -17 q 89 55 118 21 q 44 136 60 89 q 29 240 29 183 q 52 395 29 325 q 113 522 75 465 q 199 624 150 579 q 297 704 247 669 q 567 831 415 785 l 579 824 l 597 747 m 319 379 q 255 365 285 379 q 210 340 225 351 q 200 290 204 313 q 196 240 196 268 q 221 135 196 174 q 294 96 246 96 q 386 139 356 96 q 417 256 417 182 q 392 344 417 308 q 319 379 367 379 z "},"7":{"ha":574,"x_min":43,"x_max":613,"o":"m 193 -139 l 74 -101 l 63 -67 l 433 547 l 258 536 q 206 527 226 533 q 171 508 185 521 q 147 472 157 494 q 126 414 136 449 l 43 406 q 64 500 53 451 q 84 592 74 542 q 103 690 94 642 l 113 697 q 163 694 136 696 q 215 692 186 693 q 275 692 243 692 l 567 692 l 613 625 q 503 435 551 519 q 417 278 456 350 q 345 143 378 206 q 279 18 313 81 l 217 -139 l 193 -139 z "},"8":{"ha":642,"x_min":31,"x_max":613,"o":"m 31 163 q 49 247 31 210 q 93 310 67 283 q 150 356 119 338 q 206 386 181 375 q 130 461 161 418 q 99 571 99 504 q 122 671 99 624 q 188 753 146 718 q 284 810 229 789 q 401 831 339 831 q 483 819 444 831 q 550 784 521 807 q 596 728 579 761 q 613 656 613 696 q 599 581 613 614 q 564 523 585 549 q 517 479 543 497 q 468 449 492 461 q 548 375 514 418 q 582 265 582 332 q 556 156 582 207 q 487 66 531 104 q 385 6 443 28 q 260 -17 326 -17 q 169 -4 211 -17 q 96 32 126 8 q 48 88 65 56 q 31 163 31 121 m 293 86 q 379 119 343 86 q 415 204 415 153 q 403 247 415 228 q 372 283 392 267 q 327 313 353 299 q 275 343 301 328 q 246 322 261 335 q 217 292 231 310 q 195 253 204 275 q 186 201 186 231 q 215 120 186 154 q 293 86 244 86 m 265 619 q 303 546 265 575 q 389 490 340 517 q 434 541 413 510 q 456 622 456 572 q 432 696 456 671 q 369 721 408 721 q 294 690 324 721 q 265 619 265 660 z "},"9":{"ha":622,"x_min":32,"x_max":601,"o":"m 32 -56 q 157 10 96 -31 q 266 99 208 44 q 364 232 324 154 l 358 242 q 340 233 354 240 q 307 216 325 225 q 272 199 289 207 q 242 190 254 192 q 156 207 193 190 q 93 251 118 224 q 56 317 68 279 q 43 397 43 356 q 67 521 43 464 q 135 619 92 578 q 238 685 178 661 q 372 708 299 708 q 469 690 426 708 q 541 637 511 671 q 586 556 571 603 q 601 451 601 508 q 578 296 601 367 q 517 168 556 225 q 431 66 479 111 q 332 -14 382 21 q 64 -140 214 -94 l 51 -132 l 32 -56 m 310 313 q 373 326 343 313 q 418 350 403 340 q 432 450 432 404 q 408 557 432 518 q 336 596 383 596 q 243 553 274 596 q 213 435 213 510 q 238 347 213 382 q 310 313 263 313 z "},"Æ":{"ha":1172,"x_min":-39,"x_max":1136,"o":"m 400 83 q 490 110 463 89 q 519 171 518 131 q 522 194 521 182 q 522 218 522 206 l 522 346 l 404 332 l 289 310 l 215 174 q 199 140 204 151 q 194 117 194 128 q 209 93 194 99 q 264 88 224 88 l 306 81 l 286 -8 q 261 -7 286 -8 q 201 -4 236 -6 q 128 -1 167 -3 q 61 0 89 0 q 27 -1 44 0 q -6 -3 10 -1 q -39 -4 -22 -4 l -35 78 q 5 108 -21 81 q 58 181 31 135 l 403 772 q 372 803 399 803 q 358 802 365 803 q 344 801 351 801 q 331 800 338 800 l 322 813 l 344 896 q 373 895 344 896 q 449 894 401 894 q 555 892 496 893 q 675 892 614 892 q 945 897 831 892 q 1108 908 1060 901 l 1118 893 q 1096 815 1107 857 q 1075 735 1086 779 q 1056 642 1064 690 l 929 632 q 935 660 932 644 q 939 685 938 671 q 940 711 940 700 q 933 744 940 732 q 909 764 926 757 q 860 774 892 771 q 778 776 828 776 q 719 767 733 776 q 706 738 706 758 l 711 485 l 842 501 l 974 528 l 986 513 l 956 397 l 832 389 l 713 374 l 718 201 q 738 131 719 153 q 800 108 757 108 q 890 113 856 108 q 946 135 924 118 q 981 183 968 151 q 1008 267 994 214 l 1126 276 l 1136 264 q 1113 185 1125 226 q 1090 102 1101 149 q 1067 6 1078 56 l 1051 -10 q 1010 -8 1051 -10 q 904 -4 969 -6 q 760 -1 839 -3 q 606 0 681 0 q 526 -1 564 0 q 457 -6 488 -3 q 390 -11 421 -8 l 385 0 l 400 83 m 440 446 l 525 457 l 526 708 l 506 708 l 357 440 l 440 446 z "},"Á":{"ha":843,"x_min":-54,"x_max":822,"o":"m 725 182 q 753 112 733 132 q 817 86 772 92 l 822 76 l 803 -4 q 742 -3 771 -4 q 688 -1 715 -1 q 638 0 660 0 q 552 -1 593 0 q 479 -6 511 -3 q 408 -11 442 -8 l 403 0 l 419 82 q 474 88 453 85 q 508 99 496 92 q 525 115 521 106 q 529 140 529 125 q 528 158 529 147 q 526 181 528 169 l 514 288 q 491 288 507 288 q 456 290 475 289 q 420 290 438 290 q 393 290 403 290 q 358 289 378 290 q 320 286 339 288 q 286 283 301 285 q 264 281 271 282 l 219 174 q 206 122 206 140 q 260 86 206 86 l 318 86 l 322 78 l 303 -8 q 238 -4 271 -7 q 175 -1 210 -3 q 108 0 140 0 q 52 -1 81 0 q 0 -3 24 -1 q -54 -4 -28 -4 l -33 88 q 21 113 -1 93 q 65 181 43 133 l 385 883 l 603 907 l 618 900 q 656 631 638 763 q 672 514 664 574 q 690 395 681 454 q 708 281 699 336 q 725 182 717 226 m 313 396 l 406 396 q 454 397 428 396 q 504 401 481 399 l 465 711 l 446 711 l 313 396 m 729 1058 q 629 1032 682 1047 q 528 1003 585 1019 q 411 968 471 988 l 393 981 l 374 1046 q 485 1096 431 1069 q 585 1143 540 1122 q 683 1190 636 1168 l 701 1183 l 736 1076 l 729 1058 z "},"Ă":{"ha":843,"x_min":-54,"x_max":822,"o":"m 725 182 q 753 112 733 132 q 817 86 772 92 l 822 76 l 803 -4 q 742 -3 771 -4 q 688 -1 715 -1 q 638 0 660 0 q 552 -1 593 0 q 479 -6 511 -3 q 408 -11 442 -8 l 403 0 l 419 82 q 474 88 453 85 q 508 99 496 92 q 525 115 521 106 q 529 140 529 125 q 528 158 529 147 q 526 181 528 169 l 514 288 q 491 288 507 288 q 456 290 475 289 q 420 290 438 290 q 393 290 403 290 q 358 289 378 290 q 320 286 339 288 q 286 283 301 285 q 264 281 271 282 l 219 174 q 206 122 206 140 q 260 86 206 86 l 318 86 l 322 78 l 303 -8 q 238 -4 271 -7 q 175 -1 210 -3 q 108 0 140 0 q 52 -1 81 0 q 0 -3 24 -1 q -54 -4 -28 -4 l -33 88 q 21 113 -1 93 q 65 181 43 133 l 385 883 l 603 907 l 618 900 q 656 631 638 763 q 672 514 664 574 q 690 395 681 454 q 708 281 699 336 q 725 182 717 226 m 313 396 l 406 396 q 454 397 428 396 q 504 401 481 399 l 465 711 l 446 711 l 313 396 m 525 1108 q 613 1128 572 1108 q 676 1190 653 1149 l 699 1186 l 731 1138 q 698 1078 718 1107 q 651 1027 678 1050 q 588 990 624 1004 q 510 976 553 976 q 435 990 467 976 q 381 1027 403 1004 q 346 1078 358 1050 q 328 1138 333 1107 l 374 1186 l 397 1190 q 446 1128 411 1149 q 525 1108 481 1108 z "},"Â":{"ha":843,"x_min":-54,"x_max":822,"o":"m 725 182 q 753 112 733 132 q 817 86 772 92 l 822 76 l 803 -4 q 742 -3 771 -4 q 688 -1 715 -1 q 638 0 660 0 q 552 -1 593 0 q 479 -6 511 -3 q 408 -11 442 -8 l 403 0 l 419 82 q 474 88 453 85 q 508 99 496 92 q 525 115 521 106 q 529 140 529 125 q 528 158 529 147 q 526 181 528 169 l 514 288 q 491 288 507 288 q 456 290 475 289 q 420 290 438 290 q 393 290 403 290 q 358 289 378 290 q 320 286 339 288 q 286 283 301 285 q 264 281 271 282 l 219 174 q 206 122 206 140 q 260 86 206 86 l 318 86 l 322 78 l 303 -8 q 238 -4 271 -7 q 175 -1 210 -3 q 108 0 140 0 q 52 -1 81 0 q 0 -3 24 -1 q -54 -4 -28 -4 l -33 88 q 21 113 -1 93 q 65 181 43 133 l 385 883 l 603 907 l 618 900 q 656 631 638 763 q 672 514 664 574 q 690 395 681 454 q 708 281 699 336 q 725 182 717 226 m 313 396 l 406 396 q 454 397 428 396 q 504 401 481 399 l 465 711 l 446 711 l 313 396 m 294 1044 q 356 1089 317 1060 q 433 1146 394 1118 q 528 1217 479 1179 l 556 1217 q 578 1197 556 1218 q 633 1148 601 1176 q 696 1090 664 1119 q 746 1044 728 1060 l 706 988 l 682 982 q 649 999 672 986 q 599 1024 625 1011 q 551 1049 574 1038 q 522 1063 529 1060 q 490 1049 514 1060 q 436 1024 465 1038 q 381 999 407 1011 q 342 982 354 986 l 321 988 l 294 1044 z "},"Ä":{"ha":843,"x_min":-54,"x_max":822,"o":"m 725 182 q 753 112 733 132 q 817 86 772 92 l 822 76 l 803 -4 q 742 -3 771 -4 q 688 -1 715 -1 q 638 0 660 0 q 552 -1 593 0 q 479 -6 511 -3 q 408 -11 442 -8 l 403 0 l 419 82 q 474 88 453 85 q 508 99 496 92 q 525 115 521 106 q 529 140 529 125 q 528 158 529 147 q 526 181 528 169 l 514 288 q 491 288 507 288 q 456 290 475 289 q 420 290 438 290 q 393 290 403 290 q 358 289 378 290 q 320 286 339 288 q 286 283 301 285 q 264 281 271 282 l 219 174 q 206 122 206 140 q 260 86 206 86 l 318 86 l 322 78 l 303 -8 q 238 -4 271 -7 q 175 -1 210 -3 q 108 0 140 0 q 52 -1 81 0 q 0 -3 24 -1 q -54 -4 -28 -4 l -33 88 q 21 113 -1 93 q 65 181 43 133 l 385 883 l 603 907 l 618 900 q 656 631 638 763 q 672 514 664 574 q 690 395 681 454 q 708 281 699 336 q 725 182 717 226 m 313 396 l 406 396 q 454 397 428 396 q 504 401 481 399 l 465 711 l 446 711 l 313 396 m 628 988 q 574 1008 592 988 q 556 1060 556 1028 q 585 1135 556 1106 q 660 1165 615 1165 q 714 1145 696 1165 q 732 1093 732 1125 q 703 1018 732 1049 q 628 988 674 988 m 388 988 q 333 1008 351 988 q 315 1060 315 1028 q 344 1135 315 1106 q 419 1165 374 1165 q 474 1145 456 1165 q 492 1093 492 1125 q 463 1018 492 1049 q 388 988 433 988 z "},"À":{"ha":843,"x_min":-54,"x_max":822,"o":"m 725 182 q 753 112 733 132 q 817 86 772 92 l 822 76 l 803 -4 q 742 -3 771 -4 q 688 -1 715 -1 q 638 0 660 0 q 552 -1 593 0 q 479 -6 511 -3 q 408 -11 442 -8 l 403 0 l 419 82 q 474 88 453 85 q 508 99 496 92 q 525 115 521 106 q 529 140 529 125 q 528 158 529 147 q 526 181 528 169 l 514 288 q 491 288 507 288 q 456 290 475 289 q 420 290 438 290 q 393 290 403 290 q 358 289 378 290 q 320 286 339 288 q 286 283 301 285 q 264 281 271 282 l 219 174 q 206 122 206 140 q 260 86 206 86 l 318 86 l 322 78 l 303 -8 q 238 -4 271 -7 q 175 -1 210 -3 q 108 0 140 0 q 52 -1 81 0 q 0 -3 24 -1 q -54 -4 -28 -4 l -33 88 q 21 113 -1 93 q 65 181 43 133 l 385 883 l 603 907 l 618 900 q 656 631 638 763 q 672 514 664 574 q 690 395 681 454 q 708 281 699 336 q 725 182 717 226 m 313 396 l 406 396 q 454 397 428 396 q 504 401 481 399 l 465 711 l 446 711 l 313 396 m 311 1076 l 346 1183 l 364 1190 q 463 1143 411 1168 q 562 1096 507 1122 q 674 1046 617 1069 l 656 981 l 636 968 q 519 1003 576 988 q 418 1032 463 1019 q 318 1058 365 1047 l 311 1076 z "},"Ā":{"ha":843,"x_min":-54,"x_max":822,"o":"m 725 182 q 753 112 733 132 q 817 86 772 92 l 822 76 l 803 -4 q 742 -3 771 -4 q 688 -1 715 -1 q 638 0 660 0 q 552 -1 593 0 q 479 -6 511 -3 q 408 -11 442 -8 l 403 0 l 419 82 q 474 88 453 85 q 508 99 496 92 q 525 115 521 106 q 529 140 529 125 q 528 158 529 147 q 526 181 528 169 l 514 288 q 491 288 507 288 q 456 290 475 289 q 420 290 438 290 q 393 290 403 290 q 358 289 378 290 q 320 286 339 288 q 286 283 301 285 q 264 281 271 282 l 219 174 q 206 122 206 140 q 260 86 206 86 l 318 86 l 322 78 l 303 -8 q 238 -4 271 -7 q 175 -1 210 -3 q 108 0 140 0 q 52 -1 81 0 q 0 -3 24 -1 q -54 -4 -28 -4 l -33 88 q 21 113 -1 93 q 65 181 43 133 l 385 883 l 603 907 l 618 900 q 656 631 638 763 q 672 514 664 574 q 690 395 681 454 q 708 281 699 336 q 725 182 717 226 m 313 396 l 406 396 q 454 397 428 396 q 504 401 481 399 l 465 711 l 446 711 l 313 396 m 733 1099 l 703 992 l 514 990 q 451 990 483 990 q 392 989 419 989 l 328 989 l 315 1006 l 347 1111 q 421 1110 385 1110 l 553 1110 q 608 1110 578 1110 q 664 1114 638 1111 q 724 1118 694 1115 l 733 1099 z "},"Ą":{"ha":843,"x_min":-54,"x_max":822,"o":"m 803 -243 q 754 -281 779 -262 q 706 -312 732 -296 q 654 -336 681 -328 q 547 -306 586 -336 q 507 -224 507 -276 q 544 -123 507 -174 q 656 0 581 -72 l 638 0 q 552 -1 593 0 q 479 -6 511 -3 q 408 -11 442 -8 l 403 0 l 419 82 q 474 88 453 85 q 508 99 496 92 q 525 115 521 106 q 529 140 529 125 q 528 158 529 147 q 526 181 528 169 l 514 288 q 491 288 507 288 q 456 290 475 289 q 420 290 438 290 q 393 290 403 290 q 358 289 378 290 q 320 286 339 288 q 286 283 301 285 q 264 281 271 282 l 219 174 q 206 122 206 140 q 260 86 206 86 l 318 86 l 322 78 l 303 -8 q 238 -4 271 -7 q 175 -1 210 -3 q 108 0 140 0 q 52 -1 81 0 q 0 -3 24 -1 q -54 -4 -28 -4 l -33 88 q 21 113 -1 93 q 65 181 43 133 l 385 883 l 603 907 l 618 900 q 656 631 638 763 q 672 514 664 574 q 690 395 681 454 q 708 281 699 336 q 725 182 717 226 q 753 112 733 132 q 817 86 772 92 l 822 76 l 803 -4 q 783 -3 794 -3 q 762 -3 774 -3 q 738 -1 750 -3 q 683 -62 704 -37 q 649 -108 661 -87 q 631 -144 636 -128 q 625 -179 625 -161 q 640 -220 625 -204 q 682 -236 656 -236 q 716 -231 699 -236 q 749 -219 733 -226 q 782 -203 765 -212 l 803 -243 m 313 396 l 406 396 q 454 397 428 396 q 504 401 481 399 l 465 711 l 446 711 l 313 396 z "},"˛":{"ha":535,"x_min":47,"x_max":343,"o":"m 343 -242 q 294 -279 319 -261 q 247 -310 272 -294 q 194 -335 221 -326 q 87 -305 126 -335 q 47 -222 47 -275 q 60 -164 47 -193 q 99 -101 74 -135 q 165 -29 125 -68 q 258 58 204 10 l 333 58 q 251 -30 283 6 q 199 -92 218 -65 q 173 -137 181 -118 q 165 -178 165 -157 q 181 -219 165 -203 q 222 -235 196 -235 q 256 -230 239 -235 q 289 -218 274 -225 q 322 -201 306 -211 l 343 -242 z "},"Å":{"ha":843,"x_min":-54,"x_max":822,"o":"m 725 182 q 753 112 733 132 q 817 86 772 92 l 822 76 l 803 -4 q 742 -3 771 -4 q 688 -1 715 -1 q 638 0 660 0 q 552 -1 593 0 q 479 -6 511 -3 q 408 -11 442 -8 l 403 0 l 419 82 q 474 88 453 85 q 508 99 496 92 q 525 115 521 106 q 529 140 529 125 q 528 158 529 147 q 526 181 528 169 l 514 288 q 491 288 507 288 q 456 290 475 289 q 420 290 438 290 q 393 290 403 290 q 358 289 378 290 q 320 286 339 288 q 286 283 301 285 q 264 281 271 282 l 219 174 q 206 122 206 140 q 260 86 206 86 l 318 86 l 322 78 l 303 -8 q 238 -4 271 -7 q 175 -1 210 -3 q 108 0 140 0 q 52 -1 81 0 q 0 -3 24 -1 q -54 -4 -28 -4 l -33 88 q 21 113 -1 93 q 65 181 43 133 l 385 883 l 603 907 l 618 900 q 656 631 638 763 q 672 514 664 574 q 690 395 681 454 q 708 281 699 336 q 725 182 717 226 m 313 396 l 406 396 q 454 397 428 396 q 504 401 481 399 l 465 711 l 446 711 l 313 396 m 521 1015 q 540 1017 529 1015 q 559 1026 550 1019 q 575 1043 568 1032 q 582 1074 582 1054 q 568 1110 582 1097 q 526 1124 554 1124 q 483 1108 499 1124 q 468 1067 468 1092 q 486 1027 468 1039 q 521 1015 504 1015 m 503 942 q 424 972 450 942 q 397 1050 397 1001 q 439 1157 397 1114 q 546 1200 481 1200 q 628 1168 604 1200 q 653 1096 653 1136 q 642 1039 653 1067 q 613 990 632 1011 q 565 955 593 968 q 503 942 538 942 z "},"Ã":{"ha":843,"x_min":-54,"x_max":822,"o":"m 725 182 q 753 112 733 132 q 817 86 772 92 l 822 76 l 803 -4 q 742 -3 771 -4 q 688 -1 715 -1 q 638 0 660 0 q 552 -1 593 0 q 479 -6 511 -3 q 408 -11 442 -8 l 403 0 l 419 82 q 474 88 453 85 q 508 99 496 92 q 525 115 521 106 q 529 140 529 125 q 528 158 529 147 q 526 181 528 169 l 514 288 q 491 288 507 288 q 456 290 475 289 q 420 290 438 290 q 393 290 403 290 q 358 289 378 290 q 320 286 339 288 q 286 283 301 285 q 264 281 271 282 l 219 174 q 206 122 206 140 q 260 86 206 86 l 318 86 l 322 78 l 303 -8 q 238 -4 271 -7 q 175 -1 210 -3 q 108 0 140 0 q 52 -1 81 0 q 0 -3 24 -1 q -54 -4 -28 -4 l -33 88 q 21 113 -1 93 q 65 181 43 133 l 385 883 l 603 907 l 618 900 q 656 631 638 763 q 672 514 664 574 q 690 395 681 454 q 708 281 699 336 q 725 182 717 226 m 313 396 l 406 396 q 454 397 428 396 q 504 401 481 399 l 465 711 l 446 711 l 313 396 m 324 954 l 275 1006 l 276 1021 l 399 1154 l 421 1160 q 465 1152 438 1160 q 522 1136 493 1144 q 576 1120 550 1128 q 617 1113 601 1113 q 644 1124 628 1113 q 676 1149 661 1135 q 713 1185 693 1164 l 728 1185 l 776 1133 l 775 1119 l 653 985 l 629 979 q 585 987 613 979 q 530 1003 558 994 q 475 1019 501 1011 q 435 1026 449 1026 q 406 1015 422 1026 q 374 990 389 1004 q 339 954 357 975 l 324 954 z "},"B":{"ha":843,"x_min":7,"x_max":797,"o":"m 207 0 q 143 -2 178 0 q 78 -7 108 -4 q 7 -14 42 -11 l 28 78 q 77 92 57 83 q 110 113 97 100 q 131 143 124 125 q 140 189 138 161 l 208 733 q 205 788 213 772 q 174 803 197 803 q 159 802 167 803 q 144 801 151 801 q 128 800 136 800 l 119 811 l 143 894 q 218 892 182 893 q 280 890 249 890 q 329 890 311 890 q 378 891 346 890 q 443 894 411 892 q 524 899 481 896 q 725 850 653 899 q 797 710 797 801 q 625 471 797 560 q 747 397 704 446 q 790 282 790 349 q 763 161 790 215 q 686 68 736 107 q 567 8 636 29 q 413 -14 497 -14 q 368 -11 394 -14 q 313 -6 342 -8 q 256 -2 283 -4 q 207 0 228 0 m 347 390 l 315 185 q 335 122 308 140 q 432 103 363 103 q 544 145 503 103 q 586 260 586 188 q 557 344 586 310 q 469 392 528 378 l 347 390 m 364 511 q 418 504 393 507 q 459 500 439 501 q 489 499 479 499 q 544 535 519 511 q 583 587 565 554 q 600 668 600 619 q 560 758 600 729 q 433 786 519 786 q 413 781 418 786 q 406 761 408 776 q 394 698 400 732 q 383 631 388 664 q 373 566 378 597 q 364 511 368 535 z "},"C":{"ha":825,"x_min":44,"x_max":838,"o":"m 408 -17 q 256 9 324 -17 q 142 83 189 35 q 69 199 94 131 q 44 356 44 268 q 81 583 44 482 q 184 757 117 685 q 347 868 251 829 q 558 907 442 907 q 649 902 600 907 q 738 890 697 897 q 832 874 785 883 l 838 856 q 814 779 826 821 q 791 696 803 743 q 769 594 779 649 l 635 586 q 640 622 638 606 q 645 652 643 638 q 647 678 647 667 q 510 776 647 776 q 326 676 392 776 q 261 382 261 576 q 308 181 261 250 q 443 111 354 111 q 560 155 515 111 q 635 303 604 199 l 769 313 q 747 226 758 271 q 728 144 738 189 q 711 56 718 99 l 697 39 q 615 11 661 24 q 524 -8 576 0 q 408 -17 471 -17 z "},"Ć":{"ha":825,"x_min":44,"x_max":838,"o":"m 408 -17 q 256 9 324 -17 q 142 83 189 35 q 69 199 94 131 q 44 356 44 268 q 81 583 44 482 q 184 757 117 685 q 347 868 251 829 q 558 907 442 907 q 649 902 600 907 q 738 890 697 897 q 832 874 785 883 l 838 856 q 814 779 826 821 q 791 696 803 743 q 769 594 779 649 l 635 586 q 640 622 638 606 q 645 652 643 638 q 647 678 647 667 q 510 776 647 776 q 326 676 392 776 q 261 382 261 576 q 308 181 261 250 q 443 111 354 111 q 560 155 515 111 q 635 303 604 199 l 769 313 q 747 226 758 271 q 728 144 738 189 q 711 56 718 99 l 697 39 q 615 11 661 24 q 524 -8 576 0 q 408 -17 471 -17 m 738 1058 q 638 1032 690 1047 q 536 1003 593 1019 q 419 968 479 988 l 401 981 l 382 1046 q 494 1096 439 1069 q 593 1143 549 1122 q 692 1190 644 1168 l 710 1183 l 744 1076 l 738 1058 z "},"Č":{"ha":825,"x_min":44,"x_max":838,"o":"m 408 -17 q 256 9 324 -17 q 142 83 189 35 q 69 199 94 131 q 44 356 44 268 q 81 583 44 482 q 184 757 117 685 q 347 868 251 829 q 558 907 442 907 q 649 902 600 907 q 738 890 697 897 q 832 874 785 883 l 838 856 q 814 779 826 821 q 791 696 803 743 q 769 594 779 649 l 635 586 q 640 622 638 606 q 645 652 643 638 q 647 678 647 667 q 510 776 647 776 q 326 676 392 776 q 261 382 261 576 q 308 181 261 250 q 443 111 354 111 q 560 155 515 111 q 635 303 604 199 l 769 313 q 747 226 758 271 q 728 144 738 189 q 711 56 718 99 l 697 39 q 615 11 661 24 q 524 -8 576 0 q 408 -17 471 -17 m 793 1139 q 731 1094 769 1124 q 653 1038 692 1065 q 558 967 607 1004 l 532 967 q 456 1038 492 1004 q 392 1094 424 1065 q 342 1139 360 1124 l 381 1196 l 404 1201 q 438 1185 414 1197 q 488 1159 463 1172 q 535 1135 514 1146 q 564 1121 557 1124 q 597 1135 572 1124 q 650 1159 621 1146 q 706 1185 679 1172 q 744 1201 732 1197 l 765 1196 l 793 1139 z "},"Ç":{"ha":825,"x_min":44,"x_max":838,"o":"m 368 -15 q 233 18 293 -10 q 131 94 172 46 q 67 208 89 142 q 44 356 44 274 q 81 583 44 482 q 184 757 117 685 q 347 868 251 829 q 558 907 442 907 q 649 902 600 907 q 738 890 697 897 q 832 874 785 883 l 838 856 q 814 779 826 821 q 791 696 803 743 q 769 594 779 649 l 635 586 q 640 622 638 606 q 645 652 643 638 q 647 678 647 667 q 510 776 647 776 q 326 676 392 776 q 261 382 261 576 q 308 181 261 250 q 443 111 354 111 q 560 155 515 111 q 635 303 604 199 l 769 313 q 747 226 758 271 q 728 144 738 189 q 711 56 718 99 l 697 39 q 625 14 665 25 q 544 -4 590 4 q 440 -15 497 -12 l 422 -61 q 460 -85 439 -72 q 498 -115 481 -99 q 527 -151 515 -132 q 539 -189 539 -169 q 522 -244 539 -218 q 476 -289 504 -269 q 412 -319 447 -308 q 339 -331 376 -331 q 304 -326 322 -331 q 272 -315 286 -322 q 248 -297 257 -307 q 239 -272 239 -286 q 245 -253 239 -264 q 261 -228 251 -242 q 282 -203 271 -215 q 303 -181 293 -190 l 314 -181 q 328 -239 311 -219 q 374 -258 344 -258 q 415 -246 399 -258 q 432 -214 432 -233 q 422 -191 432 -203 q 397 -167 413 -179 q 364 -142 382 -154 q 328 -119 346 -131 l 368 -15 z "},"¸":{"ha":538,"x_min":46,"x_max":346,"o":"m 197 40 l 269 40 l 229 -61 q 267 -85 246 -72 q 305 -115 288 -99 q 334 -151 322 -132 q 346 -189 346 -169 q 328 -244 346 -218 q 283 -289 311 -269 q 219 -319 254 -308 q 146 -331 183 -331 q 111 -326 129 -331 q 78 -315 93 -322 q 55 -297 64 -307 q 46 -272 46 -286 q 52 -253 46 -264 q 68 -228 58 -242 q 89 -203 78 -215 q 110 -181 100 -190 l 121 -181 q 135 -239 118 -219 q 181 -258 151 -258 q 222 -246 206 -258 q 239 -214 239 -233 q 229 -191 239 -203 q 204 -167 219 -179 q 171 -142 189 -154 q 135 -119 153 -131 l 197 40 z "},"Ċ":{"ha":825,"x_min":44,"x_max":838,"o":"m 408 -17 q 256 9 324 -17 q 142 83 189 35 q 69 199 94 131 q 44 356 44 268 q 81 583 44 482 q 184 757 117 685 q 347 868 251 829 q 558 907 442 907 q 649 902 600 907 q 738 890 697 897 q 832 874 785 883 l 838 856 q 814 779 826 821 q 791 696 803 743 q 769 594 779 649 l 635 586 q 640 622 638 606 q 645 652 643 638 q 647 678 647 667 q 510 776 647 776 q 326 676 392 776 q 261 382 261 576 q 308 181 261 250 q 443 111 354 111 q 560 155 515 111 q 635 303 604 199 l 769 313 q 747 226 758 271 q 728 144 738 189 q 711 56 718 99 l 697 39 q 615 11 661 24 q 524 -8 576 0 q 408 -17 471 -17 m 550 975 q 484 999 506 975 q 463 1061 463 1022 q 498 1151 463 1115 q 588 1186 533 1186 q 651 1163 629 1186 q 672 1100 672 1139 q 638 1010 672 1046 q 550 975 603 975 z "},"D":{"ha":928,"x_min":10,"x_max":915,"o":"m 393 -17 q 318 -8 356 -12 q 249 -3 286 -6 q 185 0 213 0 q 127 -2 157 0 q 71 -7 97 -4 q 10 -14 40 -11 l 31 79 q 79 92 60 85 q 111 113 99 100 q 131 147 124 126 q 142 196 138 167 l 207 726 q 206 786 213 771 q 175 801 199 801 q 160 801 168 801 q 146 800 153 800 q 129 799 138 799 l 124 811 l 144 894 q 210 892 178 893 q 267 890 238 890 q 315 890 296 890 q 373 891 339 890 q 439 893 407 892 q 517 897 476 894 q 682 873 608 897 q 808 803 756 849 q 888 690 860 757 q 915 539 915 624 q 876 318 915 419 q 767 142 836 217 q 601 26 697 68 q 393 -17 506 -17 m 444 781 q 414 774 422 781 q 403 747 406 767 q 374 569 389 664 q 345 390 358 474 q 324 247 332 307 q 315 174 315 186 q 337 115 315 131 q 415 100 358 100 q 535 129 482 100 q 624 213 588 158 q 681 346 661 268 q 700 522 700 424 q 444 781 700 781 z "},"Ď":{"ha":926,"x_min":10,"x_max":915,"o":"m 393 -17 q 318 -8 356 -12 q 249 -3 286 -6 q 185 0 213 0 q 127 -2 157 0 q 71 -7 97 -4 q 10 -14 40 -11 l 31 79 q 79 92 60 85 q 111 113 99 100 q 131 147 124 126 q 142 196 138 167 l 207 726 q 206 786 213 771 q 175 801 199 801 q 160 801 168 801 q 146 800 153 800 q 129 799 138 799 l 124 811 l 144 894 q 210 892 178 893 q 267 890 238 890 q 315 890 296 890 q 373 891 339 890 q 439 893 407 892 q 517 897 476 894 q 682 873 608 897 q 808 803 756 849 q 888 690 860 757 q 915 539 915 624 q 876 318 915 419 q 767 142 836 217 q 601 26 697 68 q 393 -17 506 -17 m 444 781 q 414 774 422 781 q 403 747 406 767 q 374 569 389 664 q 345 390 358 474 q 324 247 332 307 q 315 174 315 186 q 337 115 315 131 q 415 100 358 100 q 535 129 482 100 q 624 213 588 158 q 681 346 661 268 q 700 522 700 424 q 444 781 700 781 m 774 1139 q 711 1094 750 1124 q 633 1038 672 1065 q 539 967 588 1004 l 513 967 q 436 1038 472 1004 q 372 1094 404 1065 q 322 1139 340 1124 l 361 1196 l 385 1201 q 419 1185 394 1197 q 469 1159 443 1172 q 516 1135 494 1146 q 544 1121 538 1124 q 577 1135 553 1124 q 631 1159 601 1146 q 686 1185 660 1172 q 725 1201 713 1197 l 746 1196 l 774 1139 z "},"E":{"ha":800,"x_min":7,"x_max":811,"o":"m 313 158 q 329 115 313 124 q 392 107 346 107 q 491 112 453 107 q 553 133 529 117 q 591 181 576 150 q 619 265 606 213 l 735 275 l 743 261 q 719 182 732 224 q 697 100 708 146 q 674 4 685 54 l 658 -10 q 513 -6 586 -8 q 378 -1 450 -3 q 243 0 306 0 q 156 -2 199 0 q 81 -7 114 -4 q 7 -14 42 -11 l 29 79 q 76 91 57 83 q 108 112 96 99 q 128 146 121 125 q 139 197 135 167 l 206 728 q 205 788 211 772 q 172 803 199 803 q 159 802 165 803 q 146 801 153 801 q 131 800 139 800 l 124 813 l 144 894 q 231 892 186 893 q 310 890 267 890 q 392 890 354 890 q 803 907 678 890 l 811 893 q 789 815 800 857 q 769 735 779 779 q 750 642 758 690 l 625 633 q 631 661 628 646 q 635 687 633 672 q 636 713 636 701 q 629 747 636 733 q 604 767 622 760 q 555 776 586 774 q 476 778 524 778 q 439 776 453 778 q 417 770 425 775 q 406 756 410 765 q 400 732 403 747 l 364 513 q 422 512 385 513 q 489 511 460 511 q 531 513 504 511 q 583 517 558 514 q 646 522 613 519 l 654 511 l 621 393 q 558 394 589 393 q 502 397 532 396 q 447 397 472 397 q 390 394 418 397 q 344 389 363 392 q 323 249 333 310 q 313 158 313 188 z "},"É":{"ha":801,"x_min":7,"x_max":811,"o":"m 313 158 q 329 115 313 124 q 392 107 346 107 q 491 112 453 107 q 553 133 529 117 q 591 181 576 150 q 619 265 606 213 l 735 275 l 743 261 q 719 182 732 224 q 697 100 708 146 q 674 4 685 54 l 658 -10 q 513 -6 586 -8 q 378 -1 450 -3 q 243 0 306 0 q 156 -2 199 0 q 81 -7 114 -4 q 7 -14 42 -11 l 29 79 q 76 91 57 83 q 108 112 96 99 q 128 146 121 125 q 139 197 135 167 l 206 728 q 205 788 211 772 q 172 803 199 803 q 159 802 165 803 q 146 801 153 801 q 131 800 139 800 l 124 813 l 144 894 q 231 892 186 893 q 310 890 267 890 q 392 890 354 890 q 803 907 678 890 l 811 893 q 789 815 800 857 q 769 735 779 779 q 750 642 758 690 l 625 633 q 631 661 628 646 q 635 687 633 672 q 636 713 636 701 q 629 747 636 733 q 604 767 622 760 q 555 776 586 774 q 476 778 524 778 q 439 776 453 778 q 417 770 425 775 q 406 756 410 765 q 400 732 403 747 l 364 513 q 422 512 385 513 q 489 511 460 511 q 531 513 504 511 q 583 517 558 514 q 646 522 613 519 l 654 511 l 621 393 q 558 394 589 393 q 502 397 532 396 q 447 397 472 397 q 390 394 418 397 q 344 389 363 392 q 323 249 333 310 q 313 158 313 188 m 688 1058 q 588 1032 640 1047 q 486 1003 543 1019 q 369 968 429 988 l 351 981 l 332 1046 q 444 1096 389 1069 q 543 1143 499 1122 q 642 1190 594 1168 l 660 1183 l 694 1076 l 688 1058 z "},"Ě":{"ha":801,"x_min":7,"x_max":811,"o":"m 313 158 q 329 115 313 124 q 392 107 346 107 q 491 112 453 107 q 553 133 529 117 q 591 181 576 150 q 619 265 606 213 l 735 275 l 743 261 q 719 182 732 224 q 697 100 708 146 q 674 4 685 54 l 658 -10 q 513 -6 586 -8 q 378 -1 450 -3 q 243 0 306 0 q 156 -2 199 0 q 81 -7 114 -4 q 7 -14 42 -11 l 29 79 q 76 91 57 83 q 108 112 96 99 q 128 146 121 125 q 139 197 135 167 l 206 728 q 205 788 211 772 q 172 803 199 803 q 159 802 165 803 q 146 801 153 801 q 131 800 139 800 l 124 813 l 144 894 q 231 892 186 893 q 310 890 267 890 q 392 890 354 890 q 803 907 678 890 l 811 893 q 789 815 800 857 q 769 735 779 779 q 750 642 758 690 l 625 633 q 631 661 628 646 q 635 687 633 672 q 636 713 636 701 q 629 747 636 733 q 604 767 622 760 q 555 776 586 774 q 476 778 524 778 q 439 776 453 778 q 417 770 425 775 q 406 756 410 765 q 400 732 403 747 l 364 513 q 422 512 385 513 q 489 511 460 511 q 531 513 504 511 q 583 517 558 514 q 646 522 613 519 l 654 511 l 621 393 q 558 394 589 393 q 502 397 532 396 q 447 397 472 397 q 390 394 418 397 q 344 389 363 392 q 323 249 333 310 q 313 158 313 188 m 758 1139 q 696 1094 735 1124 q 618 1038 657 1065 q 524 967 572 1004 l 497 967 q 421 1038 457 1004 q 357 1094 389 1065 q 307 1139 325 1124 l 346 1196 l 369 1201 q 403 1185 379 1197 q 453 1159 428 1172 q 501 1135 479 1146 q 529 1121 522 1124 q 562 1135 538 1124 q 615 1159 586 1146 q 671 1185 644 1172 q 710 1201 697 1197 l 731 1196 l 758 1139 z "},"Ê":{"ha":801,"x_min":7,"x_max":811,"o":"m 313 158 q 329 115 313 124 q 392 107 346 107 q 491 112 453 107 q 553 133 529 117 q 591 181 576 150 q 619 265 606 213 l 735 275 l 743 261 q 719 182 732 224 q 697 100 708 146 q 674 4 685 54 l 658 -10 q 513 -6 586 -8 q 378 -1 450 -3 q 243 0 306 0 q 156 -2 199 0 q 81 -7 114 -4 q 7 -14 42 -11 l 29 79 q 76 91 57 83 q 108 112 96 99 q 128 146 121 125 q 139 197 135 167 l 206 728 q 205 788 211 772 q 172 803 199 803 q 159 802 165 803 q 146 801 153 801 q 131 800 139 800 l 124 813 l 144 894 q 231 892 186 893 q 310 890 267 890 q 392 890 354 890 q 803 907 678 890 l 811 893 q 789 815 800 857 q 769 735 779 779 q 750 642 758 690 l 625 633 q 631 661 628 646 q 635 687 633 672 q 636 713 636 701 q 629 747 636 733 q 604 767 622 760 q 555 776 586 774 q 476 778 524 778 q 439 776 453 778 q 417 770 425 775 q 406 756 410 765 q 400 732 403 747 l 364 513 q 422 512 385 513 q 489 511 460 511 q 531 513 504 511 q 583 517 558 514 q 646 522 613 519 l 654 511 l 621 393 q 558 394 589 393 q 502 397 532 396 q 447 397 472 397 q 390 394 418 397 q 344 389 363 392 q 323 249 333 310 q 313 158 313 188 m 296 1044 q 357 1089 318 1060 q 435 1146 396 1118 q 529 1217 481 1179 l 557 1217 q 580 1197 557 1218 q 634 1148 603 1176 q 697 1090 665 1119 q 747 1044 729 1060 l 707 988 l 683 982 q 650 999 674 986 q 601 1024 626 1011 q 553 1049 575 1038 q 524 1063 531 1060 q 491 1049 515 1060 q 438 1024 467 1038 q 382 999 408 1011 q 343 982 356 986 l 322 988 l 296 1044 z "},"Ë":{"ha":801,"x_min":7,"x_max":811,"o":"m 313 158 q 329 115 313 124 q 392 107 346 107 q 491 112 453 107 q 553 133 529 117 q 591 181 576 150 q 619 265 606 213 l 735 275 l 743 261 q 719 182 732 224 q 697 100 708 146 q 674 4 685 54 l 658 -10 q 513 -6 586 -8 q 378 -1 450 -3 q 243 0 306 0 q 156 -2 199 0 q 81 -7 114 -4 q 7 -14 42 -11 l 29 79 q 76 91 57 83 q 108 112 96 99 q 128 146 121 125 q 139 197 135 167 l 206 728 q 205 788 211 772 q 172 803 199 803 q 159 802 165 803 q 146 801 153 801 q 131 800 139 800 l 124 813 l 144 894 q 231 892 186 893 q 310 890 267 890 q 392 890 354 890 q 803 907 678 890 l 811 893 q 789 815 800 857 q 769 735 779 779 q 750 642 758 690 l 625 633 q 631 661 628 646 q 635 687 633 672 q 636 713 636 701 q 629 747 636 733 q 604 767 622 760 q 555 776 586 774 q 476 778 524 778 q 439 776 453 778 q 417 770 425 775 q 406 756 410 765 q 400 732 403 747 l 364 513 q 422 512 385 513 q 489 511 460 511 q 531 513 504 511 q 583 517 558 514 q 646 522 613 519 l 654 511 l 621 393 q 558 394 589 393 q 502 397 532 396 q 447 397 472 397 q 390 394 418 397 q 344 389 363 392 q 323 249 333 310 q 313 158 313 188 m 628 988 q 574 1008 592 988 q 556 1060 556 1028 q 585 1135 556 1106 q 660 1165 615 1165 q 714 1145 696 1165 q 732 1093 732 1125 q 703 1018 732 1049 q 628 988 674 988 m 388 988 q 333 1008 351 988 q 315 1060 315 1028 q 344 1135 315 1106 q 419 1165 374 1165 q 474 1145 456 1165 q 492 1093 492 1125 q 463 1018 492 1049 q 388 988 433 988 z "},"Ė":{"ha":801,"x_min":7,"x_max":811,"o":"m 313 158 q 329 115 313 124 q 392 107 346 107 q 491 112 453 107 q 553 133 529 117 q 591 181 576 150 q 619 265 606 213 l 735 275 l 743 261 q 719 182 732 224 q 697 100 708 146 q 674 4 685 54 l 658 -10 q 513 -6 586 -8 q 378 -1 450 -3 q 243 0 306 0 q 156 -2 199 0 q 81 -7 114 -4 q 7 -14 42 -11 l 29 79 q 76 91 57 83 q 108 112 96 99 q 128 146 121 125 q 139 197 135 167 l 206 728 q 205 788 211 772 q 172 803 199 803 q 159 802 165 803 q 146 801 153 801 q 131 800 139 800 l 124 813 l 144 894 q 231 892 186 893 q 310 890 267 890 q 392 890 354 890 q 803 907 678 890 l 811 893 q 789 815 800 857 q 769 735 779 779 q 750 642 758 690 l 625 633 q 631 661 628 646 q 635 687 633 672 q 636 713 636 701 q 629 747 636 733 q 604 767 622 760 q 555 776 586 774 q 476 778 524 778 q 439 776 453 778 q 417 770 425 775 q 406 756 410 765 q 400 732 403 747 l 364 513 q 422 512 385 513 q 489 511 460 511 q 531 513 504 511 q 583 517 558 514 q 646 522 613 519 l 654 511 l 621 393 q 558 394 589 393 q 502 397 532 396 q 447 397 472 397 q 390 394 418 397 q 344 389 363 392 q 323 249 333 310 q 313 158 313 188 m 508 975 q 442 999 464 975 q 421 1061 421 1022 q 456 1151 421 1115 q 546 1186 492 1186 q 609 1163 588 1186 q 631 1100 631 1139 q 596 1010 631 1046 q 508 975 561 975 z "},"È":{"ha":801,"x_min":7,"x_max":811,"o":"m 313 158 q 329 115 313 124 q 392 107 346 107 q 491 112 453 107 q 553 133 529 117 q 591 181 576 150 q 619 265 606 213 l 735 275 l 743 261 q 719 182 732 224 q 697 100 708 146 q 674 4 685 54 l 658 -10 q 513 -6 586 -8 q 378 -1 450 -3 q 243 0 306 0 q 156 -2 199 0 q 81 -7 114 -4 q 7 -14 42 -11 l 29 79 q 76 91 57 83 q 108 112 96 99 q 128 146 121 125 q 139 197 135 167 l 206 728 q 205 788 211 772 q 172 803 199 803 q 159 802 165 803 q 146 801 153 801 q 131 800 139 800 l 124 813 l 144 894 q 231 892 186 893 q 310 890 267 890 q 392 890 354 890 q 803 907 678 890 l 811 893 q 789 815 800 857 q 769 735 779 779 q 750 642 758 690 l 625 633 q 631 661 628 646 q 635 687 633 672 q 636 713 636 701 q 629 747 636 733 q 604 767 622 760 q 555 776 586 774 q 476 778 524 778 q 439 776 453 778 q 417 770 425 775 q 406 756 410 765 q 400 732 403 747 l 364 513 q 422 512 385 513 q 489 511 460 511 q 531 513 504 511 q 583 517 558 514 q 646 522 613 519 l 654 511 l 621 393 q 558 394 589 393 q 502 397 532 396 q 447 397 472 397 q 390 394 418 397 q 344 389 363 392 q 323 249 333 310 q 313 158 313 188 m 301 1076 l 336 1183 l 354 1190 q 453 1143 401 1168 q 552 1096 497 1122 q 664 1046 607 1069 l 646 981 l 626 968 q 510 1003 567 988 q 408 1032 453 1019 q 308 1058 356 1047 l 301 1076 z "},"Ē":{"ha":801,"x_min":7,"x_max":811,"o":"m 313 158 q 329 115 313 124 q 392 107 346 107 q 491 112 453 107 q 553 133 529 117 q 591 181 576 150 q 619 265 606 213 l 735 275 l 743 261 q 719 182 732 224 q 697 100 708 146 q 674 4 685 54 l 658 -10 q 513 -6 586 -8 q 378 -1 450 -3 q 243 0 306 0 q 156 -2 199 0 q 81 -7 114 -4 q 7 -14 42 -11 l 29 79 q 76 91 57 83 q 108 112 96 99 q 128 146 121 125 q 139 197 135 167 l 206 728 q 205 788 211 772 q 172 803 199 803 q 159 802 165 803 q 146 801 153 801 q 131 800 139 800 l 124 813 l 144 894 q 231 892 186 893 q 310 890 267 890 q 392 890 354 890 q 803 907 678 890 l 811 893 q 789 815 800 857 q 769 735 779 779 q 750 642 758 690 l 625 633 q 631 661 628 646 q 635 687 633 672 q 636 713 636 701 q 629 747 636 733 q 604 767 622 760 q 555 776 586 774 q 476 778 524 778 q 439 776 453 778 q 417 770 425 775 q 406 756 410 765 q 400 732 403 747 l 364 513 q 422 512 385 513 q 489 511 460 511 q 531 513 504 511 q 583 517 558 514 q 646 522 613 519 l 654 511 l 621 393 q 558 394 589 393 q 502 397 532 396 q 447 397 472 397 q 390 394 418 397 q 344 389 363 392 q 323 249 333 310 q 313 158 313 188 m 733 1099 l 703 992 l 514 990 q 451 990 483 990 q 392 989 419 989 l 328 989 l 315 1006 l 347 1111 q 421 1110 385 1110 l 553 1110 q 608 1110 578 1110 q 664 1114 638 1111 q 724 1118 694 1115 l 733 1099 z "},"Ŋ":{"ha":976,"x_min":18,"x_max":1025,"o":"m 279 892 q 319 892 296 892 q 363 894 342 893 q 411 897 388 896 q 507 691 457 794 q 600 504 557 588 q 697 317 649 407 l 710 317 l 761 744 q 756 790 764 776 q 724 804 747 804 q 708 803 717 804 q 693 803 700 803 l 676 803 l 674 811 l 693 897 q 765 894 731 896 q 824 892 794 893 q 868 892 853 892 q 918 892 890 892 q 969 896 946 893 q 1025 900 997 897 l 1008 808 q 940 782 961 801 q 913 721 919 763 l 825 119 q 790 -4 814 50 q 727 -100 767 -58 q 631 -173 688 -142 q 500 -226 575 -204 l 467 -169 l 472 -154 q 576 -86 538 -125 q 639 6 615 -47 q 526 235 579 129 q 433 421 474 342 q 346 590 386 514 l 333 590 l 278 150 q 282 101 274 114 q 317 88 290 88 q 331 88 322 88 q 350 89 340 88 q 374 90 361 89 l 381 82 l 357 -6 q 290 -3 325 -4 q 226 -1 261 -1 q 160 0 192 0 q 115 -1 139 0 q 68 -6 90 -3 q 18 -11 43 -8 l 40 79 q 103 107 83 85 q 133 185 124 129 l 214 721 q 200 781 219 764 q 117 807 181 799 l 108 821 l 126 899 q 183 894 156 896 q 233 892 207 893 q 279 892 260 892 z "},"Ę":{"ha":801,"x_min":7,"x_max":811,"o":"m 676 -242 q 628 -279 653 -261 q 580 -310 606 -294 q 528 -335 554 -326 q 420 -305 460 -335 q 381 -222 381 -275 q 415 -124 381 -174 q 522 -4 450 -74 q 383 -1 458 -1 q 243 0 308 0 q 156 -2 199 0 q 81 -7 114 -4 q 7 -14 42 -11 l 29 79 q 76 91 57 83 q 108 112 96 99 q 128 146 121 125 q 139 197 135 167 l 206 728 q 205 788 211 772 q 172 803 199 803 q 159 802 165 803 q 146 801 153 801 q 131 800 139 800 l 124 813 l 144 894 q 231 892 186 893 q 310 890 267 890 q 392 890 354 890 q 803 907 678 890 l 811 893 q 789 815 800 857 q 769 735 779 779 q 750 642 758 690 l 625 633 q 631 661 628 646 q 635 687 633 672 q 636 713 636 701 q 629 747 636 733 q 604 767 622 760 q 555 776 586 774 q 476 778 524 778 q 439 776 453 778 q 417 770 425 775 q 406 756 410 765 q 400 732 403 747 l 364 513 q 422 512 385 513 q 489 511 460 511 q 531 513 504 511 q 583 517 558 514 q 646 522 613 519 l 654 511 l 621 393 q 558 394 589 393 q 502 397 532 396 q 447 397 472 397 q 390 394 418 397 q 344 389 363 392 q 323 249 333 310 q 313 158 313 188 q 329 115 313 124 q 392 107 346 107 q 491 112 453 107 q 553 133 529 117 q 591 181 576 150 q 619 265 606 213 l 735 275 l 743 261 q 719 182 732 224 q 697 100 708 146 q 674 4 685 54 l 658 -10 q 643 -8 651 -8 q 626 -8 636 -8 q 604 -7 617 -8 q 553 -65 574 -40 q 521 -108 533 -89 q 503 -144 508 -128 q 499 -178 499 -161 q 514 -219 499 -203 q 556 -235 529 -235 q 590 -230 572 -235 q 622 -218 607 -225 q 656 -201 639 -211 l 676 -242 z "},"Ð":{"ha":947,"x_min":22,"x_max":936,"o":"m 414 -17 q 339 -8 376 -12 q 270 -3 307 -6 q 206 0 233 0 q 148 -2 178 0 q 92 -7 118 -4 q 31 -14 61 -11 l 51 79 q 100 92 81 85 q 132 113 119 100 q 151 147 144 126 q 163 196 158 167 l 188 397 l 32 397 l 22 407 l 46 490 l 199 490 l 228 726 q 226 786 233 771 q 196 801 219 801 q 181 801 189 801 q 167 800 174 800 q 150 799 158 799 l 144 811 l 165 894 q 231 892 199 893 q 288 890 258 890 q 336 890 317 890 q 394 891 360 890 q 460 893 428 892 q 538 897 497 894 q 703 873 629 897 q 828 803 776 849 q 908 690 881 757 q 936 539 936 624 q 897 318 936 419 q 788 142 857 217 q 622 26 718 68 q 414 -17 526 -17 m 465 781 q 435 774 443 781 q 424 747 426 767 q 403 622 413 688 q 382 490 393 556 l 544 493 l 553 481 l 533 397 l 367 397 q 344 248 353 310 q 336 174 336 186 q 358 115 336 131 q 436 100 379 100 q 556 129 503 100 q 645 213 608 158 q 701 346 682 268 q 721 522 721 424 q 465 781 721 781 z "},"F":{"ha":714,"x_min":7,"x_max":779,"o":"m 317 194 q 319 126 310 146 q 364 106 329 106 q 392 106 376 106 q 421 108 407 107 q 451 113 436 110 l 461 99 l 435 -6 q 356 -3 393 -4 q 287 -1 322 -1 q 226 0 251 0 q 149 -3 188 0 q 78 -8 110 -6 q 7 -15 42 -12 l 28 76 q 109 113 86 88 q 139 197 132 138 l 206 728 q 205 788 211 772 q 172 803 199 803 q 159 802 165 803 q 146 801 153 801 q 131 800 139 800 l 124 813 l 144 894 q 231 892 186 893 q 310 890 267 890 q 392 890 354 890 q 615 894 518 890 q 771 907 713 899 l 779 893 q 758 814 768 856 q 739 733 749 778 q 721 640 729 689 l 597 632 q 603 661 600 646 q 607 688 606 674 q 608 714 608 701 q 581 766 608 754 q 476 778 553 778 q 439 776 453 778 q 417 770 425 775 q 406 756 410 765 q 400 732 403 747 l 361 489 l 486 488 q 525 489 501 488 q 572 493 549 490 q 628 499 599 496 l 636 488 l 604 369 q 547 371 575 369 q 496 373 524 372 q 444 374 468 374 q 387 370 414 374 q 342 364 360 367 l 317 194 z "},"G":{"ha":874,"x_min":44,"x_max":838,"o":"m 408 -17 q 256 9 324 -17 q 142 83 189 35 q 69 199 94 131 q 44 356 44 268 q 81 583 44 482 q 184 757 117 685 q 347 868 251 829 q 558 907 442 907 q 649 902 600 907 q 738 890 697 897 q 832 874 785 883 l 838 856 q 814 785 826 824 q 791 705 803 751 q 769 604 779 658 l 635 594 q 640 628 638 613 q 645 656 643 642 q 647 681 647 669 q 510 776 647 776 q 326 676 392 776 q 261 382 261 576 q 308 181 261 250 q 443 111 354 111 q 497 117 472 111 q 540 129 522 122 q 578 147 561 136 l 593 279 q 588 333 597 319 q 543 346 579 346 l 474 346 l 468 357 l 494 454 q 513 453 494 454 q 560 453 532 453 q 621 452 588 453 q 682 451 654 451 q 726 452 703 451 q 769 454 749 453 q 801 457 789 456 q 814 458 814 458 l 817 406 q 777 363 792 390 q 756 292 763 336 q 747 242 751 271 q 740 186 743 214 q 734 135 736 158 q 732 103 732 113 l 732 72 q 733 57 732 64 l 719 40 q 636 11 683 24 q 538 -8 596 0 q 408 -17 481 -17 z "},"Ğ":{"ha":874,"x_min":44,"x_max":838,"o":"m 408 -17 q 256 9 324 -17 q 142 83 189 35 q 69 199 94 131 q 44 356 44 268 q 81 583 44 482 q 184 757 117 685 q 347 868 251 829 q 558 907 442 907 q 649 902 600 907 q 738 890 697 897 q 832 874 785 883 l 838 856 q 814 785 826 824 q 791 705 803 751 q 769 604 779 658 l 635 594 q 640 628 638 613 q 645 656 643 642 q 647 681 647 669 q 510 776 647 776 q 326 676 392 776 q 261 382 261 576 q 308 181 261 250 q 443 111 354 111 q 497 117 472 111 q 540 129 522 122 q 578 147 561 136 l 593 279 q 588 333 597 319 q 543 346 579 346 l 474 346 l 468 357 l 494 454 q 513 453 494 454 q 560 453 532 453 q 621 452 588 453 q 682 451 654 451 q 726 452 703 451 q 769 454 749 453 q 801 457 789 456 q 814 458 814 458 l 817 406 q 777 363 792 390 q 756 292 763 336 q 747 242 751 271 q 740 186 743 214 q 734 135 736 158 q 732 103 732 113 l 732 72 q 733 57 732 64 l 719 40 q 636 11 683 24 q 538 -8 596 0 q 408 -17 481 -17 m 553 1124 q 640 1144 600 1124 q 704 1206 681 1164 l 726 1201 l 758 1153 q 726 1094 746 1122 q 678 1042 706 1065 q 616 1006 651 1019 q 538 992 581 992 q 463 1006 494 992 q 408 1042 431 1019 q 374 1094 386 1065 q 356 1153 361 1122 l 401 1201 l 425 1206 q 474 1144 439 1164 q 553 1124 508 1124 z "},"Ģ":{"ha":874,"x_min":44,"x_max":838,"o":"m 408 -17 q 256 9 324 -17 q 142 83 189 35 q 69 199 94 131 q 44 356 44 268 q 81 583 44 482 q 184 757 117 685 q 347 868 251 829 q 558 907 442 907 q 649 902 600 907 q 738 890 697 897 q 832 874 785 883 l 838 856 q 814 785 826 824 q 791 705 803 751 q 769 604 779 658 l 635 594 q 640 628 638 613 q 645 656 643 642 q 647 681 647 669 q 510 776 647 776 q 326 676 392 776 q 261 382 261 576 q 308 181 261 250 q 443 111 354 111 q 497 117 472 111 q 540 129 522 122 q 578 147 561 136 l 593 279 q 588 333 597 319 q 543 346 579 346 l 474 346 l 468 357 l 494 454 q 513 453 494 454 q 560 453 532 453 q 621 452 588 453 q 682 451 654 451 q 726 452 703 451 q 769 454 749 453 q 801 457 789 456 q 814 458 814 458 l 817 406 q 777 363 792 390 q 756 292 763 336 q 747 242 751 271 q 740 186 743 214 q 734 135 736 158 q 732 103 732 113 l 732 72 q 733 57 732 64 l 719 40 q 636 11 683 24 q 538 -8 596 0 q 408 -17 481 -17 m 290 -119 q 344 -85 315 -100 q 400 -71 374 -71 q 469 -103 442 -71 q 496 -190 496 -135 q 479 -263 496 -228 q 434 -331 463 -299 q 369 -391 406 -362 q 292 -442 332 -419 l 240 -400 l 240 -376 q 308 -310 281 -349 q 335 -235 335 -271 q 321 -181 335 -207 q 286 -139 307 -156 l 290 -119 z "},"Ġ":{"ha":874,"x_min":44,"x_max":838,"o":"m 408 -17 q 256 9 324 -17 q 142 83 189 35 q 69 199 94 131 q 44 356 44 268 q 81 583 44 482 q 184 757 117 685 q 347 868 251 829 q 558 907 442 907 q 649 902 600 907 q 738 890 697 897 q 832 874 785 883 l 838 856 q 814 785 826 824 q 791 705 803 751 q 769 604 779 658 l 635 594 q 640 628 638 613 q 645 656 643 642 q 647 681 647 669 q 510 776 647 776 q 326 676 392 776 q 261 382 261 576 q 308 181 261 250 q 443 111 354 111 q 497 117 472 111 q 540 129 522 122 q 578 147 561 136 l 593 279 q 588 333 597 319 q 543 346 579 346 l 474 346 l 468 357 l 494 454 q 513 453 494 454 q 560 453 532 453 q 621 452 588 453 q 682 451 654 451 q 726 452 703 451 q 769 454 749 453 q 801 457 789 456 q 814 458 814 458 l 817 406 q 777 363 792 390 q 756 292 763 336 q 747 242 751 271 q 740 186 743 214 q 734 135 736 158 q 732 103 732 113 l 732 72 q 733 57 732 64 l 719 40 q 636 11 683 24 q 538 -8 596 0 q 408 -17 481 -17 m 546 975 q 480 999 501 975 q 458 1061 458 1022 q 494 1151 458 1115 q 583 1186 529 1186 q 647 1163 625 1186 q 668 1100 668 1139 q 633 1010 668 1046 q 546 975 599 975 z "},"H":{"ha":1000,"x_min":8,"x_max":1021,"o":"m 911 735 q 893 631 903 689 q 874 512 883 572 q 856 392 864 451 q 840 284 847 333 q 829 199 833 235 q 825 150 825 164 q 835 102 825 115 q 871 89 846 89 q 888 89 879 89 q 904 90 897 89 q 921 93 913 92 q 924 88 922 90 q 926 83 925 86 l 904 -4 q 849 -3 876 -4 q 796 -1 825 -1 q 739 0 767 0 l 683 0 q 634 -1 663 0 q 581 -1 606 -1 q 519 -3 550 -3 l 542 88 q 588 94 569 88 q 620 115 607 100 q 641 153 633 129 q 653 215 649 178 l 675 394 l 622 394 q 575 395 600 394 q 532 396 550 396 q 488 394 518 396 q 425 389 457 392 q 343 382 388 385 l 324 229 q 315 173 319 201 q 314 128 311 144 q 324 97 315 104 q 356 89 333 89 q 374 89 365 89 q 390 90 383 89 q 404 93 397 92 l 410 83 l 388 -4 q 324 -3 354 -4 q 270 -1 297 -1 q 224 0 243 0 q 156 -1 193 0 q 87 -5 119 -3 q 31 -9 54 -7 q 8 -12 8 -11 l 29 76 q 83 92 63 83 q 115 117 103 101 q 133 156 126 132 q 143 217 139 181 l 206 731 q 203 789 211 775 q 167 803 196 803 q 153 802 160 803 q 140 801 147 801 l 126 801 l 121 813 l 140 893 q 200 892 171 892 q 253 890 225 890 q 301 890 281 890 q 361 892 326 890 q 428 896 396 893 q 506 901 465 899 l 488 810 q 445 800 461 806 q 419 784 429 794 q 405 756 410 774 q 396 710 400 738 l 363 510 q 448 509 406 510 q 532 507 490 508 q 615 509 581 507 q 689 517 649 511 l 717 731 q 715 788 724 774 q 678 803 706 803 q 664 802 671 803 q 650 801 657 801 l 636 801 l 631 813 l 651 893 q 674 892 651 893 q 729 892 697 892 q 792 891 761 892 q 840 890 824 890 q 897 892 865 890 q 956 896 928 893 q 1021 901 988 899 l 1004 811 q 936 789 954 804 q 911 735 918 774 z "},"I":{"ha":489,"x_min":7,"x_max":515,"o":"m 400 735 q 382 628 392 686 q 363 508 372 569 q 344 388 353 447 q 328 280 335 329 q 317 194 321 231 q 313 144 313 158 q 322 101 313 113 q 356 89 332 89 q 377 89 367 89 q 396 90 388 89 q 414 93 406 92 l 418 83 l 396 -4 q 319 -3 356 -4 q 253 -1 288 -1 q 197 0 219 0 q 135 -2 168 0 q 74 -7 101 -4 q 7 -12 40 -10 l 28 76 q 110 113 88 89 q 140 193 133 136 l 206 731 q 203 788 211 774 q 167 803 196 803 q 152 802 160 803 q 138 801 144 801 l 121 801 l 115 813 l 135 893 q 170 892 149 893 q 218 892 192 892 q 272 891 244 892 q 322 890 299 890 q 378 892 344 890 q 442 896 411 893 q 515 901 478 899 l 496 810 q 453 801 469 806 q 426 788 436 796 q 410 767 415 779 q 400 735 404 754 z "},"J":{"ha":446,"x_min":-58,"x_max":486,"o":"m 193 731 q 192 789 199 775 q 157 803 185 803 q 140 802 150 803 q 121 800 131 801 q 99 799 110 799 l 94 810 l 114 890 l 281 892 q 351 893 315 892 q 418 897 388 894 q 486 903 454 900 l 467 810 q 431 801 444 806 q 408 788 417 796 q 396 768 400 781 q 388 735 392 756 q 367 610 379 688 q 342 447 354 532 q 317 279 329 361 q 299 142 306 197 q 202 -81 279 3 q -26 -212 125 -165 l -58 -157 l -53 -142 q 22 -85 -8 -112 q 72 -22 51 -57 q 103 60 92 14 q 124 171 115 106 l 193 731 z "},"Í":{"ha":490,"x_min":7,"x_max":547,"o":"m 400 735 q 382 628 392 686 q 363 508 372 569 q 344 388 353 447 q 328 280 335 329 q 317 194 321 231 q 313 144 313 158 q 322 101 313 113 q 356 89 332 89 q 377 89 367 89 q 396 90 388 89 q 414 93 406 92 l 418 83 l 396 -4 q 319 -3 356 -4 q 253 -1 288 -1 q 197 0 219 0 q 135 -2 168 0 q 74 -7 101 -4 q 7 -12 40 -10 l 28 76 q 110 113 88 89 q 140 193 133 136 l 206 731 q 203 788 211 774 q 167 803 196 803 q 152 802 160 803 q 138 801 144 801 l 121 801 l 115 813 l 135 893 q 170 892 149 893 q 218 892 192 892 q 272 891 244 892 q 322 890 299 890 q 378 892 344 890 q 442 896 411 893 q 515 901 478 899 l 496 810 q 453 801 469 806 q 426 788 436 796 q 410 767 415 779 q 400 735 404 754 m 540 1058 q 440 1032 493 1047 q 339 1003 396 1019 q 222 968 282 988 l 204 981 l 185 1046 q 297 1096 242 1069 q 396 1143 351 1122 q 494 1190 447 1168 l 513 1183 l 547 1076 l 540 1058 z "},"Î":{"ha":490,"x_min":7,"x_max":564,"o":"m 400 735 q 382 628 392 686 q 363 508 372 569 q 344 388 353 447 q 328 280 335 329 q 317 194 321 231 q 313 144 313 158 q 322 101 313 113 q 356 89 332 89 q 377 89 367 89 q 396 90 388 89 q 414 93 406 92 l 418 83 l 396 -4 q 319 -3 356 -4 q 253 -1 288 -1 q 197 0 219 0 q 135 -2 168 0 q 74 -7 101 -4 q 7 -12 40 -10 l 28 76 q 110 113 88 89 q 140 193 133 136 l 206 731 q 203 788 211 774 q 167 803 196 803 q 152 802 160 803 q 138 801 144 801 l 121 801 l 115 813 l 135 893 q 170 892 149 893 q 218 892 192 892 q 272 891 244 892 q 322 890 299 890 q 378 892 344 890 q 442 896 411 893 q 515 901 478 899 l 496 810 q 453 801 469 806 q 426 788 436 796 q 410 767 415 779 q 400 735 404 754 m 113 1044 q 174 1089 135 1060 q 251 1146 213 1118 q 346 1217 297 1179 l 374 1217 q 397 1197 374 1218 q 451 1148 419 1176 q 514 1090 482 1119 q 564 1044 546 1060 l 524 988 l 500 982 q 467 999 490 986 q 417 1024 443 1011 q 369 1049 392 1038 q 340 1063 347 1060 q 308 1049 332 1060 q 254 1024 283 1038 q 199 999 225 1011 q 160 982 172 986 l 139 988 l 113 1044 z "},"Ï":{"ha":490,"x_min":7,"x_max":550,"o":"m 400 735 q 382 628 392 686 q 363 508 372 569 q 344 388 353 447 q 328 280 335 329 q 317 194 321 231 q 313 144 313 158 q 322 101 313 113 q 356 89 332 89 q 377 89 367 89 q 396 90 388 89 q 414 93 406 92 l 418 83 l 396 -4 q 319 -3 356 -4 q 253 -1 288 -1 q 197 0 219 0 q 135 -2 168 0 q 74 -7 101 -4 q 7 -12 40 -10 l 28 76 q 110 113 88 89 q 140 193 133 136 l 206 731 q 203 788 211 774 q 167 803 196 803 q 152 802 160 803 q 138 801 144 801 l 121 801 l 115 813 l 135 893 q 170 892 149 893 q 218 892 192 892 q 272 891 244 892 q 322 890 299 890 q 378 892 344 890 q 442 896 411 893 q 515 901 478 899 l 496 810 q 453 801 469 806 q 426 788 436 796 q 410 767 415 779 q 400 735 404 754 m 446 988 q 392 1008 410 988 q 374 1060 374 1028 q 403 1135 374 1106 q 478 1165 433 1165 q 532 1145 514 1165 q 550 1093 550 1125 q 521 1018 550 1049 q 446 988 492 988 m 206 988 q 151 1008 169 988 q 133 1060 133 1028 q 163 1135 133 1106 q 238 1165 192 1165 q 292 1145 274 1165 q 310 1093 310 1125 q 281 1018 310 1049 q 206 988 251 988 z "},"İ":{"ha":490,"x_min":7,"x_max":515,"o":"m 400 735 q 382 628 392 686 q 363 508 372 569 q 344 388 353 447 q 328 280 335 329 q 317 194 321 231 q 313 144 313 158 q 322 101 313 113 q 356 89 332 89 q 377 89 367 89 q 396 90 388 89 q 414 93 406 92 l 418 83 l 396 -4 q 319 -3 356 -4 q 253 -1 288 -1 q 197 0 219 0 q 135 -2 168 0 q 74 -7 101 -4 q 7 -12 40 -10 l 28 76 q 110 113 88 89 q 140 193 133 136 l 206 731 q 203 788 211 774 q 167 803 196 803 q 152 802 160 803 q 138 801 144 801 l 121 801 l 115 813 l 135 893 q 170 892 149 893 q 218 892 192 892 q 272 891 244 892 q 322 890 299 890 q 378 892 344 890 q 442 896 411 893 q 515 901 478 899 l 496 810 q 453 801 469 806 q 426 788 436 796 q 410 767 415 779 q 400 735 404 754 m 326 975 q 260 999 282 975 q 239 1061 239 1022 q 274 1151 239 1115 q 364 1186 310 1186 q 427 1163 406 1186 q 449 1100 449 1139 q 414 1010 449 1046 q 326 975 379 975 z "},"Ì":{"ha":490,"x_min":7,"x_max":515,"o":"m 400 735 q 382 628 392 686 q 363 508 372 569 q 344 388 353 447 q 328 280 335 329 q 317 194 321 231 q 313 144 313 158 q 322 101 313 113 q 356 89 332 89 q 377 89 367 89 q 396 90 388 89 q 414 93 406 92 l 418 83 l 396 -4 q 319 -3 356 -4 q 253 -1 288 -1 q 197 0 219 0 q 135 -2 168 0 q 74 -7 101 -4 q 7 -12 40 -10 l 28 76 q 110 113 88 89 q 140 193 133 136 l 206 731 q 203 788 211 774 q 167 803 196 803 q 152 802 160 803 q 138 801 144 801 l 121 801 l 115 813 l 135 893 q 170 892 149 893 q 218 892 192 892 q 272 891 244 892 q 322 890 299 890 q 378 892 344 890 q 442 896 411 893 q 515 901 478 899 l 496 810 q 453 801 469 806 q 426 788 436 796 q 410 767 415 779 q 400 735 404 754 m 122 1076 l 157 1183 l 175 1190 q 274 1143 222 1168 q 373 1096 318 1122 q 485 1046 428 1069 l 467 981 l 447 968 q 331 1003 388 988 q 229 1032 274 1019 q 129 1058 176 1047 l 122 1076 z "},"Ī":{"ha":490,"x_min":7,"x_max":551,"o":"m 400 735 q 382 628 392 686 q 363 508 372 569 q 344 388 353 447 q 328 280 335 329 q 317 194 321 231 q 313 144 313 158 q 322 101 313 113 q 356 89 332 89 q 377 89 367 89 q 396 90 388 89 q 414 93 406 92 l 418 83 l 396 -4 q 319 -3 356 -4 q 253 -1 288 -1 q 197 0 219 0 q 135 -2 168 0 q 74 -7 101 -4 q 7 -12 40 -10 l 28 76 q 110 113 88 89 q 140 193 133 136 l 206 731 q 203 788 211 774 q 167 803 196 803 q 152 802 160 803 q 138 801 144 801 l 121 801 l 115 813 l 135 893 q 170 892 149 893 q 218 892 192 892 q 272 891 244 892 q 322 890 299 890 q 378 892 344 890 q 442 896 411 893 q 515 901 478 899 l 496 810 q 453 801 469 806 q 426 788 436 796 q 410 767 415 779 q 400 735 404 754 m 551 1099 l 521 992 l 332 990 q 269 990 301 990 q 210 989 238 989 l 146 989 l 133 1006 l 165 1111 q 239 1110 203 1110 l 371 1110 q 426 1110 396 1110 q 482 1114 456 1111 q 542 1118 513 1115 l 551 1099 z "},"Į":{"ha":490,"x_min":7,"x_max":515,"o":"m 401 -243 q 353 -281 378 -262 q 305 -312 331 -296 q 253 -336 279 -328 q 145 -306 185 -336 q 106 -224 106 -276 q 142 -123 106 -174 q 254 0 179 -72 l 197 0 q 135 -2 168 0 q 74 -7 101 -4 q 7 -12 40 -10 l 28 76 q 110 113 88 89 q 140 193 133 136 l 206 731 q 203 788 211 774 q 167 803 196 803 q 152 802 160 803 q 138 801 144 801 l 121 801 l 115 813 l 135 893 q 170 892 149 893 q 218 892 192 892 q 272 891 244 892 q 322 890 299 890 q 378 892 344 890 q 442 896 411 893 q 515 901 478 899 l 496 810 q 453 801 469 806 q 426 788 436 796 q 410 767 415 779 q 400 735 404 754 q 382 628 392 686 q 363 508 372 569 q 344 388 353 447 q 328 280 335 329 q 317 194 321 231 q 313 144 313 158 q 322 101 313 113 q 356 89 332 89 q 377 89 367 89 q 396 90 388 89 q 414 93 406 92 l 418 83 l 396 -4 q 378 -3 388 -3 q 358 -3 369 -3 q 335 -1 347 -3 q 280 -62 301 -37 q 246 -108 258 -87 q 228 -144 233 -128 q 224 -179 224 -161 q 239 -220 224 -204 q 281 -236 254 -236 q 315 -231 297 -236 q 347 -219 332 -226 q 381 -203 364 -212 l 401 -243 z "},"K":{"ha":885,"x_min":8,"x_max":933,"o":"m 206 731 q 203 789 211 775 q 167 803 196 803 q 153 802 160 803 q 140 801 147 801 l 126 801 l 121 813 l 142 894 q 218 892 182 893 q 278 890 249 890 q 322 890 307 890 q 375 892 343 890 q 438 896 407 893 q 510 901 474 899 l 492 810 q 448 798 465 804 q 420 783 431 792 q 404 760 410 774 q 396 729 399 747 l 315 183 q 316 108 308 126 q 356 89 324 89 q 376 89 367 89 q 392 90 385 89 q 408 93 400 92 l 414 83 l 390 -4 q 315 -3 351 -4 q 251 -1 283 -1 q 197 0 219 0 q 136 -1 169 0 q 75 -3 103 -1 q 8 -4 42 -4 l 32 83 q 81 94 61 88 q 112 114 100 101 q 130 145 124 126 q 140 193 136 164 l 206 731 m 381 468 l 599 688 q 647 767 647 736 q 633 793 647 785 q 583 804 618 801 l 579 814 l 600 899 q 663 894 632 896 q 718 891 689 892 q 768 890 747 890 q 814 891 788 890 q 865 893 840 892 q 926 897 894 894 l 933 882 l 914 804 q 869 783 890 794 q 828 756 849 772 q 783 716 807 739 q 731 661 760 693 l 561 482 l 703 201 q 765 110 735 138 q 839 79 796 82 l 847 68 l 828 -4 q 757 -12 790 -8 q 703 -18 729 -15 q 668 -21 676 -21 q 593 8 625 -21 q 533 96 561 36 l 374 439 l 381 468 z "},"Ķ":{"ha":888,"x_min":8,"x_max":933,"o":"m 206 731 q 203 789 211 775 q 167 803 196 803 q 153 802 160 803 q 140 801 147 801 l 126 801 l 121 813 l 142 894 q 218 892 182 893 q 278 890 249 890 q 322 890 307 890 q 375 892 343 890 q 438 896 407 893 q 510 901 474 899 l 492 810 q 448 798 465 804 q 420 783 431 792 q 404 760 410 774 q 396 729 399 747 l 315 183 q 316 108 308 126 q 356 89 324 89 q 376 89 367 89 q 392 90 385 89 q 408 93 400 92 l 414 83 l 390 -4 q 315 -3 351 -4 q 251 -1 283 -1 q 197 0 219 0 q 136 -1 169 0 q 75 -3 103 -1 q 8 -4 42 -4 l 32 83 q 81 94 61 88 q 112 114 100 101 q 130 145 124 126 q 140 193 136 164 l 206 731 m 381 468 l 599 688 q 647 767 647 736 q 633 793 647 785 q 583 804 618 801 l 579 814 l 600 899 q 663 894 632 896 q 718 891 689 892 q 768 890 747 890 q 814 891 788 890 q 865 893 840 892 q 926 897 894 894 l 933 882 l 914 804 q 869 783 890 794 q 828 756 849 772 q 783 716 807 739 q 731 661 760 693 l 561 482 l 703 201 q 765 110 735 138 q 839 79 796 82 l 847 68 l 828 -4 q 757 -12 790 -8 q 703 -18 729 -15 q 668 -21 676 -21 q 593 8 625 -21 q 533 96 561 36 l 374 439 l 381 468 m 307 -119 q 361 -85 332 -100 q 417 -71 390 -71 q 485 -103 458 -71 q 513 -190 513 -135 q 496 -263 513 -228 q 451 -331 479 -299 q 385 -391 422 -362 q 308 -442 349 -419 l 257 -400 l 257 -376 q 324 -310 297 -349 q 351 -235 351 -271 q 338 -181 351 -207 q 303 -139 324 -156 l 307 -119 z "},"L":{"ha":713,"x_min":14,"x_max":711,"o":"m 247 0 q 160 -2 203 0 q 86 -7 118 -4 q 14 -14 49 -11 l 36 79 q 110 112 89 88 q 139 197 132 136 l 206 731 q 202 789 211 775 q 165 803 193 803 q 153 802 160 803 q 140 801 147 801 l 125 801 l 119 813 l 140 893 q 174 892 153 893 q 221 892 196 892 q 272 891 246 892 q 322 890 299 890 q 381 892 346 890 q 450 896 417 893 q 532 901 489 899 l 511 806 q 459 797 479 801 q 426 781 439 792 q 407 751 414 769 q 394 701 400 732 q 379 617 388 667 q 362 511 371 567 q 344 399 353 456 q 330 294 336 342 q 319 211 324 246 q 315 164 315 176 q 330 119 315 131 q 389 107 344 107 q 467 115 436 107 q 520 145 499 122 q 556 209 542 168 q 586 317 571 250 l 703 328 l 711 315 q 686 219 699 271 q 662 119 675 175 q 636 3 649 64 l 621 -11 q 493 -6 558 -8 q 372 -1 438 -3 q 247 0 307 0 z "},"Ĺ":{"ha":714,"x_min":14,"x_max":711,"o":"m 247 0 q 160 -2 203 0 q 86 -7 118 -4 q 14 -14 49 -11 l 36 79 q 110 112 89 88 q 139 197 132 136 l 206 731 q 202 789 211 775 q 165 803 193 803 q 153 802 160 803 q 140 801 147 801 l 125 801 l 119 813 l 140 893 q 174 892 153 893 q 221 892 196 892 q 272 891 246 892 q 322 890 299 890 q 381 892 346 890 q 450 896 417 893 q 532 901 489 899 l 511 806 q 459 797 479 801 q 426 781 439 792 q 407 751 414 769 q 394 701 400 732 q 379 617 388 667 q 362 511 371 567 q 344 399 353 456 q 330 294 336 342 q 319 211 324 246 q 315 164 315 176 q 330 119 315 131 q 389 107 344 107 q 467 115 436 107 q 520 145 499 122 q 556 209 542 168 q 586 317 571 250 l 703 328 l 711 315 q 686 219 699 271 q 662 119 675 175 q 636 3 649 64 l 621 -11 q 493 -6 558 -8 q 372 -1 438 -3 q 247 0 307 0 m 554 1058 q 454 1032 507 1047 q 353 1003 410 1019 q 236 968 296 988 l 218 981 l 199 1046 q 310 1096 256 1069 q 410 1143 365 1122 q 508 1190 461 1168 l 526 1183 l 561 1076 l 554 1058 z "},"Ľ":{"ha":740,"x_min":14,"x_max":771,"o":"m 247 0 q 160 -2 203 0 q 86 -7 118 -4 q 14 -14 49 -11 l 36 79 q 110 112 89 88 q 139 197 132 136 l 206 731 q 202 789 211 775 q 165 803 193 803 q 153 802 160 803 q 140 801 147 801 l 125 801 l 119 813 l 140 893 q 174 892 153 893 q 221 892 196 892 q 272 891 246 892 q 322 890 299 890 q 381 892 346 890 q 450 896 417 893 q 532 901 489 899 l 511 806 q 459 797 479 801 q 426 781 439 792 q 407 751 414 769 q 394 701 400 732 q 379 617 388 667 q 362 511 371 567 q 344 399 353 456 q 330 294 336 342 q 319 211 324 246 q 315 164 315 176 q 330 119 315 131 q 389 107 344 107 q 467 115 436 107 q 520 145 499 122 q 556 209 542 168 q 586 317 571 250 l 703 328 l 711 315 q 686 219 699 271 q 662 119 675 175 q 636 3 649 64 l 621 -11 q 493 -6 558 -8 q 372 -1 438 -3 q 247 0 307 0 m 771 875 q 757 781 765 831 q 740 684 750 738 q 718 575 729 631 l 651 549 l 631 554 q 631 670 632 614 q 628 771 631 726 q 621 869 625 822 l 760 889 l 771 875 z "},"Ļ":{"ha":714,"x_min":14,"x_max":711,"o":"m 247 0 q 160 -2 203 0 q 86 -7 118 -4 q 14 -14 49 -11 l 36 79 q 110 112 89 88 q 139 197 132 136 l 206 731 q 202 789 211 775 q 165 803 193 803 q 153 802 160 803 q 140 801 147 801 l 125 801 l 119 813 l 140 893 q 174 892 153 893 q 221 892 196 892 q 272 891 246 892 q 322 890 299 890 q 381 892 346 890 q 450 896 417 893 q 532 901 489 899 l 511 806 q 459 797 479 801 q 426 781 439 792 q 407 751 414 769 q 394 701 400 732 q 379 617 388 667 q 362 511 371 567 q 344 399 353 456 q 330 294 336 342 q 319 211 324 246 q 315 164 315 176 q 330 119 315 131 q 389 107 344 107 q 467 115 436 107 q 520 145 499 122 q 556 209 542 168 q 586 317 571 250 l 703 328 l 711 315 q 686 219 699 271 q 662 119 675 175 q 636 3 649 64 l 621 -11 q 493 -6 558 -8 q 372 -1 438 -3 q 247 0 307 0 m 229 -119 q 283 -85 254 -100 q 339 -71 313 -71 q 408 -103 381 -71 q 435 -190 435 -135 q 418 -263 435 -228 q 373 -331 401 -299 q 308 -391 344 -362 q 231 -442 271 -419 l 179 -400 l 179 -376 q 247 -310 219 -349 q 274 -235 274 -271 q 260 -181 274 -207 q 225 -139 246 -156 l 229 -119 z "},"Ŀ":{"ha":754,"x_min":14,"x_max":772,"o":"m 247 0 q 160 -2 203 0 q 86 -7 118 -4 q 14 -14 49 -11 l 36 79 q 110 112 89 88 q 139 197 132 136 l 206 731 q 202 789 211 775 q 165 803 193 803 q 153 802 160 803 q 140 801 147 801 l 125 801 l 119 813 l 140 893 q 174 892 153 893 q 221 892 196 892 q 272 891 246 892 q 322 890 299 890 q 381 892 346 890 q 450 896 417 893 q 532 901 489 899 l 511 806 q 459 797 479 801 q 426 781 439 792 q 407 751 414 769 q 394 701 400 732 q 379 617 388 667 q 362 511 371 567 q 344 399 353 456 q 330 294 336 342 q 319 211 324 246 q 315 164 315 176 q 330 119 315 131 q 389 107 344 107 q 467 115 436 107 q 520 145 499 122 q 556 209 542 168 q 586 317 571 250 l 703 328 l 711 315 q 686 219 699 271 q 662 119 675 175 q 636 3 649 64 l 621 -11 q 493 -6 558 -8 q 372 -1 438 -3 q 247 0 307 0 m 646 550 q 578 575 600 550 q 557 640 557 600 q 591 733 557 696 q 682 769 625 769 q 749 744 726 769 q 772 679 772 719 q 738 586 772 622 q 646 550 703 550 z "},"·":{"ha":319,"x_min":54,"x_max":269,"o":"m 143 224 q 76 249 97 224 q 54 314 54 274 q 88 406 54 369 q 179 443 122 443 q 247 418 224 443 q 269 353 269 393 q 235 260 269 296 q 143 224 200 224 z "},"Ł":{"ha":714,"x_min":14,"x_max":711,"o":"m 247 0 q 160 -2 203 0 q 86 -7 118 -4 q 14 -14 49 -11 l 36 79 q 110 112 89 88 q 139 197 132 136 l 161 374 l 64 326 l 51 329 l 26 415 l 175 489 l 206 731 q 202 789 211 775 q 165 803 193 803 q 153 802 160 803 q 140 801 147 801 l 125 801 l 119 813 l 140 893 q 174 892 153 893 q 221 892 196 892 q 272 891 246 892 q 322 890 299 890 q 381 892 346 890 q 450 896 417 893 q 532 901 489 899 l 511 806 q 459 797 479 801 q 426 781 439 792 q 407 751 414 769 q 394 701 400 732 q 371 568 383 649 l 525 644 l 536 639 l 561 554 l 353 450 q 338 354 344 401 q 326 269 332 307 q 318 203 321 231 q 315 164 315 175 q 330 119 315 131 q 389 107 344 107 q 467 115 436 107 q 520 145 499 122 q 556 209 542 168 q 586 317 571 250 l 703 328 l 711 315 q 686 219 699 271 q 662 119 675 175 q 636 3 649 64 l 621 -11 q 493 -6 558 -8 q 372 -1 438 -3 q 247 0 307 0 z "},"M":{"ha":1126,"x_min":-4,"x_max":1124,"o":"m 450 -22 q 383 338 414 182 q 326 624 353 494 l 315 624 q 271 382 290 489 q 255 292 263 336 q 241 212 247 247 q 231 153 235 176 q 228 125 228 129 q 265 89 228 89 l 293 89 q 311 90 301 89 l 318 83 l 292 -6 q 228 -3 258 -4 q 175 -1 201 -1 q 132 0 149 0 q 89 -1 113 0 q 44 -6 65 -3 q -4 -11 19 -8 l 17 81 q 77 108 57 86 q 108 181 97 129 q 123 247 113 200 q 147 356 133 294 q 174 483 160 417 q 199 607 188 550 q 219 705 211 664 q 226 754 226 746 q 207 792 226 779 q 133 808 188 804 l 126 817 l 149 897 q 215 893 183 894 q 271 891 243 892 q 318 890 299 890 q 365 891 339 890 q 414 893 390 892 q 467 896 440 894 q 499 672 482 776 q 532 489 517 568 q 565 319 549 397 l 576 319 q 650 489 611 397 q 726 672 683 568 q 815 893 769 775 q 894 892 846 894 q 982 892 942 889 q 1025 893 1001 892 q 1069 896 1049 894 q 1118 899 1094 897 l 1124 893 l 1104 810 q 1026 790 1047 806 q 1000 736 1004 775 q 996 688 999 721 q 991 612 993 656 q 986 516 989 568 q 981 411 983 464 q 976 308 978 358 q 974 217 975 258 q 981 115 971 140 q 1022 89 990 89 q 1036 89 1029 89 q 1049 90 1043 89 q 1061 92 1054 90 l 1065 85 l 1043 -4 q 996 -3 1021 -4 q 951 -1 975 -1 q 906 0 926 0 q 858 -1 890 0 q 794 -5 826 -3 q 737 -8 763 -7 q 707 -11 711 -10 l 729 81 q 788 102 769 86 q 811 150 807 118 q 815 185 813 160 q 819 247 817 211 q 825 324 822 282 q 831 407 828 365 q 844 624 836 504 l 832 624 q 777 501 808 571 q 709 351 746 432 q 633 178 672 269 q 551 -11 593 86 l 450 -22 z "},"N":{"ha":976,"x_min":17,"x_max":1025,"o":"m 710 319 l 758 743 q 753 789 761 775 q 722 803 744 803 q 694 802 707 803 q 676 801 681 801 l 672 813 l 692 896 q 756 893 724 894 q 813 891 783 892 q 865 890 842 890 q 917 891 889 890 q 969 894 946 892 q 1025 899 997 896 l 1007 807 q 941 781 963 800 q 913 719 919 761 l 804 -21 l 657 -39 q 539 206 594 92 q 440 406 483 321 q 346 588 390 504 l 333 588 l 278 150 q 282 101 274 114 q 317 88 290 88 q 332 88 322 88 q 351 89 342 88 q 374 90 363 89 l 381 82 l 357 -6 q 292 -3 324 -4 q 235 -1 264 -1 q 183 0 206 0 q 126 -1 156 0 q 72 -6 96 -3 q 17 -11 43 -8 l 39 81 q 101 106 79 86 q 129 168 122 125 l 214 719 q 199 781 219 764 q 115 806 179 799 l 107 819 l 125 897 q 178 893 151 894 q 228 891 201 892 q 282 890 256 890 q 326 891 304 890 q 368 893 349 892 q 411 896 390 894 q 514 680 463 783 q 606 496 565 576 q 696 319 653 401 l 710 319 z "},"Ń":{"ha":978,"x_min":17,"x_max":1025,"o":"m 710 319 l 758 743 q 753 789 761 775 q 722 803 744 803 q 694 802 707 803 q 676 801 681 801 l 672 813 l 692 896 q 756 893 724 894 q 813 891 783 892 q 865 890 842 890 q 917 891 889 890 q 969 894 946 892 q 1025 899 997 896 l 1007 807 q 941 781 963 800 q 913 719 919 761 l 804 -21 l 657 -39 q 539 206 594 92 q 440 406 483 321 q 346 588 390 504 l 333 588 l 278 150 q 282 101 274 114 q 317 88 290 88 q 332 88 322 88 q 351 89 342 88 q 374 90 363 89 l 381 82 l 357 -6 q 292 -3 324 -4 q 235 -1 264 -1 q 183 0 206 0 q 126 -1 156 0 q 72 -6 96 -3 q 17 -11 43 -8 l 39 81 q 101 106 79 86 q 129 168 122 125 l 214 719 q 199 781 219 764 q 115 806 179 799 l 107 819 l 125 897 q 178 893 151 894 q 228 891 201 892 q 282 890 256 890 q 326 891 304 890 q 368 893 349 892 q 411 896 390 894 q 514 680 463 783 q 606 496 565 576 q 696 319 653 401 l 710 319 m 779 1058 q 679 1032 732 1047 q 578 1003 635 1019 q 461 968 521 988 l 443 981 l 424 1046 q 535 1096 481 1069 q 635 1143 590 1122 q 733 1190 686 1168 l 751 1183 l 786 1076 l 779 1058 z "},"Ň":{"ha":978,"x_min":17,"x_max":1025,"o":"m 710 319 l 758 743 q 753 789 761 775 q 722 803 744 803 q 694 802 707 803 q 676 801 681 801 l 672 813 l 692 896 q 756 893 724 894 q 813 891 783 892 q 865 890 842 890 q 917 891 889 890 q 969 894 946 892 q 1025 899 997 896 l 1007 807 q 941 781 963 800 q 913 719 919 761 l 804 -21 l 657 -39 q 539 206 594 92 q 440 406 483 321 q 346 588 390 504 l 333 588 l 278 150 q 282 101 274 114 q 317 88 290 88 q 332 88 322 88 q 351 89 342 88 q 374 90 363 89 l 381 82 l 357 -6 q 292 -3 324 -4 q 235 -1 264 -1 q 183 0 206 0 q 126 -1 156 0 q 72 -6 96 -3 q 17 -11 43 -8 l 39 81 q 101 106 79 86 q 129 168 122 125 l 214 719 q 199 781 219 764 q 115 806 179 799 l 107 819 l 125 897 q 178 893 151 894 q 228 891 201 892 q 282 890 256 890 q 326 891 304 890 q 368 893 349 892 q 411 896 390 894 q 514 680 463 783 q 606 496 565 576 q 696 319 653 401 l 710 319 m 826 1139 q 764 1094 803 1124 q 686 1038 725 1065 q 592 967 640 1004 l 565 967 q 489 1038 525 1004 q 425 1094 457 1065 q 375 1139 393 1124 l 414 1196 l 438 1201 q 472 1185 447 1197 q 522 1159 496 1172 q 569 1135 547 1146 q 597 1121 590 1124 q 630 1135 606 1124 q 683 1159 654 1146 q 739 1185 713 1172 q 778 1201 765 1197 l 799 1196 l 826 1139 z "},"Ņ":{"ha":978,"x_min":17,"x_max":1025,"o":"m 710 319 l 758 743 q 753 789 761 775 q 722 803 744 803 q 694 802 707 803 q 676 801 681 801 l 672 813 l 692 896 q 756 893 724 894 q 813 891 783 892 q 865 890 842 890 q 917 891 889 890 q 969 894 946 892 q 1025 899 997 896 l 1007 807 q 941 781 963 800 q 913 719 919 761 l 804 -21 l 657 -39 q 539 206 594 92 q 440 406 483 321 q 346 588 390 504 l 333 588 l 278 150 q 282 101 274 114 q 317 88 290 88 q 332 88 322 88 q 351 89 342 88 q 374 90 363 89 l 381 82 l 357 -6 q 292 -3 324 -4 q 235 -1 264 -1 q 183 0 206 0 q 126 -1 156 0 q 72 -6 96 -3 q 17 -11 43 -8 l 39 81 q 101 106 79 86 q 129 168 122 125 l 214 719 q 199 781 219 764 q 115 806 179 799 l 107 819 l 125 897 q 178 893 151 894 q 228 891 201 892 q 282 890 256 890 q 326 891 304 890 q 368 893 349 892 q 411 896 390 894 q 514 680 463 783 q 606 496 565 576 q 696 319 653 401 l 710 319 m 340 -119 q 394 -85 365 -100 q 450 -71 424 -71 q 519 -103 492 -71 q 546 -190 546 -135 q 529 -263 546 -228 q 484 -331 513 -299 q 419 -391 456 -362 q 342 -442 382 -419 l 290 -400 l 290 -376 q 358 -310 331 -349 q 385 -235 385 -271 q 371 -181 385 -207 q 336 -139 357 -156 l 340 -119 z "},"Ñ":{"ha":978,"x_min":17,"x_max":1025,"o":"m 710 319 l 758 743 q 753 789 761 775 q 722 803 744 803 q 694 802 707 803 q 676 801 681 801 l 672 813 l 692 896 q 756 893 724 894 q 813 891 783 892 q 865 890 842 890 q 917 891 889 890 q 969 894 946 892 q 1025 899 997 896 l 1007 807 q 941 781 963 800 q 913 719 919 761 l 804 -21 l 657 -39 q 539 206 594 92 q 440 406 483 321 q 346 588 390 504 l 333 588 l 278 150 q 282 101 274 114 q 317 88 290 88 q 332 88 322 88 q 351 89 342 88 q 374 90 363 89 l 381 82 l 357 -6 q 292 -3 324 -4 q 235 -1 264 -1 q 183 0 206 0 q 126 -1 156 0 q 72 -6 96 -3 q 17 -11 43 -8 l 39 81 q 101 106 79 86 q 129 168 122 125 l 214 719 q 199 781 219 764 q 115 806 179 799 l 107 819 l 125 897 q 178 893 151 894 q 228 891 201 892 q 282 890 256 890 q 326 891 304 890 q 368 893 349 892 q 411 896 390 894 q 514 680 463 783 q 606 496 565 576 q 696 319 653 401 l 710 319 m 393 954 l 344 1006 l 346 1021 l 468 1154 l 490 1160 q 535 1152 507 1160 q 591 1136 563 1144 q 645 1120 619 1128 q 686 1113 671 1113 q 714 1124 697 1113 q 746 1149 731 1135 q 782 1185 763 1164 l 797 1185 l 846 1133 l 844 1119 l 722 985 l 699 979 q 655 987 682 979 q 599 1003 628 994 q 544 1019 571 1011 q 504 1026 518 1026 q 475 1015 492 1026 q 443 990 458 1004 q 408 954 426 975 l 393 954 z "},"O":{"ha":903,"x_min":44,"x_max":890,"o":"m 432 101 q 608 209 543 101 q 674 515 674 317 q 626 708 674 639 q 494 776 578 776 q 322 667 386 776 q 257 363 257 558 q 303 170 257 239 q 432 101 349 101 m 396 -17 q 251 9 317 -17 q 140 83 186 35 q 69 199 94 131 q 44 354 44 268 q 80 578 44 476 q 179 753 115 681 q 333 867 243 826 q 535 907 424 907 q 683 882 617 907 q 794 810 749 857 q 865 694 840 763 q 890 542 890 626 q 854 315 890 418 q 753 139 818 213 q 597 24 688 65 q 396 -17 506 -17 z "},"Œ":{"ha":1257,"x_min":44,"x_max":1269,"o":"m 775 193 q 772 149 771 165 q 780 124 772 132 q 804 113 788 115 q 850 110 821 110 q 947 115 910 110 q 1008 136 985 119 q 1046 184 1032 153 q 1074 268 1060 215 l 1192 278 l 1200 264 q 1176 185 1189 226 q 1154 102 1165 149 q 1132 6 1143 56 l 1117 -10 q 969 -4 1043 -7 q 833 1 907 -1 q 697 3 760 3 q 533 -6 607 3 q 394 -15 458 -15 q 251 10 315 -15 q 140 84 186 36 q 69 201 94 132 q 44 356 44 269 q 78 578 44 478 q 175 751 113 679 q 326 863 238 824 q 525 901 415 901 q 672 892 593 901 q 839 883 751 883 q 1066 890 957 883 q 1260 908 1175 897 l 1269 893 q 1247 815 1258 857 q 1226 734 1238 779 q 1207 640 1215 689 l 1079 632 q 1085 660 1082 646 q 1089 685 1088 671 q 1090 710 1090 699 q 1083 743 1090 731 q 1059 763 1076 756 q 1010 773 1042 771 q 932 775 979 775 q 894 774 908 775 q 874 767 881 772 q 863 753 867 763 q 858 729 860 744 l 822 514 l 944 513 q 988 514 961 513 q 1040 518 1015 515 q 1103 524 1069 521 l 1113 511 l 1078 392 q 1017 393 1047 392 q 960 395 990 394 q 906 396 929 396 l 801 388 l 775 193 m 426 101 q 556 143 514 101 q 611 281 599 185 l 656 631 q 631 746 665 713 q 497 779 596 779 q 401 750 444 779 q 327 667 358 721 q 278 534 296 613 q 261 358 261 456 q 303 168 261 235 q 426 101 346 101 z "},"Ó":{"ha":901,"x_min":44,"x_max":890,"o":"m 432 101 q 608 209 543 101 q 674 515 674 317 q 626 708 674 639 q 494 776 578 776 q 322 667 386 776 q 257 363 257 558 q 303 170 257 239 q 432 101 349 101 m 396 -17 q 251 9 317 -17 q 140 83 186 35 q 69 199 94 131 q 44 354 44 268 q 80 578 44 476 q 179 753 115 681 q 333 867 243 826 q 535 907 424 907 q 683 882 617 907 q 794 810 749 857 q 865 694 840 763 q 890 542 890 626 q 854 315 890 418 q 753 139 818 213 q 597 24 688 65 q 396 -17 506 -17 m 726 1058 q 626 1032 679 1047 q 525 1003 582 1019 q 408 968 468 988 l 390 981 l 371 1046 q 483 1096 428 1069 q 582 1143 538 1122 q 681 1190 633 1168 l 699 1183 l 733 1076 l 726 1058 z "},"Ô":{"ha":901,"x_min":44,"x_max":890,"o":"m 432 101 q 608 209 543 101 q 674 515 674 317 q 626 708 674 639 q 494 776 578 776 q 322 667 386 776 q 257 363 257 558 q 303 170 257 239 q 432 101 349 101 m 396 -17 q 251 9 317 -17 q 140 83 186 35 q 69 199 94 131 q 44 354 44 268 q 80 578 44 476 q 179 753 115 681 q 333 867 243 826 q 535 907 424 907 q 683 882 617 907 q 794 810 749 857 q 865 694 840 763 q 890 542 890 626 q 854 315 890 418 q 753 139 818 213 q 597 24 688 65 q 396 -17 506 -17 m 310 1044 q 371 1089 332 1060 q 449 1146 410 1118 q 543 1217 494 1179 l 571 1217 q 594 1197 571 1218 q 648 1148 617 1176 q 711 1090 679 1119 q 761 1044 743 1060 l 721 988 l 697 982 q 664 999 688 986 q 615 1024 640 1011 q 567 1049 589 1038 q 538 1063 544 1060 q 505 1049 529 1060 q 451 1024 481 1038 q 396 999 422 1011 q 357 982 369 986 l 336 988 l 310 1044 z "},"Ö":{"ha":901,"x_min":44,"x_max":890,"o":"m 432 101 q 608 209 543 101 q 674 515 674 317 q 626 708 674 639 q 494 776 578 776 q 322 667 386 776 q 257 363 257 558 q 303 170 257 239 q 432 101 349 101 m 396 -17 q 251 9 317 -17 q 140 83 186 35 q 69 199 94 131 q 44 354 44 268 q 80 578 44 476 q 179 753 115 681 q 333 867 243 826 q 535 907 424 907 q 683 882 617 907 q 794 810 749 857 q 865 694 840 763 q 890 542 890 626 q 854 315 890 418 q 753 139 818 213 q 597 24 688 65 q 396 -17 506 -17 m 643 988 q 589 1008 607 988 q 571 1060 571 1028 q 601 1135 571 1106 q 675 1165 631 1165 q 729 1145 711 1165 q 747 1093 747 1125 q 718 1018 747 1049 q 643 988 689 988 m 403 988 q 349 1008 367 988 q 331 1060 331 1028 q 360 1135 331 1106 q 435 1165 389 1165 q 489 1145 471 1165 q 507 1093 507 1125 q 478 1018 507 1049 q 403 988 449 988 z "},"Ò":{"ha":901,"x_min":44,"x_max":890,"o":"m 432 101 q 608 209 543 101 q 674 515 674 317 q 626 708 674 639 q 494 776 578 776 q 322 667 386 776 q 257 363 257 558 q 303 170 257 239 q 432 101 349 101 m 396 -17 q 251 9 317 -17 q 140 83 186 35 q 69 199 94 131 q 44 354 44 268 q 80 578 44 476 q 179 753 115 681 q 333 867 243 826 q 535 907 424 907 q 683 882 617 907 q 794 810 749 857 q 865 694 840 763 q 890 542 890 626 q 854 315 890 418 q 753 139 818 213 q 597 24 688 65 q 396 -17 506 -17 m 335 1076 l 369 1183 l 388 1190 q 486 1143 435 1168 q 585 1096 531 1122 q 697 1046 640 1069 l 679 981 l 660 968 q 543 1003 600 988 q 442 1032 486 1019 q 342 1058 389 1047 l 335 1076 z "},"Ő":{"ha":901,"x_min":44,"x_max":890,"o":"m 432 101 q 608 209 543 101 q 674 515 674 317 q 626 708 674 639 q 494 776 578 776 q 322 667 386 776 q 257 363 257 558 q 303 170 257 239 q 432 101 349 101 m 396 -17 q 251 9 317 -17 q 140 83 186 35 q 69 199 94 131 q 44 354 44 268 q 80 578 44 476 q 179 753 115 681 q 333 867 243 826 q 535 907 424 907 q 683 882 617 907 q 794 810 749 857 q 865 694 840 763 q 890 542 890 626 q 854 315 890 418 q 753 139 818 213 q 597 24 688 65 q 396 -17 506 -17 m 582 1086 q 508 1044 547 1067 q 433 1001 475 1025 q 347 950 392 978 l 329 957 l 297 1004 q 373 1070 336 1038 q 440 1131 410 1103 q 507 1190 475 1161 l 524 1189 l 583 1103 l 582 1086 m 814 1081 q 740 1039 778 1061 q 666 996 707 1019 q 581 944 625 972 l 563 950 l 531 997 q 606 1063 569 1031 q 674 1124 643 1096 q 740 1183 708 1154 l 757 1181 l 817 1097 l 814 1081 z "},"Ō":{"ha":901,"x_min":44,"x_max":890,"o":"m 432 101 q 608 209 543 101 q 674 515 674 317 q 626 708 674 639 q 494 776 578 776 q 322 667 386 776 q 257 363 257 558 q 303 170 257 239 q 432 101 349 101 m 396 -17 q 251 9 317 -17 q 140 83 186 35 q 69 199 94 131 q 44 354 44 268 q 80 578 44 476 q 179 753 115 681 q 333 867 243 826 q 535 907 424 907 q 683 882 617 907 q 794 810 749 857 q 865 694 840 763 q 890 542 890 626 q 854 315 890 418 q 753 139 818 213 q 597 24 688 65 q 396 -17 506 -17 m 756 1099 l 725 992 l 536 990 q 474 990 506 990 q 414 989 442 989 l 350 989 l 338 1006 l 369 1111 q 443 1110 407 1110 l 575 1110 q 630 1110 600 1110 q 686 1114 660 1111 q 746 1118 717 1115 l 756 1099 z "},"Ø":{"ha":901,"x_min":44,"x_max":890,"o":"m 174 53 q 78 176 111 100 q 44 354 44 253 q 80 578 44 476 q 179 753 115 681 q 333 867 243 826 q 535 907 424 907 q 664 888 603 907 l 739 1013 l 824 972 l 828 954 l 758 840 q 856 719 821 794 q 890 542 890 643 q 854 315 890 418 q 753 139 818 213 q 597 24 688 65 q 396 -17 506 -17 q 264 4 324 -17 l 171 -149 l 88 -108 l 83 -94 l 174 53 m 432 101 q 608 209 543 101 q 674 515 674 317 q 650 661 674 599 l 340 131 q 432 101 378 101 m 257 363 q 276 224 257 285 l 582 750 q 494 776 542 776 q 322 667 386 776 q 257 363 257 558 z "},"Õ":{"ha":901,"x_min":44,"x_max":890,"o":"m 432 101 q 608 209 543 101 q 674 515 674 317 q 626 708 674 639 q 494 776 578 776 q 322 667 386 776 q 257 363 257 558 q 303 170 257 239 q 432 101 349 101 m 396 -17 q 251 9 317 -17 q 140 83 186 35 q 69 199 94 131 q 44 354 44 268 q 80 578 44 476 q 179 753 115 681 q 333 867 243 826 q 535 907 424 907 q 683 882 617 907 q 794 810 749 857 q 865 694 840 763 q 890 542 890 626 q 854 315 890 418 q 753 139 818 213 q 597 24 688 65 q 396 -17 506 -17 m 346 954 l 297 1006 l 299 1021 l 421 1154 l 443 1160 q 488 1152 460 1160 q 544 1136 515 1144 q 598 1120 572 1128 q 639 1113 624 1113 q 667 1124 650 1113 q 699 1149 683 1135 q 735 1185 715 1164 l 750 1185 l 799 1133 l 797 1119 l 675 985 l 651 979 q 608 987 635 979 q 552 1003 581 994 q 497 1019 524 1011 q 457 1026 471 1026 q 428 1015 444 1026 q 396 990 411 1004 q 361 954 379 975 l 346 954 z "},"P":{"ha":775,"x_min":13,"x_max":810,"o":"m 142 893 q 173 892 153 893 q 216 892 193 892 q 264 891 239 892 q 310 890 289 890 q 360 891 328 890 q 425 893 393 892 q 503 897 461 894 q 644 878 586 897 q 740 828 703 860 q 793 755 776 796 q 810 668 810 714 q 780 535 810 599 q 701 424 750 472 q 588 346 651 375 q 456 317 524 317 l 335 317 l 314 174 q 318 107 307 125 q 368 89 329 89 q 386 89 376 89 q 406 90 396 89 q 426 93 415 92 l 431 85 l 407 -4 q 340 -3 372 -4 q 285 -1 313 -1 q 238 0 257 0 q 174 -1 213 0 q 100 -5 136 -3 q 38 -9 64 -7 q 13 -11 13 -11 l 33 81 q 111 114 89 90 q 140 196 133 138 l 206 728 q 204 788 211 772 q 174 803 197 803 q 158 802 167 803 q 143 801 150 801 q 126 800 135 800 l 119 811 l 142 893 m 467 421 q 578 494 542 438 q 615 640 615 551 q 572 749 615 715 q 436 782 528 782 q 413 778 417 782 q 406 758 408 774 q 378 603 392 686 q 353 438 364 521 l 467 421 z "},"Q":{"ha":908,"x_min":44,"x_max":1038,"o":"m 389 -17 q 247 11 311 -15 q 138 85 183 38 q 69 201 93 133 q 44 354 44 269 q 80 578 44 476 q 179 753 115 681 q 333 867 243 826 q 535 907 424 907 q 683 882 617 907 q 794 810 749 857 q 865 694 840 763 q 890 542 890 626 q 867 358 890 443 q 802 206 844 274 q 700 88 760 138 q 567 13 640 39 l 567 8 q 747 -112 665 -74 q 904 -150 829 -150 q 985 -143 950 -150 q 1019 -136 1003 -140 l 1029 -144 l 1038 -201 q 954 -258 993 -233 q 889 -298 921 -281 q 843 -315 857 -315 q 760 -304 799 -315 q 672 -261 721 -293 q 556 -171 622 -229 q 389 -17 489 -112 m 432 101 q 608 209 543 101 q 674 515 674 317 q 626 708 674 639 q 494 776 578 776 q 322 667 386 776 q 257 363 257 558 q 303 170 257 239 q 432 101 349 101 z "},"R":{"ha":863,"x_min":7,"x_max":836,"o":"m 339 351 l 318 194 q 314 139 314 160 q 322 107 314 118 q 349 92 331 96 q 400 88 368 88 l 404 79 l 381 -6 q 314 -4 347 -6 q 255 -2 286 -3 q 201 -1 224 -1 q 135 -2 169 -1 q 72 -4 100 -3 q 7 -8 38 -6 l 31 83 q 78 94 60 88 q 110 114 97 101 q 129 147 122 126 q 140 196 136 167 l 207 735 q 204 789 211 775 q 174 803 197 803 q 158 802 167 803 q 143 801 150 801 q 126 800 135 800 l 119 811 l 142 894 q 206 892 174 893 q 261 890 232 890 q 310 890 290 890 q 363 891 331 890 q 428 893 396 892 q 504 897 464 894 q 728 843 647 897 q 808 689 808 789 q 758 522 808 597 q 603 396 707 447 l 693 197 q 754 106 724 135 q 828 78 785 78 l 836 65 l 818 -7 l 656 -22 q 524 107 568 -22 l 440 351 l 339 351 m 476 458 q 510 475 488 463 q 556 510 533 488 q 596 569 579 533 q 613 657 613 604 q 431 786 613 786 q 412 781 417 786 q 403 756 407 775 q 386 663 393 703 q 374 590 379 624 q 365 529 369 557 q 357 472 361 501 l 476 458 z "},"Ŕ":{"ha":867,"x_min":7,"x_max":836,"o":"m 339 351 l 318 194 q 314 139 314 160 q 322 107 314 118 q 349 92 331 96 q 400 88 368 88 l 404 79 l 381 -6 q 314 -4 347 -6 q 255 -2 286 -3 q 201 -1 224 -1 q 135 -2 169 -1 q 72 -4 100 -3 q 7 -8 38 -6 l 31 83 q 78 94 60 88 q 110 114 97 101 q 129 147 122 126 q 140 196 136 167 l 207 735 q 204 789 211 775 q 174 803 197 803 q 158 802 167 803 q 143 801 150 801 q 126 800 135 800 l 119 811 l 142 894 q 206 892 174 893 q 261 890 232 890 q 310 890 290 890 q 363 891 331 890 q 428 893 396 892 q 504 897 464 894 q 728 843 647 897 q 808 689 808 789 q 758 522 808 597 q 603 396 707 447 l 693 197 q 754 106 724 135 q 828 78 785 78 l 836 65 l 818 -7 l 656 -22 q 524 107 568 -22 l 440 351 l 339 351 m 476 458 q 510 475 488 463 q 556 510 533 488 q 596 569 579 533 q 613 657 613 604 q 431 786 613 786 q 412 781 417 786 q 403 756 407 775 q 386 663 393 703 q 374 590 379 624 q 365 529 369 557 q 357 472 361 501 l 476 458 m 704 1058 q 604 1032 657 1047 q 503 1003 560 1019 q 386 968 446 988 l 368 981 l 349 1046 q 460 1096 406 1069 q 560 1143 515 1122 q 658 1190 611 1168 l 676 1183 l 711 1076 l 704 1058 z "},"Ř":{"ha":867,"x_min":7,"x_max":836,"o":"m 339 351 l 318 194 q 314 139 314 160 q 322 107 314 118 q 349 92 331 96 q 400 88 368 88 l 404 79 l 381 -6 q 314 -4 347 -6 q 255 -2 286 -3 q 201 -1 224 -1 q 135 -2 169 -1 q 72 -4 100 -3 q 7 -8 38 -6 l 31 83 q 78 94 60 88 q 110 114 97 101 q 129 147 122 126 q 140 196 136 167 l 207 735 q 204 789 211 775 q 174 803 197 803 q 158 802 167 803 q 143 801 150 801 q 126 800 135 800 l 119 811 l 142 894 q 206 892 174 893 q 261 890 232 890 q 310 890 290 890 q 363 891 331 890 q 428 893 396 892 q 504 897 464 894 q 728 843 647 897 q 808 689 808 789 q 758 522 808 597 q 603 396 707 447 l 693 197 q 754 106 724 135 q 828 78 785 78 l 836 65 l 818 -7 l 656 -22 q 524 107 568 -22 l 440 351 l 339 351 m 476 458 q 510 475 488 463 q 556 510 533 488 q 596 569 579 533 q 613 657 613 604 q 431 786 613 786 q 412 781 417 786 q 403 756 407 775 q 386 663 393 703 q 374 590 379 624 q 365 529 369 557 q 357 472 361 501 l 476 458 m 751 1139 q 689 1094 728 1124 q 611 1038 650 1065 q 517 967 565 1004 l 490 967 q 414 1038 450 1004 q 350 1094 382 1065 q 300 1139 318 1124 l 339 1196 l 363 1201 q 397 1185 372 1197 q 447 1159 421 1172 q 494 1135 472 1146 q 522 1121 515 1124 q 555 1135 531 1124 q 608 1159 579 1146 q 664 1185 638 1172 q 703 1201 690 1197 l 724 1196 l 751 1139 z "},"Ŗ":{"ha":867,"x_min":7,"x_max":836,"o":"m 339 351 l 318 194 q 314 139 314 160 q 322 107 314 118 q 349 92 331 96 q 400 88 368 88 l 404 79 l 381 -6 q 314 -4 347 -6 q 255 -2 286 -3 q 201 -1 224 -1 q 135 -2 169 -1 q 72 -4 100 -3 q 7 -8 38 -6 l 31 83 q 78 94 60 88 q 110 114 97 101 q 129 147 122 126 q 140 196 136 167 l 207 735 q 204 789 211 775 q 174 803 197 803 q 158 802 167 803 q 143 801 150 801 q 126 800 135 800 l 119 811 l 142 894 q 206 892 174 893 q 261 890 232 890 q 310 890 290 890 q 363 891 331 890 q 428 893 396 892 q 504 897 464 894 q 728 843 647 897 q 808 689 808 789 q 758 522 808 597 q 603 396 707 447 l 693 197 q 754 106 724 135 q 828 78 785 78 l 836 65 l 818 -7 l 656 -22 q 524 107 568 -22 l 440 351 l 339 351 m 476 458 q 510 475 488 463 q 556 510 533 488 q 596 569 579 533 q 613 657 613 604 q 431 786 613 786 q 412 781 417 786 q 403 756 407 775 q 386 663 393 703 q 374 590 379 624 q 365 529 369 557 q 357 472 361 501 l 476 458 m 285 -119 q 339 -85 310 -100 q 394 -71 368 -71 q 463 -103 436 -71 q 490 -190 490 -135 q 474 -263 490 -228 q 428 -331 457 -299 q 363 -391 400 -362 q 286 -442 326 -419 l 235 -400 l 235 -376 q 302 -310 275 -349 q 329 -235 329 -271 q 315 -181 329 -207 q 281 -139 301 -156 l 285 -119 z "},"S":{"ha":724,"x_min":14,"x_max":724,"o":"m 268 -17 q 170 -9 215 -17 q 93 10 125 -1 q 24 36 56 21 l 14 56 q 35 129 25 90 q 51 204 43 163 q 67 290 60 246 l 182 300 q 178 207 175 244 q 194 147 181 169 q 235 114 208 124 q 304 104 263 104 q 413 137 371 104 q 456 222 456 169 q 444 264 456 244 q 413 300 432 283 q 367 333 393 317 q 311 364 340 349 q 235 407 274 385 q 166 458 197 429 q 115 523 135 486 q 96 608 96 560 q 124 727 96 672 q 202 822 151 782 q 323 885 253 863 q 476 907 393 907 q 570 901 526 907 q 646 889 614 896 q 715 871 683 881 l 724 853 q 701 782 713 819 q 681 706 692 750 q 663 615 671 663 l 558 607 l 547 615 q 551 642 549 628 q 556 665 554 653 q 557 688 557 678 q 529 759 557 738 q 440 781 501 781 q 340 749 379 781 q 300 669 300 718 q 328 606 300 633 q 397 553 356 578 q 485 506 438 529 q 572 451 532 482 q 639 381 613 421 q 665 285 665 340 q 638 163 665 218 q 558 67 610 107 q 432 6 506 28 q 268 -17 358 -17 z "},"Ś":{"ha":725,"x_min":14,"x_max":724,"o":"m 268 -17 q 170 -9 215 -17 q 93 10 125 -1 q 24 36 56 21 l 14 56 q 35 129 25 90 q 51 204 43 163 q 67 290 60 246 l 182 300 q 178 207 175 244 q 194 147 181 169 q 235 114 208 124 q 304 104 263 104 q 413 137 371 104 q 456 222 456 169 q 444 264 456 244 q 413 300 432 283 q 367 333 393 317 q 311 364 340 349 q 235 407 274 385 q 166 458 197 429 q 115 523 135 486 q 96 608 96 560 q 124 727 96 672 q 202 822 151 782 q 323 885 253 863 q 476 907 393 907 q 570 901 526 907 q 646 889 614 896 q 715 871 683 881 l 724 853 q 701 782 713 819 q 681 706 692 750 q 663 615 671 663 l 558 607 l 547 615 q 551 642 549 628 q 556 665 554 653 q 557 688 557 678 q 529 759 557 738 q 440 781 501 781 q 340 749 379 781 q 300 669 300 718 q 328 606 300 633 q 397 553 356 578 q 485 506 438 529 q 572 451 532 482 q 639 381 613 421 q 665 285 665 340 q 638 163 665 218 q 558 67 610 107 q 432 6 506 28 q 268 -17 358 -17 m 664 1058 q 564 1032 617 1047 q 463 1003 519 1019 q 346 968 406 988 l 328 981 l 308 1046 q 420 1096 365 1069 q 519 1143 475 1122 q 618 1190 571 1168 l 636 1183 l 671 1076 l 664 1058 z "},"Š":{"ha":725,"x_min":14,"x_max":724,"o":"m 268 -17 q 170 -9 215 -17 q 93 10 125 -1 q 24 36 56 21 l 14 56 q 35 129 25 90 q 51 204 43 163 q 67 290 60 246 l 182 300 q 178 207 175 244 q 194 147 181 169 q 235 114 208 124 q 304 104 263 104 q 413 137 371 104 q 456 222 456 169 q 444 264 456 244 q 413 300 432 283 q 367 333 393 317 q 311 364 340 349 q 235 407 274 385 q 166 458 197 429 q 115 523 135 486 q 96 608 96 560 q 124 727 96 672 q 202 822 151 782 q 323 885 253 863 q 476 907 393 907 q 570 901 526 907 q 646 889 614 896 q 715 871 683 881 l 724 853 q 701 782 713 819 q 681 706 692 750 q 663 615 671 663 l 558 607 l 547 615 q 551 642 549 628 q 556 665 554 653 q 557 688 557 678 q 529 759 557 738 q 440 781 501 781 q 340 749 379 781 q 300 669 300 718 q 328 606 300 633 q 397 553 356 578 q 485 506 438 529 q 572 451 532 482 q 639 381 613 421 q 665 285 665 340 q 638 163 665 218 q 558 67 610 107 q 432 6 506 28 q 268 -17 358 -17 m 711 1139 q 649 1094 688 1124 q 571 1038 610 1065 q 476 967 525 1004 l 450 967 q 374 1038 410 1004 q 310 1094 342 1065 q 260 1139 278 1124 l 299 1196 l 322 1201 q 356 1185 332 1197 q 406 1159 381 1172 q 453 1135 432 1146 q 482 1121 475 1124 q 515 1135 490 1124 q 568 1159 539 1146 q 624 1185 597 1172 q 663 1201 650 1197 l 683 1196 l 711 1139 z "},"Ş":{"ha":725,"x_min":14,"x_max":724,"o":"m 260 -17 q 165 -7 207 -15 q 90 11 122 1 q 24 36 54 22 l 14 56 q 35 129 25 90 q 51 204 43 163 q 67 290 60 246 l 182 300 q 178 207 175 244 q 194 147 181 169 q 235 114 208 124 q 304 104 263 104 q 413 137 371 104 q 456 222 456 169 q 444 264 456 244 q 413 300 432 283 q 367 333 393 317 q 311 364 340 349 q 235 407 274 385 q 166 458 197 429 q 115 523 135 486 q 96 608 96 560 q 124 727 96 672 q 202 822 151 782 q 323 885 253 863 q 476 907 393 907 q 570 901 526 907 q 646 889 614 896 q 715 871 683 881 l 724 853 q 701 782 713 819 q 681 706 692 750 q 663 615 671 663 l 558 607 l 547 615 q 551 642 549 628 q 556 665 554 653 q 557 688 557 678 q 529 759 557 738 q 440 781 501 781 q 340 749 379 781 q 300 669 300 718 q 328 606 300 633 q 397 553 356 578 q 485 506 438 529 q 572 451 532 482 q 639 381 613 421 q 665 285 665 340 q 642 172 665 224 q 576 82 619 121 q 470 18 532 43 q 332 -14 408 -7 l 314 -61 q 351 -85 331 -72 q 390 -115 372 -99 q 419 -151 407 -132 q 431 -189 431 -169 q 413 -244 431 -218 q 367 -289 396 -269 q 303 -319 339 -308 q 231 -331 268 -331 q 196 -326 214 -331 q 163 -315 178 -322 q 140 -297 149 -307 q 131 -272 131 -286 q 137 -253 131 -264 q 153 -228 143 -242 q 174 -203 163 -215 q 194 -181 185 -190 l 206 -181 q 219 -239 203 -219 q 265 -258 236 -258 q 307 -246 290 -258 q 324 -214 324 -233 q 314 -191 324 -203 q 289 -167 304 -179 q 256 -142 274 -154 q 219 -119 238 -131 l 260 -17 z "},"Ș":{"ha":725,"x_min":14,"x_max":724,"o":"m 268 -17 q 170 -9 215 -17 q 93 10 125 -1 q 24 36 56 21 l 14 56 q 35 129 25 90 q 51 204 43 163 q 67 290 60 246 l 182 300 q 178 207 175 244 q 194 147 181 169 q 235 114 208 124 q 304 104 263 104 q 413 137 371 104 q 456 222 456 169 q 444 264 456 244 q 413 300 432 283 q 367 333 393 317 q 311 364 340 349 q 235 407 274 385 q 166 458 197 429 q 115 523 135 486 q 96 608 96 560 q 124 727 96 672 q 202 822 151 782 q 323 885 253 863 q 476 907 393 907 q 570 901 526 907 q 646 889 614 896 q 715 871 683 881 l 724 853 q 701 782 713 819 q 681 706 692 750 q 663 615 671 663 l 558 607 l 547 615 q 551 642 549 628 q 556 665 554 653 q 557 688 557 678 q 529 759 557 738 q 440 781 501 781 q 340 749 379 781 q 300 669 300 718 q 328 606 300 633 q 397 553 356 578 q 485 506 438 529 q 572 451 532 482 q 639 381 613 421 q 665 285 665 340 q 638 163 665 218 q 558 67 610 107 q 432 6 506 28 q 268 -17 358 -17 m 179 -119 q 233 -85 204 -100 q 289 -71 263 -71 q 358 -103 331 -71 q 385 -190 385 -135 q 368 -263 385 -228 q 323 -331 351 -299 q 258 -391 294 -362 q 181 -442 221 -419 l 129 -400 l 129 -376 q 197 -310 169 -349 q 224 -235 224 -271 q 210 -181 224 -207 q 175 -139 196 -156 l 179 -119 z "},"T":{"ha":763,"x_min":40,"x_max":813,"o":"m 346 786 q 260 777 292 783 q 210 752 229 771 q 181 699 192 733 q 156 604 169 664 l 40 596 q 58 693 49 643 q 75 788 65 736 q 92 892 85 840 l 110 907 l 240 892 l 660 892 l 800 907 l 813 892 q 802 788 806 839 q 796 696 799 736 q 790 604 792 649 l 675 596 q 673 697 675 660 q 658 753 671 733 q 617 778 644 772 q 539 786 589 783 q 524 697 533 753 q 504 576 514 640 q 485 442 494 511 q 467 316 475 374 q 453 216 458 258 q 449 161 449 174 q 463 107 449 124 q 511 90 478 90 q 540 90 526 90 q 564 92 553 90 q 585 94 575 93 l 589 88 l 565 -6 q 475 -3 519 -4 q 397 -1 438 -1 q 331 0 357 0 q 264 -1 303 0 q 189 -4 225 -3 q 104 -8 147 -7 l 126 82 q 198 93 171 86 q 241 115 225 100 q 265 158 257 131 q 278 229 272 185 l 346 786 z "},"Ŧ":{"ha":765,"x_min":40,"x_max":813,"o":"m 296 383 l 181 383 l 167 396 l 176 463 l 306 461 l 346 786 q 260 777 292 783 q 210 752 229 771 q 181 699 192 733 q 156 604 169 664 l 40 596 q 58 693 49 643 q 75 788 65 736 q 92 892 85 840 l 110 907 l 240 892 l 660 892 l 800 907 l 813 892 q 802 788 806 839 q 796 696 799 736 q 790 604 792 649 l 675 596 q 673 697 675 660 q 658 753 671 733 q 617 778 644 772 q 539 786 589 783 q 528 727 535 763 q 515 649 522 692 q 501 558 508 606 q 488 464 494 511 l 593 468 l 613 449 l 607 385 l 475 385 q 456 240 464 301 q 449 161 449 178 q 463 107 449 124 q 511 90 478 90 q 540 90 526 90 q 564 92 553 90 q 585 94 575 93 l 589 88 l 565 -6 q 475 -3 519 -4 q 397 -1 438 -1 q 331 0 357 0 q 264 -1 303 0 q 189 -4 225 -3 q 104 -8 147 -7 l 126 82 q 198 93 171 86 q 241 115 225 100 q 265 158 257 131 q 278 229 272 185 l 296 383 z "},"Ť":{"ha":765,"x_min":40,"x_max":813,"o":"m 346 786 q 260 777 292 783 q 210 752 229 771 q 181 699 192 733 q 156 604 169 664 l 40 596 q 58 693 49 643 q 75 788 65 736 q 92 892 85 840 l 110 907 l 240 892 l 660 892 l 800 907 l 813 892 q 802 788 806 839 q 796 696 799 736 q 790 604 792 649 l 675 596 q 673 697 675 660 q 658 753 671 733 q 617 778 644 772 q 539 786 589 783 q 524 697 533 753 q 504 576 514 640 q 485 442 494 511 q 467 316 475 374 q 453 216 458 258 q 449 161 449 174 q 463 107 449 124 q 511 90 478 90 q 540 90 526 90 q 564 92 553 90 q 585 94 575 93 l 589 88 l 565 -6 q 475 -3 519 -4 q 397 -1 438 -1 q 331 0 357 0 q 264 -1 303 0 q 189 -4 225 -3 q 104 -8 147 -7 l 126 82 q 198 93 171 86 q 241 115 225 100 q 265 158 257 131 q 278 229 272 185 l 346 786 m 717 1139 q 654 1094 693 1124 q 576 1038 615 1065 q 482 967 531 1004 l 456 967 q 379 1038 415 1004 q 315 1094 347 1065 q 265 1139 283 1124 l 304 1196 l 328 1201 q 362 1185 338 1197 q 412 1159 386 1172 q 459 1135 438 1146 q 488 1121 481 1124 q 520 1135 496 1124 q 574 1159 544 1146 q 629 1185 603 1172 q 668 1201 656 1197 l 689 1196 l 717 1139 z "},"Ţ":{"ha":765,"x_min":40,"x_max":813,"o":"m 307 0 q 242 -2 276 -1 q 176 -4 207 -3 q 104 -8 140 -6 l 126 82 q 198 93 171 86 q 241 115 225 100 q 265 158 257 131 q 278 229 272 185 l 346 786 q 260 777 292 783 q 210 752 229 771 q 181 699 192 733 q 156 604 169 664 l 40 596 q 58 693 49 643 q 75 788 65 736 q 92 892 85 840 l 110 907 l 240 892 l 660 892 l 800 907 l 813 892 q 802 788 806 839 q 796 696 799 736 q 790 604 792 649 l 675 596 q 673 697 675 660 q 658 753 671 733 q 617 778 644 772 q 539 786 589 783 q 524 697 533 753 q 504 576 514 640 q 485 442 494 511 q 467 316 475 374 q 453 216 458 258 q 449 161 449 174 q 463 107 449 124 q 511 90 478 90 q 540 90 526 90 q 564 92 553 90 q 585 94 575 93 l 589 88 l 565 -6 q 501 -3 533 -4 q 441 -1 474 -1 q 379 0 408 -1 l 356 -61 q 393 -85 372 -72 q 431 -115 414 -99 q 460 -151 449 -132 q 472 -189 472 -169 q 455 -244 472 -218 q 409 -289 438 -269 q 345 -319 381 -308 q 272 -331 310 -331 q 238 -326 256 -331 q 205 -315 219 -322 q 181 -297 190 -307 q 172 -272 172 -286 q 178 -253 172 -264 q 194 -228 185 -242 q 215 -203 204 -215 q 236 -181 226 -190 l 247 -181 q 261 -239 244 -219 q 307 -258 278 -258 q 349 -246 332 -258 q 365 -214 365 -233 q 356 -191 365 -203 q 331 -167 346 -179 q 297 -142 315 -154 q 261 -119 279 -131 l 307 0 z "},"Þ":{"ha":771,"x_min":6,"x_max":778,"o":"m 399 711 l 499 711 q 778 500 778 711 q 749 380 778 435 q 672 285 721 325 q 556 223 622 246 q 417 200 490 200 l 322 200 l 317 158 q 319 103 311 117 q 358 90 328 90 q 384 90 372 90 q 404 92 396 90 q 422 94 414 93 l 428 85 l 406 -4 q 325 -3 364 -4 q 256 -1 292 -1 q 197 0 221 0 q 136 -2 169 0 q 74 -7 103 -4 q 6 -12 39 -10 l 26 78 q 76 92 56 83 q 108 113 96 100 q 127 146 121 126 q 138 194 133 165 l 204 729 q 201 787 210 772 q 164 801 193 801 q 149 801 157 801 q 135 800 142 800 l 119 800 l 113 811 l 133 893 q 169 893 147 893 q 218 892 192 893 q 272 892 244 892 q 322 892 299 892 q 377 892 344 892 q 442 896 410 893 q 517 901 478 899 l 499 808 q 427 788 444 800 q 404 744 410 775 l 399 711 m 338 322 q 394 309 363 315 q 446 303 426 303 q 545 359 513 314 q 578 475 578 404 q 538 569 578 540 q 410 599 497 599 q 385 594 392 599 q 376 579 379 590 l 338 322 z "},"U":{"ha":876,"x_min":83,"x_max":926,"o":"m 296 329 q 294 299 294 314 q 293 274 293 285 q 327 149 292 192 q 433 107 363 107 q 617 290 594 107 q 622 335 618 307 q 629 397 625 363 q 638 468 633 431 q 646 543 642 506 q 667 728 656 629 q 665 788 671 774 q 633 803 658 803 q 620 802 628 803 q 606 801 613 801 q 589 800 597 800 l 586 806 l 608 894 q 667 892 638 893 q 717 890 690 890 q 764 890 744 890 q 819 891 790 890 q 871 894 847 892 q 926 900 899 897 l 907 808 q 865 798 881 803 q 840 785 849 793 q 826 767 831 778 q 821 739 822 756 l 767 304 q 651 65 747 146 q 389 -17 556 -17 q 175 45 246 -17 q 104 229 104 107 q 108 285 104 256 l 164 728 q 163 788 169 774 q 128 803 156 803 q 115 802 121 803 q 101 801 108 801 q 86 800 94 800 l 83 806 l 107 894 q 174 892 139 893 q 235 890 201 890 q 299 890 269 890 q 347 891 319 890 q 400 894 375 892 q 460 900 429 897 l 439 807 q 378 785 396 801 q 356 733 361 769 l 296 329 z "},"Ú":{"ha":874,"x_min":83,"x_max":926,"o":"m 296 329 q 294 299 294 314 q 293 274 293 285 q 327 149 292 192 q 433 107 363 107 q 617 290 594 107 q 622 335 618 307 q 629 397 625 363 q 638 468 633 431 q 646 543 642 506 q 667 728 656 629 q 665 788 671 774 q 633 803 658 803 q 620 802 628 803 q 606 801 613 801 q 589 800 597 800 l 586 806 l 608 894 q 667 892 638 893 q 717 890 690 890 q 764 890 744 890 q 819 891 790 890 q 871 894 847 892 q 926 900 899 897 l 907 808 q 865 798 881 803 q 840 785 849 793 q 826 767 831 778 q 821 739 822 756 l 767 304 q 651 65 747 146 q 389 -17 556 -17 q 175 45 246 -17 q 104 229 104 107 q 108 285 104 256 l 164 728 q 163 788 169 774 q 128 803 156 803 q 115 802 121 803 q 101 801 108 801 q 86 800 94 800 l 83 806 l 107 894 q 174 892 139 893 q 235 890 201 890 q 299 890 269 890 q 347 891 319 890 q 400 894 375 892 q 460 900 429 897 l 439 807 q 378 785 396 801 q 356 733 361 769 l 296 329 m 749 1058 q 649 1032 701 1047 q 547 1003 604 1019 q 431 968 490 988 l 413 981 l 393 1046 q 505 1096 450 1069 q 604 1143 560 1122 q 703 1190 656 1168 l 721 1183 l 756 1076 l 749 1058 z "},"Û":{"ha":874,"x_min":83,"x_max":926,"o":"m 296 329 q 294 299 294 314 q 293 274 293 285 q 327 149 292 192 q 433 107 363 107 q 617 290 594 107 q 622 335 618 307 q 629 397 625 363 q 638 468 633 431 q 646 543 642 506 q 667 728 656 629 q 665 788 671 774 q 633 803 658 803 q 620 802 628 803 q 606 801 613 801 q 589 800 597 800 l 586 806 l 608 894 q 667 892 638 893 q 717 890 690 890 q 764 890 744 890 q 819 891 790 890 q 871 894 847 892 q 926 900 899 897 l 907 808 q 865 798 881 803 q 840 785 849 793 q 826 767 831 778 q 821 739 822 756 l 767 304 q 651 65 747 146 q 389 -17 556 -17 q 175 45 246 -17 q 104 229 104 107 q 108 285 104 256 l 164 728 q 163 788 169 774 q 128 803 156 803 q 115 802 121 803 q 101 801 108 801 q 86 800 94 800 l 83 806 l 107 894 q 174 892 139 893 q 235 890 201 890 q 299 890 269 890 q 347 891 319 890 q 400 894 375 892 q 460 900 429 897 l 439 807 q 378 785 396 801 q 356 733 361 769 l 296 329 m 326 1044 q 388 1089 349 1060 q 465 1146 426 1118 q 560 1217 511 1179 l 588 1217 q 610 1197 588 1218 q 665 1148 633 1176 q 728 1090 696 1119 q 778 1044 760 1060 l 738 988 l 714 982 q 681 999 704 986 q 631 1024 657 1011 q 583 1049 606 1038 q 554 1063 561 1060 q 522 1049 546 1060 q 468 1024 497 1038 q 413 999 439 1011 q 374 982 386 986 l 353 988 l 326 1044 z "},"Ü":{"ha":874,"x_min":83,"x_max":926,"o":"m 296 329 q 294 299 294 314 q 293 274 293 285 q 327 149 292 192 q 433 107 363 107 q 617 290 594 107 q 622 335 618 307 q 629 397 625 363 q 638 468 633 431 q 646 543 642 506 q 667 728 656 629 q 665 788 671 774 q 633 803 658 803 q 620 802 628 803 q 606 801 613 801 q 589 800 597 800 l 586 806 l 608 894 q 667 892 638 893 q 717 890 690 890 q 764 890 744 890 q 819 891 790 890 q 871 894 847 892 q 926 900 899 897 l 907 808 q 865 798 881 803 q 840 785 849 793 q 826 767 831 778 q 821 739 822 756 l 767 304 q 651 65 747 146 q 389 -17 556 -17 q 175 45 246 -17 q 104 229 104 107 q 108 285 104 256 l 164 728 q 163 788 169 774 q 128 803 156 803 q 115 802 121 803 q 101 801 108 801 q 86 800 94 800 l 83 806 l 107 894 q 174 892 139 893 q 235 890 201 890 q 299 890 269 890 q 347 891 319 890 q 400 894 375 892 q 460 900 429 897 l 439 807 q 378 785 396 801 q 356 733 361 769 l 296 329 m 658 988 q 604 1008 622 988 q 586 1060 586 1028 q 616 1135 586 1106 q 690 1165 646 1165 q 744 1145 726 1165 q 763 1093 763 1125 q 733 1018 763 1049 q 658 988 704 988 m 418 988 q 364 1008 382 988 q 346 1060 346 1028 q 375 1135 346 1106 q 450 1165 404 1165 q 504 1145 486 1165 q 522 1093 522 1125 q 493 1018 522 1049 q 418 988 464 988 z "},"Ù":{"ha":874,"x_min":83,"x_max":926,"o":"m 296 329 q 294 299 294 314 q 293 274 293 285 q 327 149 292 192 q 433 107 363 107 q 617 290 594 107 q 622 335 618 307 q 629 397 625 363 q 638 468 633 431 q 646 543 642 506 q 667 728 656 629 q 665 788 671 774 q 633 803 658 803 q 620 802 628 803 q 606 801 613 801 q 589 800 597 800 l 586 806 l 608 894 q 667 892 638 893 q 717 890 690 890 q 764 890 744 890 q 819 891 790 890 q 871 894 847 892 q 926 900 899 897 l 907 808 q 865 798 881 803 q 840 785 849 793 q 826 767 831 778 q 821 739 822 756 l 767 304 q 651 65 747 146 q 389 -17 556 -17 q 175 45 246 -17 q 104 229 104 107 q 108 285 104 256 l 164 728 q 163 788 169 774 q 128 803 156 803 q 115 802 121 803 q 101 801 108 801 q 86 800 94 800 l 83 806 l 107 894 q 174 892 139 893 q 235 890 201 890 q 299 890 269 890 q 347 891 319 890 q 400 894 375 892 q 460 900 429 897 l 439 807 q 378 785 396 801 q 356 733 361 769 l 296 329 m 332 1076 l 367 1183 l 385 1190 q 483 1143 432 1168 q 583 1096 528 1122 q 694 1046 638 1069 l 676 981 l 657 968 q 540 1003 597 988 q 439 1032 483 1019 q 339 1058 386 1047 l 332 1076 z "},"Ű":{"ha":874,"x_min":83,"x_max":926,"o":"m 296 329 q 294 299 294 314 q 293 274 293 285 q 327 149 292 192 q 433 107 363 107 q 617 290 594 107 q 622 335 618 307 q 629 397 625 363 q 638 468 633 431 q 646 543 642 506 q 667 728 656 629 q 665 788 671 774 q 633 803 658 803 q 620 802 628 803 q 606 801 613 801 q 589 800 597 800 l 586 806 l 608 894 q 667 892 638 893 q 717 890 690 890 q 764 890 744 890 q 819 891 790 890 q 871 894 847 892 q 926 900 899 897 l 907 808 q 865 798 881 803 q 840 785 849 793 q 826 767 831 778 q 821 739 822 756 l 767 304 q 651 65 747 146 q 389 -17 556 -17 q 175 45 246 -17 q 104 229 104 107 q 108 285 104 256 l 164 728 q 163 788 169 774 q 128 803 156 803 q 115 802 121 803 q 101 801 108 801 q 86 800 94 800 l 83 806 l 107 894 q 174 892 139 893 q 235 890 201 890 q 299 890 269 890 q 347 891 319 890 q 400 894 375 892 q 460 900 429 897 l 439 807 q 378 785 396 801 q 356 733 361 769 l 296 329 m 613 1086 q 539 1044 578 1067 q 464 1001 506 1025 q 378 950 422 978 l 360 957 l 328 1004 q 403 1070 367 1038 q 471 1131 440 1103 q 538 1190 506 1161 l 554 1189 l 614 1103 l 613 1086 m 844 1081 q 771 1039 808 1061 q 697 996 738 1019 q 611 944 656 972 l 593 950 l 561 997 q 637 1063 600 1031 q 704 1124 674 1096 q 771 1183 739 1154 l 788 1181 l 847 1097 l 844 1081 z "},"Ū":{"ha":874,"x_min":83,"x_max":926,"o":"m 296 329 q 294 299 294 314 q 293 274 293 285 q 327 149 292 192 q 433 107 363 107 q 617 290 594 107 q 622 335 618 307 q 629 397 625 363 q 638 468 633 431 q 646 543 642 506 q 667 728 656 629 q 665 788 671 774 q 633 803 658 803 q 620 802 628 803 q 606 801 613 801 q 589 800 597 800 l 586 806 l 608 894 q 667 892 638 893 q 717 890 690 890 q 764 890 744 890 q 819 891 790 890 q 871 894 847 892 q 926 900 899 897 l 907 808 q 865 798 881 803 q 840 785 849 793 q 826 767 831 778 q 821 739 822 756 l 767 304 q 651 65 747 146 q 389 -17 556 -17 q 175 45 246 -17 q 104 229 104 107 q 108 285 104 256 l 164 728 q 163 788 169 774 q 128 803 156 803 q 115 802 121 803 q 101 801 108 801 q 86 800 94 800 l 83 806 l 107 894 q 174 892 139 893 q 235 890 201 890 q 299 890 269 890 q 347 891 319 890 q 400 894 375 892 q 460 900 429 897 l 439 807 q 378 785 396 801 q 356 733 361 769 l 296 329 m 764 1099 l 733 992 l 544 990 q 482 990 514 990 q 422 989 450 989 l 358 989 l 346 1006 l 378 1111 q 451 1110 415 1110 l 583 1110 q 638 1110 608 1110 q 694 1114 668 1111 q 754 1118 725 1115 l 764 1099 z "},"Ų":{"ha":874,"x_min":83,"x_max":926,"o":"m 665 -242 q 617 -279 642 -261 q 569 -310 596 -294 q 518 -335 543 -326 q 408 -305 447 -335 q 369 -222 369 -275 q 399 -128 369 -178 q 503 -4 429 -78 q 389 -17 453 -17 q 104 229 104 -17 q 108 285 104 256 l 164 728 q 163 789 169 775 q 128 803 156 803 q 115 802 121 803 q 101 801 108 801 q 86 800 94 800 l 83 806 l 107 894 q 174 892 139 893 q 235 890 201 890 q 299 890 269 890 q 347 891 319 890 q 400 894 375 892 q 460 900 429 897 l 439 807 q 378 785 396 801 q 356 733 361 769 l 296 329 q 294 299 294 314 q 293 274 293 285 q 433 107 290 107 q 560 151 514 107 q 617 290 606 196 q 622 335 618 307 q 629 397 625 363 q 638 468 633 431 q 646 543 642 506 q 667 728 656 629 q 665 789 671 775 q 633 803 658 803 q 620 802 628 803 q 606 801 613 801 q 589 800 597 800 l 586 806 l 608 894 q 667 892 638 893 q 717 890 690 890 q 764 890 744 890 q 819 891 790 890 q 871 894 847 892 q 926 900 899 897 l 907 808 q 839 784 854 797 q 821 739 824 771 l 767 304 q 649 56 749 164 q 571 -31 601 6 q 522 -94 540 -67 q 495 -140 503 -121 q 488 -178 488 -160 q 503 -219 488 -203 q 544 -235 519 -235 q 578 -230 561 -235 q 611 -218 596 -225 q 644 -201 628 -211 l 665 -242 z "},"Ů":{"ha":874,"x_min":83,"x_max":926,"o":"m 296 329 q 294 299 294 314 q 293 274 293 285 q 327 149 292 192 q 433 107 363 107 q 617 290 594 107 q 622 335 618 307 q 629 397 625 363 q 638 468 633 431 q 646 543 642 506 q 667 728 656 629 q 665 788 671 774 q 633 803 658 803 q 620 802 628 803 q 606 801 613 801 q 589 800 597 800 l 586 806 l 608 894 q 667 892 638 893 q 717 890 690 890 q 764 890 744 890 q 819 891 790 890 q 871 894 847 892 q 926 900 899 897 l 907 808 q 865 798 881 803 q 840 785 849 793 q 826 767 831 778 q 821 739 822 756 l 767 304 q 651 65 747 146 q 389 -17 556 -17 q 175 45 246 -17 q 104 229 104 107 q 108 285 104 256 l 164 728 q 163 788 169 774 q 128 803 156 803 q 115 802 121 803 q 101 801 108 801 q 86 800 94 800 l 83 806 l 107 894 q 174 892 139 893 q 235 890 201 890 q 299 890 269 890 q 347 891 319 890 q 400 894 375 892 q 460 900 429 897 l 439 807 q 378 785 396 801 q 356 733 361 769 l 296 329 m 551 1015 q 570 1017 560 1015 q 590 1026 581 1019 q 606 1043 599 1032 q 613 1074 613 1054 q 599 1110 613 1097 q 557 1124 585 1124 q 514 1108 529 1124 q 499 1067 499 1092 q 517 1027 499 1039 q 551 1015 535 1015 m 533 942 q 454 972 481 942 q 428 1050 428 1001 q 469 1157 428 1114 q 576 1200 511 1200 q 659 1168 635 1200 q 683 1096 683 1136 q 673 1039 683 1067 q 643 990 663 1011 q 596 955 624 968 q 533 942 568 942 z "},"V":{"ha":838,"x_min":51,"x_max":914,"o":"m 144 717 q 117 781 138 761 q 56 803 96 800 l 51 813 l 72 894 q 135 892 104 893 q 190 890 161 890 q 240 890 218 890 q 317 892 276 890 q 393 896 358 893 q 471 903 433 899 l 475 892 l 458 808 q 402 801 424 806 q 369 789 381 796 q 353 771 357 782 q 349 743 349 760 q 351 693 349 726 q 356 617 353 660 q 365 525 360 574 q 374 428 369 476 q 400 179 385 314 l 421 179 q 460 268 436 214 q 510 383 483 322 q 564 508 538 444 q 612 625 590 571 q 647 717 633 679 q 660 765 660 754 q 645 794 660 785 q 597 804 631 804 l 544 804 l 539 814 l 558 899 q 626 894 592 896 q 690 891 656 892 q 757 890 725 890 q 811 890 783 890 q 863 892 839 890 q 914 894 889 893 l 893 804 q 865 797 876 801 q 845 785 854 793 q 828 765 836 778 q 811 732 821 753 l 485 7 l 256 -21 q 217 249 236 115 q 199 367 208 306 q 181 489 190 428 q 162 608 171 550 q 144 717 153 667 z "},"W":{"ha":1292,"x_min":53,"x_max":1365,"o":"m 725 -21 l 672 481 l 658 481 l 464 7 l 242 -21 q 208 249 225 115 q 193 367 201 306 q 176 489 185 428 q 160 608 168 550 q 143 717 151 667 q 115 781 135 761 q 58 803 96 800 l 53 813 l 74 894 q 133 892 104 893 q 186 890 158 890 q 235 890 214 890 q 315 892 275 890 q 388 896 356 893 q 457 903 424 899 l 463 892 l 446 808 q 392 801 413 806 q 358 789 371 796 q 342 771 346 782 q 338 743 338 760 q 340 690 338 724 q 344 613 342 656 q 352 521 347 569 q 361 424 357 472 q 386 179 372 310 l 406 179 q 457 303 429 238 q 512 437 485 369 q 565 567 539 504 q 614 682 592 631 q 615 724 617 717 q 610 740 613 732 q 587 788 607 775 q 519 803 567 801 l 514 813 l 536 894 q 604 892 571 893 q 663 890 632 890 q 718 890 694 890 q 795 892 756 890 q 867 896 835 893 q 939 903 904 899 l 944 892 l 928 808 q 872 801 893 806 q 838 789 850 796 q 822 771 826 782 q 818 743 818 760 q 820 692 818 726 q 826 616 822 658 q 834 524 829 574 q 843 426 839 475 q 868 179 854 313 l 888 179 q 931 281 907 222 q 981 403 956 340 q 1032 527 1007 465 q 1077 640 1057 589 q 1109 726 1097 692 q 1121 771 1121 761 q 1107 797 1121 790 q 1060 804 1093 804 l 1010 804 l 1004 814 l 1025 899 q 1090 894 1057 896 q 1151 891 1118 892 q 1217 890 1185 890 q 1267 890 1242 890 q 1315 892 1293 890 q 1365 894 1340 893 l 1346 804 q 1319 797 1331 801 q 1299 785 1308 793 q 1283 765 1290 778 q 1267 732 1275 751 l 946 7 l 725 -21 z "},"Ẃ":{"ha":1296,"x_min":53,"x_max":1365,"o":"m 725 -21 l 672 481 l 658 481 l 464 7 l 242 -21 q 208 249 225 115 q 193 367 201 306 q 176 489 185 428 q 160 608 168 550 q 143 717 151 667 q 115 781 135 761 q 58 803 96 800 l 53 813 l 74 894 q 133 892 104 893 q 186 890 158 890 q 235 890 214 890 q 315 892 275 890 q 388 896 356 893 q 457 903 424 899 l 463 892 l 446 808 q 392 801 413 806 q 358 789 371 796 q 342 771 346 782 q 338 743 338 760 q 340 690 338 724 q 344 613 342 656 q 352 521 347 569 q 361 424 357 472 q 386 179 372 310 l 406 179 q 457 303 429 238 q 512 437 485 369 q 565 567 539 504 q 614 682 592 631 q 615 724 617 717 q 610 740 613 732 q 587 788 607 775 q 519 803 567 801 l 514 813 l 536 894 q 604 892 571 893 q 663 890 632 890 q 718 890 694 890 q 795 892 756 890 q 867 896 835 893 q 939 903 904 899 l 944 892 l 928 808 q 872 801 893 806 q 838 789 850 796 q 822 771 826 782 q 818 743 818 760 q 820 692 818 726 q 826 616 822 658 q 834 524 829 574 q 843 426 839 475 q 868 179 854 313 l 888 179 q 931 281 907 222 q 981 403 956 340 q 1032 527 1007 465 q 1077 640 1057 589 q 1109 726 1097 692 q 1121 771 1121 761 q 1107 797 1121 790 q 1060 804 1093 804 l 1010 804 l 1004 814 l 1025 899 q 1090 894 1057 896 q 1151 891 1118 892 q 1217 890 1185 890 q 1267 890 1242 890 q 1315 892 1293 890 q 1365 894 1340 893 l 1346 804 q 1319 797 1331 801 q 1299 785 1308 793 q 1283 765 1290 778 q 1267 732 1275 751 l 946 7 l 725 -21 m 964 1058 q 864 1032 917 1047 q 763 1003 819 1019 q 646 968 706 988 l 628 981 l 608 1046 q 720 1096 665 1069 q 819 1143 775 1122 q 918 1190 871 1168 l 936 1183 l 971 1076 l 964 1058 z "},"Ŵ":{"ha":1296,"x_min":53,"x_max":1365,"o":"m 725 -21 l 672 481 l 658 481 l 464 7 l 242 -21 q 208 249 225 115 q 193 367 201 306 q 176 489 185 428 q 160 608 168 550 q 143 717 151 667 q 115 781 135 761 q 58 803 96 800 l 53 813 l 74 894 q 133 892 104 893 q 186 890 158 890 q 235 890 214 890 q 315 892 275 890 q 388 896 356 893 q 457 903 424 899 l 463 892 l 446 808 q 392 801 413 806 q 358 789 371 796 q 342 771 346 782 q 338 743 338 760 q 340 690 338 724 q 344 613 342 656 q 352 521 347 569 q 361 424 357 472 q 386 179 372 310 l 406 179 q 457 303 429 238 q 512 437 485 369 q 565 567 539 504 q 614 682 592 631 q 615 724 617 717 q 610 740 613 732 q 587 788 607 775 q 519 803 567 801 l 514 813 l 536 894 q 604 892 571 893 q 663 890 632 890 q 718 890 694 890 q 795 892 756 890 q 867 896 835 893 q 939 903 904 899 l 944 892 l 928 808 q 872 801 893 806 q 838 789 850 796 q 822 771 826 782 q 818 743 818 760 q 820 692 818 726 q 826 616 822 658 q 834 524 829 574 q 843 426 839 475 q 868 179 854 313 l 888 179 q 931 281 907 222 q 981 403 956 340 q 1032 527 1007 465 q 1077 640 1057 589 q 1109 726 1097 692 q 1121 771 1121 761 q 1107 797 1121 790 q 1060 804 1093 804 l 1010 804 l 1004 814 l 1025 899 q 1090 894 1057 896 q 1151 891 1118 892 q 1217 890 1185 890 q 1267 890 1242 890 q 1315 892 1293 890 q 1365 894 1340 893 l 1346 804 q 1319 797 1331 801 q 1299 785 1308 793 q 1283 765 1290 778 q 1267 732 1275 751 l 946 7 l 725 -21 m 536 1044 q 597 1089 558 1060 q 675 1146 636 1118 q 769 1217 721 1179 l 797 1217 q 820 1197 797 1218 q 874 1148 843 1176 q 938 1090 906 1119 q 988 1044 969 1060 l 947 988 l 924 982 q 890 999 914 986 q 841 1024 867 1011 q 793 1049 815 1038 q 764 1063 771 1060 q 731 1049 756 1060 q 678 1024 707 1038 q 622 999 649 1011 q 583 982 596 986 l 563 988 l 536 1044 z "},"Ẅ":{"ha":1296,"x_min":53,"x_max":1365,"o":"m 725 -21 l 672 481 l 658 481 l 464 7 l 242 -21 q 208 249 225 115 q 193 367 201 306 q 176 489 185 428 q 160 608 168 550 q 143 717 151 667 q 115 781 135 761 q 58 803 96 800 l 53 813 l 74 894 q 133 892 104 893 q 186 890 158 890 q 235 890 214 890 q 315 892 275 890 q 388 896 356 893 q 457 903 424 899 l 463 892 l 446 808 q 392 801 413 806 q 358 789 371 796 q 342 771 346 782 q 338 743 338 760 q 340 690 338 724 q 344 613 342 656 q 352 521 347 569 q 361 424 357 472 q 386 179 372 310 l 406 179 q 457 303 429 238 q 512 437 485 369 q 565 567 539 504 q 614 682 592 631 q 615 724 617 717 q 610 740 613 732 q 587 788 607 775 q 519 803 567 801 l 514 813 l 536 894 q 604 892 571 893 q 663 890 632 890 q 718 890 694 890 q 795 892 756 890 q 867 896 835 893 q 939 903 904 899 l 944 892 l 928 808 q 872 801 893 806 q 838 789 850 796 q 822 771 826 782 q 818 743 818 760 q 820 692 818 726 q 826 616 822 658 q 834 524 829 574 q 843 426 839 475 q 868 179 854 313 l 888 179 q 931 281 907 222 q 981 403 956 340 q 1032 527 1007 465 q 1077 640 1057 589 q 1109 726 1097 692 q 1121 771 1121 761 q 1107 797 1121 790 q 1060 804 1093 804 l 1010 804 l 1004 814 l 1025 899 q 1090 894 1057 896 q 1151 891 1118 892 q 1217 890 1185 890 q 1267 890 1242 890 q 1315 892 1293 890 q 1365 894 1340 893 l 1346 804 q 1319 797 1331 801 q 1299 785 1308 793 q 1283 765 1290 778 q 1267 732 1275 751 l 946 7 l 725 -21 m 868 981 q 814 1001 832 981 q 796 1053 796 1021 q 826 1128 796 1099 q 900 1158 856 1158 q 954 1138 936 1158 q 972 1086 972 1118 q 943 1011 972 1042 q 868 981 914 981 m 628 981 q 574 1001 592 981 q 556 1053 556 1021 q 585 1128 556 1099 q 660 1158 614 1158 q 714 1138 696 1158 q 732 1086 732 1118 q 703 1011 732 1042 q 628 981 674 981 z "},"Ẁ":{"ha":1296,"x_min":53,"x_max":1365,"o":"m 725 -21 l 672 481 l 658 481 l 464 7 l 242 -21 q 208 249 225 115 q 193 367 201 306 q 176 489 185 428 q 160 608 168 550 q 143 717 151 667 q 115 781 135 761 q 58 803 96 800 l 53 813 l 74 894 q 133 892 104 893 q 186 890 158 890 q 235 890 214 890 q 315 892 275 890 q 388 896 356 893 q 457 903 424 899 l 463 892 l 446 808 q 392 801 413 806 q 358 789 371 796 q 342 771 346 782 q 338 743 338 760 q 340 690 338 724 q 344 613 342 656 q 352 521 347 569 q 361 424 357 472 q 386 179 372 310 l 406 179 q 457 303 429 238 q 512 437 485 369 q 565 567 539 504 q 614 682 592 631 q 615 724 617 717 q 610 740 613 732 q 587 788 607 775 q 519 803 567 801 l 514 813 l 536 894 q 604 892 571 893 q 663 890 632 890 q 718 890 694 890 q 795 892 756 890 q 867 896 835 893 q 939 903 904 899 l 944 892 l 928 808 q 872 801 893 806 q 838 789 850 796 q 822 771 826 782 q 818 743 818 760 q 820 692 818 726 q 826 616 822 658 q 834 524 829 574 q 843 426 839 475 q 868 179 854 313 l 888 179 q 931 281 907 222 q 981 403 956 340 q 1032 527 1007 465 q 1077 640 1057 589 q 1109 726 1097 692 q 1121 771 1121 761 q 1107 797 1121 790 q 1060 804 1093 804 l 1010 804 l 1004 814 l 1025 899 q 1090 894 1057 896 q 1151 891 1118 892 q 1217 890 1185 890 q 1267 890 1242 890 q 1315 892 1293 890 q 1365 894 1340 893 l 1346 804 q 1319 797 1331 801 q 1299 785 1308 793 q 1283 765 1290 778 q 1267 732 1275 751 l 946 7 l 725 -21 m 543 1076 l 578 1183 l 596 1190 q 694 1143 643 1168 q 794 1096 739 1122 q 906 1046 849 1069 l 888 981 l 868 968 q 751 1003 808 988 q 650 1032 694 1019 q 550 1058 597 1047 l 543 1076 z "},"X":{"ha":915,"x_min":-28,"x_max":967,"o":"m 361 458 l 246 685 q 178 767 215 743 q 88 800 142 790 l 85 807 l 106 894 q 174 892 138 893 q 242 890 204 890 q 318 890 281 890 q 385 892 350 890 q 453 896 421 893 q 526 901 489 899 l 531 889 l 514 810 q 429 765 429 806 q 455 687 429 742 q 521 553 481 632 q 569 616 542 582 q 622 682 597 650 q 663 740 646 714 q 679 779 679 767 q 618 810 679 806 q 617 813 618 811 q 617 817 617 814 l 633 896 q 667 895 646 896 q 713 893 689 894 q 763 891 738 892 q 811 890 789 890 q 862 891 835 890 q 911 893 889 892 q 963 896 936 894 l 967 886 l 949 803 q 892 780 917 792 q 846 751 868 768 q 802 710 824 733 q 754 656 781 688 l 585 447 l 713 208 q 781 123 744 150 q 874 92 817 96 l 854 -3 q 789 -1 821 -3 q 732 1 761 0 q 682 1 703 1 q 615 0 656 1 q 535 -4 574 -1 q 439 -10 489 -7 l 433 0 l 450 82 q 528 126 528 88 q 513 172 528 144 l 422 353 l 317 221 q 272 160 283 181 q 260 122 260 139 q 319 85 260 89 l 324 76 l 306 -8 q 236 -4 269 -7 q 178 0 208 -1 q 131 1 149 1 q 85 0 111 1 q 35 -3 58 -1 q -24 -6 7 -4 l -28 8 l -11 90 q 92 158 36 107 q 206 276 147 208 l 361 458 z "},"Y":{"ha":803,"x_min":47,"x_max":888,"o":"m 363 765 q 367 733 363 756 q 381 681 372 710 q 398 619 389 651 q 416 558 407 586 q 431 507 425 529 q 440 478 438 485 l 451 478 l 586 711 q 613 781 613 756 q 598 801 613 794 q 549 810 583 807 l 546 817 l 567 896 q 601 895 579 896 q 647 893 622 894 q 697 891 671 892 q 744 890 722 890 q 792 891 768 890 q 836 893 815 892 q 883 896 860 894 l 888 886 l 867 803 q 815 779 838 793 q 771 744 792 765 q 729 694 750 724 q 683 625 708 665 l 525 376 q 506 339 513 357 q 494 299 499 321 q 485 249 489 278 q 476 182 482 221 q 480 110 469 131 q 528 90 490 90 q 551 90 539 90 q 572 92 563 90 q 594 94 583 93 l 599 88 l 575 -6 q 489 -3 531 -4 q 416 -1 453 -1 q 354 0 379 0 q 288 -3 325 0 q 218 -8 250 -6 q 140 -15 179 -12 l 161 78 q 226 92 201 83 q 266 115 251 100 q 288 152 281 129 q 299 210 294 175 l 304 253 q 305 319 308 289 q 283 396 301 350 l 185 660 q 163 715 174 692 q 137 756 151 739 q 102 783 122 772 q 51 800 82 793 l 47 807 l 69 894 q 136 892 104 893 q 193 890 164 890 q 242 890 222 890 q 305 892 268 890 q 376 896 342 893 q 458 901 417 899 l 464 889 l 446 810 q 379 797 396 807 q 363 765 363 788 z "},"Ý":{"ha":808,"x_min":47,"x_max":888,"o":"m 363 765 q 367 733 363 756 q 381 681 372 710 q 398 619 389 651 q 416 558 407 586 q 431 507 425 529 q 440 478 438 485 l 451 478 l 586 711 q 613 781 613 756 q 598 801 613 794 q 549 810 583 807 l 546 817 l 567 896 q 601 895 579 896 q 647 893 622 894 q 697 891 671 892 q 744 890 722 890 q 792 891 768 890 q 836 893 815 892 q 883 896 860 894 l 888 886 l 867 803 q 815 779 838 793 q 771 744 792 765 q 729 694 750 724 q 683 625 708 665 l 525 376 q 506 339 513 357 q 494 299 499 321 q 485 249 489 278 q 476 182 482 221 q 480 110 469 131 q 528 90 490 90 q 551 90 539 90 q 572 92 563 90 q 594 94 583 93 l 599 88 l 575 -6 q 489 -3 531 -4 q 416 -1 453 -1 q 354 0 379 0 q 288 -3 325 0 q 218 -8 250 -6 q 140 -15 179 -12 l 161 78 q 226 92 201 83 q 266 115 251 100 q 288 152 281 129 q 299 210 294 175 l 304 253 q 305 319 308 289 q 283 396 301 350 l 185 660 q 163 715 174 692 q 137 756 151 739 q 102 783 122 772 q 51 800 82 793 l 47 807 l 69 894 q 136 892 104 893 q 193 890 164 890 q 242 890 222 890 q 305 892 268 890 q 376 896 342 893 q 458 901 417 899 l 464 889 l 446 810 q 379 797 396 807 q 363 765 363 788 m 725 1058 q 625 1032 678 1047 q 524 1003 581 1019 q 407 968 467 988 l 389 981 l 369 1046 q 481 1096 426 1069 q 581 1143 536 1122 q 679 1190 632 1168 l 697 1183 l 732 1076 l 725 1058 z "},"Ŷ":{"ha":808,"x_min":47,"x_max":888,"o":"m 363 765 q 367 733 363 756 q 381 681 372 710 q 398 619 389 651 q 416 558 407 586 q 431 507 425 529 q 440 478 438 485 l 451 478 l 586 711 q 613 781 613 756 q 598 801 613 794 q 549 810 583 807 l 546 817 l 567 896 q 601 895 579 896 q 647 893 622 894 q 697 891 671 892 q 744 890 722 890 q 792 891 768 890 q 836 893 815 892 q 883 896 860 894 l 888 886 l 867 803 q 815 779 838 793 q 771 744 792 765 q 729 694 750 724 q 683 625 708 665 l 525 376 q 506 339 513 357 q 494 299 499 321 q 485 249 489 278 q 476 182 482 221 q 480 110 469 131 q 528 90 490 90 q 551 90 539 90 q 572 92 563 90 q 594 94 583 93 l 599 88 l 575 -6 q 489 -3 531 -4 q 416 -1 453 -1 q 354 0 379 0 q 288 -3 325 0 q 218 -8 250 -6 q 140 -15 179 -12 l 161 78 q 226 92 201 83 q 266 115 251 100 q 288 152 281 129 q 299 210 294 175 l 304 253 q 305 319 308 289 q 283 396 301 350 l 185 660 q 163 715 174 692 q 137 756 151 739 q 102 783 122 772 q 51 800 82 793 l 47 807 l 69 894 q 136 892 104 893 q 193 890 164 890 q 242 890 222 890 q 305 892 268 890 q 376 896 342 893 q 458 901 417 899 l 464 889 l 446 810 q 379 797 396 807 q 363 765 363 788 m 296 1044 q 357 1089 318 1060 q 435 1146 396 1118 q 529 1217 481 1179 l 557 1217 q 580 1197 557 1218 q 634 1148 603 1176 q 697 1090 665 1119 q 747 1044 729 1060 l 707 988 l 683 982 q 650 999 674 986 q 601 1024 626 1011 q 553 1049 575 1038 q 524 1063 531 1060 q 491 1049 515 1060 q 438 1024 467 1038 q 382 999 408 1011 q 343 982 356 986 l 322 988 l 296 1044 z "},"Ÿ":{"ha":808,"x_min":47,"x_max":888,"o":"m 363 765 q 367 733 363 756 q 381 681 372 710 q 398 619 389 651 q 416 558 407 586 q 431 507 425 529 q 440 478 438 485 l 451 478 l 586 711 q 613 781 613 756 q 598 801 613 794 q 549 810 583 807 l 546 817 l 567 896 q 601 895 579 896 q 647 893 622 894 q 697 891 671 892 q 744 890 722 890 q 792 891 768 890 q 836 893 815 892 q 883 896 860 894 l 888 886 l 867 803 q 815 779 838 793 q 771 744 792 765 q 729 694 750 724 q 683 625 708 665 l 525 376 q 506 339 513 357 q 494 299 499 321 q 485 249 489 278 q 476 182 482 221 q 480 110 469 131 q 528 90 490 90 q 551 90 539 90 q 572 92 563 90 q 594 94 583 93 l 599 88 l 575 -6 q 489 -3 531 -4 q 416 -1 453 -1 q 354 0 379 0 q 288 -3 325 0 q 218 -8 250 -6 q 140 -15 179 -12 l 161 78 q 226 92 201 83 q 266 115 251 100 q 288 152 281 129 q 299 210 294 175 l 304 253 q 305 319 308 289 q 283 396 301 350 l 185 660 q 163 715 174 692 q 137 756 151 739 q 102 783 122 772 q 51 800 82 793 l 47 807 l 69 894 q 136 892 104 893 q 193 890 164 890 q 242 890 222 890 q 305 892 268 890 q 376 896 342 893 q 458 901 417 899 l 464 889 l 446 810 q 379 797 396 807 q 363 765 363 788 m 629 981 q 575 1001 593 981 q 557 1053 557 1021 q 587 1128 557 1099 q 661 1158 617 1158 q 715 1138 697 1158 q 733 1086 733 1118 q 704 1011 733 1042 q 629 981 675 981 m 389 981 q 335 1001 353 981 q 317 1053 317 1021 q 346 1128 317 1099 q 421 1158 375 1158 q 475 1138 457 1158 q 493 1086 493 1118 q 464 1011 493 1042 q 389 981 435 981 z "},"Ỳ":{"ha":808,"x_min":47,"x_max":888,"o":"m 363 765 q 367 733 363 756 q 381 681 372 710 q 398 619 389 651 q 416 558 407 586 q 431 507 425 529 q 440 478 438 485 l 451 478 l 586 711 q 613 781 613 756 q 598 801 613 794 q 549 810 583 807 l 546 817 l 567 896 q 601 895 579 896 q 647 893 622 894 q 697 891 671 892 q 744 890 722 890 q 792 891 768 890 q 836 893 815 892 q 883 896 860 894 l 888 886 l 867 803 q 815 779 838 793 q 771 744 792 765 q 729 694 750 724 q 683 625 708 665 l 525 376 q 506 339 513 357 q 494 299 499 321 q 485 249 489 278 q 476 182 482 221 q 480 110 469 131 q 528 90 490 90 q 551 90 539 90 q 572 92 563 90 q 594 94 583 93 l 599 88 l 575 -6 q 489 -3 531 -4 q 416 -1 453 -1 q 354 0 379 0 q 288 -3 325 0 q 218 -8 250 -6 q 140 -15 179 -12 l 161 78 q 226 92 201 83 q 266 115 251 100 q 288 152 281 129 q 299 210 294 175 l 304 253 q 305 319 308 289 q 283 396 301 350 l 185 660 q 163 715 174 692 q 137 756 151 739 q 102 783 122 772 q 51 800 82 793 l 47 807 l 69 894 q 136 892 104 893 q 193 890 164 890 q 242 890 222 890 q 305 892 268 890 q 376 896 342 893 q 458 901 417 899 l 464 889 l 446 810 q 379 797 396 807 q 363 765 363 788 m 296 1076 l 331 1183 l 349 1190 q 447 1143 396 1168 q 547 1096 492 1122 q 658 1046 601 1069 l 640 981 l 621 968 q 504 1003 561 988 q 403 1032 447 1019 q 303 1058 350 1047 l 296 1076 z "},"Z":{"ha":778,"x_min":-7,"x_max":814,"o":"m 650 -4 l 122 4 l 18 -7 l -7 54 l 553 792 l 382 781 q 310 768 339 778 q 263 738 282 758 q 231 685 243 718 q 208 604 218 653 l 92 596 q 114 697 103 646 q 133 794 124 742 q 150 894 143 846 l 167 908 l 404 893 l 797 888 l 814 832 q 623 598 714 713 q 457 385 532 483 q 326 213 382 288 q 242 99 271 138 l 451 114 q 560 169 518 119 q 632 329 603 219 l 749 339 q 721 231 735 286 q 697 128 710 183 q 676 22 683 72 l 650 -4 z "},"Ź":{"ha":779,"x_min":-7,"x_max":814,"o":"m 650 -4 l 122 4 l 18 -7 l -7 54 l 553 792 l 382 781 q 310 768 339 778 q 263 738 282 758 q 231 685 243 718 q 208 604 218 653 l 92 596 q 114 697 103 646 q 133 794 124 742 q 150 894 143 846 l 167 908 l 404 893 l 797 888 l 814 832 q 623 598 714 713 q 457 385 532 483 q 326 213 382 288 q 242 99 271 138 l 451 114 q 560 169 518 119 q 632 329 603 219 l 749 339 q 721 231 735 286 q 697 128 710 183 q 676 22 683 72 l 650 -4 m 707 1058 q 607 1032 660 1047 q 506 1003 563 1019 q 389 968 449 988 l 371 981 l 351 1046 q 463 1096 408 1069 q 563 1143 518 1122 q 661 1190 614 1168 l 679 1183 l 714 1076 l 707 1058 z "},"Ž":{"ha":779,"x_min":-7,"x_max":814,"o":"m 650 -4 l 122 4 l 18 -7 l -7 54 l 553 792 l 382 781 q 310 768 339 778 q 263 738 282 758 q 231 685 243 718 q 208 604 218 653 l 92 596 q 114 697 103 646 q 133 794 124 742 q 150 894 143 846 l 167 908 l 404 893 l 797 888 l 814 832 q 623 598 714 713 q 457 385 532 483 q 326 213 382 288 q 242 99 271 138 l 451 114 q 560 169 518 119 q 632 329 603 219 l 749 339 q 721 231 735 286 q 697 128 710 183 q 676 22 683 72 l 650 -4 m 749 1139 q 686 1094 725 1124 q 608 1038 647 1065 q 514 967 563 1004 l 488 967 q 411 1038 447 1004 q 347 1094 379 1065 q 297 1139 315 1124 l 336 1196 l 360 1201 q 394 1185 369 1197 q 444 1159 418 1172 q 491 1135 469 1146 q 519 1121 513 1124 q 552 1135 528 1124 q 606 1159 576 1146 q 661 1185 635 1172 q 700 1201 688 1197 l 721 1196 l 749 1139 z "},"Ż":{"ha":779,"x_min":-7,"x_max":814,"o":"m 650 -4 l 122 4 l 18 -7 l -7 54 l 553 792 l 382 781 q 310 768 339 778 q 263 738 282 758 q 231 685 243 718 q 208 604 218 653 l 92 596 q 114 697 103 646 q 133 794 124 742 q 150 894 143 846 l 167 908 l 404 893 l 797 888 l 814 832 q 623 598 714 713 q 457 385 532 483 q 326 213 382 288 q 242 99 271 138 l 451 114 q 560 169 518 119 q 632 329 603 219 l 749 339 q 721 231 735 286 q 697 128 710 183 q 676 22 683 72 l 650 -4 m 499 975 q 433 999 454 975 q 411 1061 411 1022 q 447 1151 411 1115 q 536 1186 482 1186 q 599 1163 578 1186 q 621 1100 621 1139 q 586 1010 621 1046 q 499 975 551 975 z "},"a":{"ha":685,"x_min":29,"x_max":676,"o":"m 539 146 q 549 149 543 146 q 564 159 554 151 q 590 180 574 167 q 631 215 606 193 l 654 213 l 676 164 q 591 78 628 113 q 526 22 554 43 q 476 -8 499 1 q 435 -17 454 -17 q 375 36 375 -17 q 381 76 375 46 q 394 141 386 106 q 409 212 401 176 q 422 268 417 247 l 411 269 q 296 90 349 157 q 188 -17 243 22 q 71 37 113 -17 q 29 186 29 90 q 58 352 29 269 q 135 501 88 435 q 243 607 183 567 q 364 647 303 647 l 485 622 l 494 653 l 510 663 l 622 643 l 633 619 q 596 468 614 546 q 563 317 581 400 q 533 151 546 235 l 539 146 m 232 146 q 272 175 247 146 q 326 253 297 204 q 386 365 356 301 q 443 497 417 428 q 379 527 411 517 q 321 538 347 538 q 277 514 299 538 q 239 451 256 490 q 212 363 222 413 q 201 264 201 314 q 210 179 201 213 q 232 146 219 146 z "},"á":{"ha":685,"x_min":29,"x_max":676,"o":"m 539 146 q 549 149 543 146 q 564 159 554 151 q 590 180 574 167 q 631 215 606 193 l 654 213 l 676 164 q 591 78 628 113 q 526 22 554 43 q 476 -8 499 1 q 435 -17 454 -17 q 375 36 375 -17 q 381 76 375 46 q 394 141 386 106 q 409 212 401 176 q 422 268 417 247 l 411 269 q 296 90 349 157 q 188 -17 243 22 q 71 37 113 -17 q 29 186 29 90 q 58 352 29 269 q 135 501 88 435 q 243 607 183 567 q 364 647 303 647 l 485 622 l 494 653 l 510 663 l 622 643 l 633 619 q 596 468 614 546 q 563 317 581 400 q 533 151 546 235 l 539 146 m 232 146 q 272 175 247 146 q 326 253 297 204 q 386 365 356 301 q 443 497 417 428 q 379 527 411 517 q 321 538 347 538 q 277 514 299 538 q 239 451 256 490 q 212 363 222 413 q 201 264 201 314 q 210 179 201 213 q 232 146 219 146 m 599 906 q 515 851 560 881 q 431 794 478 826 q 336 726 385 763 l 315 732 l 274 786 q 358 869 317 828 q 433 946 400 911 q 507 1024 472 986 l 525 1022 l 600 925 l 599 906 z "},"´":{"ha":533,"x_min":168,"x_max":494,"o":"m 493 906 q 410 851 454 881 q 326 794 372 826 q 231 726 279 763 l 210 732 l 168 786 q 253 869 211 828 q 328 946 294 911 q 401 1024 367 986 l 419 1022 l 494 925 l 493 906 z "},"ă":{"ha":685,"x_min":29,"x_max":676,"o":"m 539 146 q 549 149 543 146 q 564 159 554 151 q 590 180 574 167 q 631 215 606 193 l 654 213 l 676 164 q 591 78 628 113 q 526 22 554 43 q 476 -8 499 1 q 435 -17 454 -17 q 375 36 375 -17 q 381 76 375 46 q 394 141 386 106 q 409 212 401 176 q 422 268 417 247 l 411 269 q 296 90 349 157 q 188 -17 243 22 q 71 37 113 -17 q 29 186 29 90 q 58 352 29 269 q 135 501 88 435 q 243 607 183 567 q 364 647 303 647 l 485 622 l 494 653 l 510 663 l 622 643 l 633 619 q 596 468 614 546 q 563 317 581 400 q 533 151 546 235 l 539 146 m 232 146 q 272 175 247 146 q 326 253 297 204 q 386 365 356 301 q 443 497 417 428 q 379 527 411 517 q 321 538 347 538 q 277 514 299 538 q 239 451 256 490 q 212 363 222 413 q 201 264 201 314 q 210 179 201 213 q 232 146 219 146 m 418 888 q 504 910 464 888 q 568 982 544 933 l 593 976 l 624 929 q 591 865 611 896 q 543 809 571 833 q 481 770 515 785 q 403 756 446 756 q 327 770 358 756 q 274 809 296 785 q 239 865 251 833 q 222 929 226 896 l 265 976 l 290 982 q 338 910 303 933 q 418 888 372 888 z "},"˘":{"ha":533,"x_min":142,"x_max":543,"o":"m 338 892 q 424 915 383 892 q 488 986 464 938 l 513 981 l 543 933 q 510 869 531 900 q 463 813 490 838 q 400 774 435 789 q 322 760 365 760 q 247 774 278 760 q 193 813 215 789 q 158 869 171 838 q 142 933 146 900 l 185 981 l 210 986 q 257 915 222 938 q 338 892 292 892 z "},"â":{"ha":685,"x_min":29,"x_max":676,"o":"m 539 146 q 549 149 543 146 q 564 159 554 151 q 590 180 574 167 q 631 215 606 193 l 654 213 l 676 164 q 591 78 628 113 q 526 22 554 43 q 476 -8 499 1 q 435 -17 454 -17 q 375 36 375 -17 q 381 76 375 46 q 394 141 386 106 q 409 212 401 176 q 422 268 417 247 l 411 269 q 296 90 349 157 q 188 -17 243 22 q 71 37 113 -17 q 29 186 29 90 q 58 352 29 269 q 135 501 88 435 q 243 607 183 567 q 364 647 303 647 l 485 622 l 494 653 l 510 663 l 622 643 l 633 619 q 596 468 614 546 q 563 317 581 400 q 533 151 546 235 l 539 146 m 232 146 q 272 175 247 146 q 326 253 297 204 q 386 365 356 301 q 443 497 417 428 q 379 527 411 517 q 321 538 347 538 q 277 514 299 538 q 239 451 256 490 q 212 363 222 413 q 201 264 201 314 q 210 179 201 213 q 232 146 219 146 m 190 800 q 250 852 211 817 q 326 924 289 888 q 421 1014 371 965 l 449 1014 q 521 924 486 965 q 581 852 550 888 q 628 800 611 817 l 581 743 l 558 738 q 528 762 550 744 q 484 798 507 779 q 441 833 461 817 q 415 853 421 849 q 385 833 408 849 q 333 798 361 817 q 281 762 306 779 q 246 738 256 744 l 224 743 l 190 800 z "},"ˆ":{"ha":533,"x_min":107,"x_max":544,"o":"m 107 800 q 167 852 128 817 q 243 924 206 888 q 338 1014 288 965 l 365 1014 q 438 924 403 965 q 497 852 467 888 q 544 800 528 817 l 497 743 l 475 738 q 445 762 467 744 q 401 798 424 779 q 358 833 378 817 q 332 853 338 849 q 301 833 325 849 q 250 798 278 817 q 197 762 222 779 q 163 738 172 744 l 140 743 l 107 800 z "},"ä":{"ha":685,"x_min":29,"x_max":676,"o":"m 539 146 q 549 149 543 146 q 564 159 554 151 q 590 180 574 167 q 631 215 606 193 l 654 213 l 676 164 q 591 78 628 113 q 526 22 554 43 q 476 -8 499 1 q 435 -17 454 -17 q 375 36 375 -17 q 381 76 375 46 q 394 141 386 106 q 409 212 401 176 q 422 268 417 247 l 411 269 q 296 90 349 157 q 188 -17 243 22 q 71 37 113 -17 q 29 186 29 90 q 58 352 29 269 q 135 501 88 435 q 243 607 183 567 q 364 647 303 647 l 485 622 l 494 653 l 510 663 l 622 643 l 633 619 q 596 468 614 546 q 563 317 581 400 q 533 151 546 235 l 539 146 m 232 146 q 272 175 247 146 q 326 253 297 204 q 386 365 356 301 q 443 497 417 428 q 379 527 411 517 q 321 538 347 538 q 277 514 299 538 q 239 451 256 490 q 212 363 222 413 q 201 264 201 314 q 210 179 201 213 q 232 146 219 146 m 533 783 q 478 803 497 783 q 460 856 460 824 q 490 931 460 900 q 565 961 519 961 q 619 941 601 961 q 638 889 638 921 q 608 813 638 843 q 533 783 579 783 m 292 783 q 238 803 256 783 q 219 856 219 824 q 249 931 219 900 q 325 961 279 961 q 378 941 361 961 q 396 889 396 921 q 367 813 396 843 q 292 783 338 783 z "},"¨":{"ha":533,"x_min":125,"x_max":543,"o":"m 439 782 q 384 802 403 782 q 365 854 365 822 q 395 929 365 899 q 471 960 425 960 q 525 940 507 960 q 543 888 543 919 q 514 812 543 842 q 439 782 485 782 m 197 782 q 143 802 161 782 q 125 854 125 822 q 155 929 125 899 q 231 960 185 960 q 284 940 267 960 q 301 888 301 919 q 272 812 301 842 q 197 782 243 782 z "},"à":{"ha":685,"x_min":29,"x_max":676,"o":"m 539 146 q 549 149 543 146 q 564 159 554 151 q 590 180 574 167 q 631 215 606 193 l 654 213 l 676 164 q 591 78 628 113 q 526 22 554 43 q 476 -8 499 1 q 435 -17 454 -17 q 375 36 375 -17 q 381 76 375 46 q 394 141 386 106 q 409 212 401 176 q 422 268 417 247 l 411 269 q 296 90 349 157 q 188 -17 243 22 q 71 37 113 -17 q 29 186 29 90 q 58 352 29 269 q 135 501 88 435 q 243 607 183 567 q 364 647 303 647 l 485 622 l 494 653 l 510 663 l 622 643 l 633 619 q 596 468 614 546 q 563 317 581 400 q 533 151 546 235 l 539 146 m 232 146 q 272 175 247 146 q 326 253 297 204 q 386 365 356 301 q 443 497 417 428 q 379 527 411 517 q 321 538 347 538 q 277 514 299 538 q 239 451 256 490 q 212 363 222 413 q 201 264 201 314 q 210 179 201 213 q 232 146 219 146 m 219 925 l 296 1022 l 314 1024 q 388 947 349 986 q 462 871 421 913 q 547 788 503 829 l 506 733 l 483 728 q 388 797 435 764 q 304 853 340 829 q 222 906 261 881 l 219 925 z "},"`":{"ha":533,"x_min":101,"x_max":429,"o":"m 101 924 l 178 1021 l 196 1022 q 269 946 231 985 q 344 869 303 911 q 429 786 385 828 l 388 732 l 365 726 q 269 795 317 763 q 186 851 222 828 q 104 904 143 879 l 101 924 z "},"ā":{"ha":685,"x_min":29,"x_max":676,"o":"m 539 146 q 549 149 543 146 q 564 159 554 151 q 590 180 574 167 q 631 215 606 193 l 654 213 l 676 164 q 591 78 628 113 q 526 22 554 43 q 476 -8 499 1 q 435 -17 454 -17 q 375 36 375 -17 q 381 76 375 46 q 394 141 386 106 q 409 212 401 176 q 422 268 417 247 l 411 269 q 296 90 349 157 q 188 -17 243 22 q 71 37 113 -17 q 29 186 29 90 q 58 352 29 269 q 135 501 88 435 q 243 607 183 567 q 364 647 303 647 l 485 622 l 494 653 l 510 663 l 622 643 l 633 619 q 596 468 614 546 q 563 317 581 400 q 533 151 546 235 l 539 146 m 232 146 q 272 175 247 146 q 326 253 297 204 q 386 365 356 301 q 443 497 417 428 q 379 527 411 517 q 321 538 347 538 q 277 514 299 538 q 239 451 256 490 q 212 363 222 413 q 201 264 201 314 q 210 179 201 213 q 232 146 219 146 m 618 915 l 588 810 l 399 808 q 336 808 368 808 q 276 807 304 807 l 213 807 l 200 822 l 232 928 q 306 926 269 926 l 439 926 q 493 927 464 926 q 549 931 522 928 q 610 935 579 932 l 618 915 z "},"¯":{"ha":533,"x_min":129,"x_max":547,"o":"m 547 914 l 517 808 l 328 807 q 265 806 297 807 q 206 806 233 806 l 142 806 l 129 821 l 161 926 q 235 925 199 925 l 368 925 q 422 926 393 925 q 478 929 451 926 q 539 933 508 931 l 547 914 z "},"ą":{"ha":685,"x_min":29,"x_max":679,"o":"m 586 -242 q 538 -279 563 -261 q 490 -310 515 -294 q 438 -335 464 -326 q 330 -305 369 -335 q 290 -221 290 -275 q 323 -128 290 -175 q 418 -15 356 -81 q 375 36 375 -10 q 381 76 375 46 q 394 141 386 106 q 409 212 401 176 q 422 268 417 247 l 411 269 q 296 90 349 157 q 188 -17 243 22 q 71 37 113 -17 q 29 186 29 90 q 58 352 29 269 q 135 501 88 435 q 243 607 183 567 q 364 647 303 647 l 485 622 l 494 653 l 510 663 l 622 643 l 633 619 q 596 468 614 546 q 563 317 581 400 q 533 151 546 235 l 539 146 q 549 149 543 146 q 564 159 554 151 q 590 181 574 167 q 631 215 606 194 l 654 213 l 679 160 q 551 37 603 89 q 467 -53 499 -15 q 422 -121 436 -92 q 408 -176 408 -150 q 424 -218 408 -201 q 465 -235 439 -235 q 499 -230 482 -235 q 532 -218 517 -225 q 565 -201 549 -211 l 586 -242 m 232 146 q 272 175 247 146 q 326 253 297 204 q 386 365 356 301 q 443 497 417 428 q 379 527 411 517 q 321 538 347 538 q 277 514 299 538 q 239 451 256 490 q 212 363 222 413 q 201 264 201 314 q 210 180 201 214 q 232 146 219 146 z "},"å":{"ha":685,"x_min":29,"x_max":676,"o":"m 539 146 q 549 149 543 146 q 564 159 554 151 q 590 180 574 167 q 631 215 606 193 l 654 213 l 676 164 q 591 78 628 113 q 526 22 554 43 q 476 -8 499 1 q 435 -17 454 -17 q 375 36 375 -17 q 381 76 375 46 q 394 141 386 106 q 409 212 401 176 q 422 268 417 247 l 411 269 q 296 90 349 157 q 188 -17 243 22 q 71 37 113 -17 q 29 186 29 90 q 58 352 29 269 q 135 501 88 435 q 243 607 183 567 q 364 647 303 647 l 485 622 l 494 653 l 510 663 l 622 643 l 633 619 q 596 468 614 546 q 563 317 581 400 q 533 151 546 235 l 539 146 m 232 146 q 272 175 247 146 q 326 253 297 204 q 386 365 356 301 q 443 497 417 428 q 379 527 411 517 q 321 538 347 538 q 277 514 299 538 q 239 451 256 490 q 212 363 222 413 q 201 264 201 314 q 210 179 201 213 q 232 146 219 146 m 388 828 q 406 830 396 828 q 425 838 415 832 q 441 856 435 844 q 447 886 447 867 q 434 923 447 910 q 393 936 421 936 q 349 920 364 936 q 335 879 335 904 q 353 840 335 851 q 388 828 371 828 m 369 754 q 290 784 317 754 q 264 863 264 814 q 306 969 264 926 q 413 1013 347 1013 q 495 981 471 1013 q 519 908 519 949 q 509 851 519 879 q 479 802 499 824 q 432 767 460 781 q 369 754 404 754 z "},"˚":{"ha":533,"x_min":208,"x_max":464,"o":"m 332 828 q 350 830 340 828 q 369 838 360 832 q 385 856 379 844 q 392 886 392 867 q 378 923 392 910 q 338 936 365 936 q 294 920 308 936 q 279 879 279 904 q 297 840 279 851 q 332 828 315 828 m 314 754 q 235 784 261 754 q 208 863 208 814 q 250 969 208 926 q 357 1013 292 1013 q 440 981 415 1013 q 464 908 464 949 q 453 851 464 879 q 424 802 443 824 q 376 767 404 781 q 314 754 349 754 z "},"ã":{"ha":685,"x_min":29,"x_max":676,"o":"m 539 146 q 549 149 543 146 q 564 159 554 151 q 590 180 574 167 q 631 215 606 193 l 654 213 l 676 164 q 591 78 628 113 q 526 22 554 43 q 476 -8 499 1 q 435 -17 454 -17 q 375 36 375 -17 q 381 76 375 46 q 394 141 386 106 q 409 212 401 176 q 422 268 417 247 l 411 269 q 296 90 349 157 q 188 -17 243 22 q 71 37 113 -17 q 29 186 29 90 q 58 352 29 269 q 135 501 88 435 q 243 607 183 567 q 364 647 303 647 l 485 622 l 494 653 l 510 663 l 622 643 l 633 619 q 596 468 614 546 q 563 317 581 400 q 533 151 546 235 l 539 146 m 232 146 q 272 175 247 146 q 326 253 297 204 q 386 365 356 301 q 443 497 417 428 q 379 527 411 517 q 321 538 347 538 q 277 514 299 538 q 239 451 256 490 q 212 363 222 413 q 201 264 201 314 q 210 179 201 213 q 232 146 219 146 m 210 750 l 161 800 l 163 815 l 285 956 l 307 961 q 351 954 324 961 q 408 938 379 947 q 463 922 438 929 q 504 915 489 915 q 532 927 515 915 q 564 954 549 939 q 600 993 581 971 l 615 993 l 665 942 l 663 928 l 540 786 l 518 781 q 474 788 501 781 q 417 804 446 796 q 363 820 389 813 q 322 828 336 828 q 293 816 310 828 q 261 789 276 804 q 225 750 243 772 l 210 750 z "},"˜":{"ha":533,"x_min":83,"x_max":588,"o":"m 132 749 l 83 799 l 85 814 l 207 954 l 229 960 q 274 953 246 960 q 331 937 301 946 q 385 921 360 928 q 426 914 411 914 q 454 926 438 914 q 486 953 471 938 q 522 992 503 969 l 538 992 l 588 940 l 585 926 l 463 785 l 440 779 q 396 787 424 779 q 340 803 368 794 q 285 819 311 811 q 244 826 258 826 q 215 815 232 826 q 183 788 199 803 q 147 749 165 771 l 132 749 z "},"b":{"ha":678,"x_min":51,"x_max":646,"o":"m 51 75 q 113 458 86 288 q 135 602 124 531 q 155 732 146 674 q 169 830 164 790 q 175 879 175 869 q 122 929 175 929 l 75 929 l 86 1011 q 173 1013 126 1011 q 260 1017 219 1014 q 354 1024 307 1019 l 371 1001 q 326 788 349 899 q 285 576 307 692 q 244 347 263 460 l 253 346 q 311 456 283 408 q 364 539 339 503 q 414 602 389 575 q 465 650 439 629 q 597 590 549 650 q 646 426 646 529 q 617 260 646 340 q 541 119 589 181 q 431 22 493 58 q 300 -14 368 -14 q 205 -6 247 -14 q 132 14 163 3 q 68 43 96 26 l 51 75 m 433 497 q 397 469 419 497 q 348 394 375 442 q 292 281 321 346 q 233 140 263 215 q 256 132 242 138 q 288 121 271 126 q 322 111 304 115 q 353 107 339 107 q 399 128 376 107 q 438 184 421 149 q 465 266 454 219 q 475 364 475 313 q 463 458 475 418 q 433 497 451 497 z "},"c":{"ha":511,"x_min":33,"x_max":524,"o":"m 335 535 q 284 513 308 535 q 241 455 260 492 q 211 370 222 418 q 200 269 200 322 q 222 159 200 199 q 282 119 244 119 q 353 149 318 119 q 411 232 388 179 l 435 229 l 481 172 q 433 97 463 132 q 370 38 404 63 q 299 -2 336 13 q 225 -17 261 -17 q 85 47 136 -17 q 33 222 33 111 q 62 387 33 308 q 139 526 90 465 q 251 622 188 586 q 383 657 314 657 q 458 649 422 657 q 518 626 494 642 l 524 606 l 465 472 l 426 469 q 335 535 388 535 z "},"ć":{"ha":511,"x_min":33,"x_max":569,"o":"m 335 535 q 284 513 308 535 q 241 455 260 492 q 211 370 222 418 q 200 269 200 322 q 222 159 200 199 q 282 119 244 119 q 353 149 318 119 q 411 232 388 179 l 435 229 l 481 172 q 433 97 463 132 q 370 38 404 63 q 299 -2 336 13 q 225 -17 261 -17 q 85 47 136 -17 q 33 222 33 111 q 62 387 33 308 q 139 526 90 465 q 251 622 188 586 q 383 657 314 657 q 458 649 422 657 q 518 626 494 642 l 524 606 l 465 472 l 426 469 q 335 535 388 535 m 568 906 q 485 851 529 881 q 401 794 447 826 q 306 726 354 763 l 285 732 l 243 786 q 328 869 286 828 q 403 946 369 911 q 476 1024 442 986 l 494 1022 l 569 925 l 568 906 z "},"č":{"ha":511,"x_min":33,"x_max":614,"o":"m 335 535 q 284 513 308 535 q 241 455 260 492 q 211 370 222 418 q 200 269 200 322 q 222 159 200 199 q 282 119 244 119 q 353 149 318 119 q 411 232 388 179 l 435 229 l 481 172 q 433 97 463 132 q 370 38 404 63 q 299 -2 336 13 q 225 -17 261 -17 q 85 47 136 -17 q 33 222 33 111 q 62 387 33 308 q 139 526 90 465 q 251 622 188 586 q 383 657 314 657 q 458 649 422 657 q 518 626 494 642 l 524 606 l 465 472 l 426 469 q 335 535 388 535 m 217 1001 l 239 1006 q 319 938 279 969 q 385 888 360 907 q 463 938 414 907 q 560 1006 511 969 l 579 1001 l 614 943 q 531 868 572 907 q 454 797 489 829 q 378 724 414 760 l 350 724 q 292 797 322 760 q 233 868 265 829 q 168 943 200 907 l 217 1001 z "},"ˇ":{"ha":533,"x_min":119,"x_max":565,"o":"m 168 1001 l 190 1006 q 271 938 231 969 q 336 888 311 907 q 414 938 365 907 q 511 1006 463 969 l 531 1001 l 565 943 q 482 868 524 907 q 406 797 440 829 q 329 724 365 760 l 301 724 q 243 797 274 760 q 184 868 217 829 q 119 943 151 907 l 168 1001 z "},"ç":{"ha":511,"x_min":33,"x_max":524,"o":"m 204 -15 q 79 55 125 -8 q 33 222 33 118 q 62 387 33 308 q 139 526 90 465 q 251 622 188 586 q 383 657 314 657 q 458 649 422 657 q 518 626 494 642 l 524 606 l 465 472 l 426 469 q 335 535 388 535 q 284 513 308 535 q 241 455 260 492 q 211 370 222 418 q 200 269 200 322 q 222 159 200 199 q 282 119 244 119 q 353 149 318 119 q 411 232 388 179 l 435 229 l 481 172 q 395 57 450 106 q 279 -8 340 8 l 258 -61 q 296 -85 275 -72 q 334 -115 317 -99 q 363 -151 351 -132 q 375 -189 375 -169 q 358 -244 375 -218 q 312 -289 340 -269 q 248 -319 283 -308 q 175 -331 213 -331 q 140 -326 158 -331 q 108 -315 122 -322 q 84 -297 93 -307 q 75 -272 75 -286 q 81 -253 75 -264 q 97 -228 88 -242 q 118 -203 107 -215 q 139 -181 129 -190 l 150 -181 q 164 -239 147 -219 q 210 -258 181 -258 q 251 -246 235 -258 q 268 -214 268 -233 q 258 -191 268 -203 q 233 -167 249 -179 q 200 -142 218 -154 q 164 -119 182 -131 l 204 -15 z "},"ċ":{"ha":511,"x_min":33,"x_max":524,"o":"m 335 535 q 284 513 308 535 q 241 455 260 492 q 211 370 222 418 q 200 269 200 322 q 222 159 200 199 q 282 119 244 119 q 353 149 318 119 q 411 232 388 179 l 435 229 l 481 172 q 433 97 463 132 q 370 38 404 63 q 299 -2 336 13 q 225 -17 261 -17 q 85 47 136 -17 q 33 222 33 111 q 62 387 33 308 q 139 526 90 465 q 251 622 188 586 q 383 657 314 657 q 458 649 422 657 q 518 626 494 642 l 524 606 l 465 472 l 426 469 q 335 535 388 535 m 358 797 q 294 821 315 797 q 272 882 272 844 q 308 973 272 938 q 396 1008 343 1008 q 460 985 439 1008 q 482 922 482 961 q 447 833 482 868 q 358 797 411 797 z "},"˙":{"ha":533,"x_min":233,"x_max":443,"o":"m 319 797 q 255 821 276 797 q 233 882 233 844 q 269 973 233 938 q 357 1008 304 1008 q 422 985 400 1008 q 443 922 443 961 q 408 833 443 868 q 319 797 372 797 z "},"d":{"ha":688,"x_min":29,"x_max":692,"o":"m 539 146 q 547 147 543 146 q 558 155 550 149 q 583 176 567 161 q 631 215 600 190 l 654 213 l 676 164 q 590 76 626 111 q 525 21 553 42 q 476 -8 497 0 q 435 -17 454 -17 q 375 36 375 -17 q 381 74 375 44 q 394 139 386 103 q 409 210 401 175 q 422 268 417 246 l 411 269 q 297 90 350 158 q 188 -17 243 22 q 71 37 113 -17 q 29 186 29 90 q 58 352 29 269 q 135 501 88 435 q 243 607 183 567 q 364 647 303 647 l 461 625 l 494 869 q 487 915 499 901 q 443 929 475 929 l 394 929 l 407 1011 q 493 1013 446 1011 q 581 1017 540 1014 q 675 1024 628 1019 l 692 1001 q 629 683 658 839 q 603 546 617 617 q 576 405 589 475 q 553 270 564 335 q 533 151 542 206 l 539 146 m 232 146 q 272 174 247 146 q 326 251 297 203 q 385 363 354 300 q 442 497 415 426 q 419 510 433 503 q 389 523 406 517 q 355 533 372 529 q 321 538 338 538 q 277 514 299 538 q 239 451 256 490 q 212 363 222 413 q 201 264 201 314 q 210 179 201 213 q 232 146 219 146 z "},"ı":{"ha":393,"x_min":38,"x_max":379,"o":"m 240 146 q 249 148 244 146 q 264 158 254 150 q 290 178 274 165 q 332 215 306 192 l 356 213 l 379 164 q 233 24 289 65 q 138 -17 176 -17 q 72 53 72 -17 q 106 257 90 164 q 117 335 111 296 q 128 406 124 374 q 136 463 133 439 q 139 494 139 486 q 86 547 139 547 l 38 547 l 51 629 q 136 631 90 629 q 222 635 182 632 q 317 642 268 638 l 333 619 q 296 474 314 550 q 264 323 281 407 q 235 151 247 239 l 240 146 z "},"e":{"ha":546,"x_min":33,"x_max":535,"o":"m 535 526 q 516 442 535 481 q 457 372 497 404 q 353 312 417 340 q 197 254 289 283 q 220 155 197 192 q 285 118 243 118 q 360 147 324 118 q 425 228 396 175 l 449 225 l 494 169 q 446 95 475 129 q 381 36 417 61 q 305 -3 344 11 q 226 -17 265 -17 q 85 49 138 -17 q 33 226 33 114 q 63 388 33 310 q 141 525 92 465 q 253 621 190 585 q 386 657 317 657 q 496 623 457 657 q 535 526 535 589 m 338 535 q 253 480 292 535 q 201 339 215 425 q 340 406 297 371 q 383 486 383 442 q 338 535 383 535 z "},"ě":{"ha":546,"x_min":33,"x_max":615,"o":"m 535 526 q 516 442 535 481 q 457 372 497 404 q 353 312 417 340 q 197 254 289 283 q 220 155 197 192 q 285 118 243 118 q 360 147 324 118 q 425 228 396 175 l 449 225 l 494 169 q 446 95 475 129 q 381 36 417 61 q 305 -3 344 11 q 226 -17 265 -17 q 85 49 138 -17 q 33 226 33 114 q 63 388 33 310 q 141 525 92 465 q 253 621 190 585 q 386 657 317 657 q 496 623 457 657 q 535 526 535 589 m 338 535 q 253 480 292 535 q 201 339 215 425 q 340 406 297 371 q 383 486 383 442 q 338 535 383 535 m 218 1001 l 240 1006 q 321 938 281 969 q 386 888 361 907 q 464 938 415 907 q 561 1006 513 969 l 581 1001 l 615 943 q 532 868 574 907 q 456 797 490 829 q 379 724 415 760 l 351 724 q 293 797 324 760 q 234 868 267 829 q 169 943 201 907 l 218 1001 z "},"ê":{"ha":546,"x_min":33,"x_max":596,"o":"m 535 526 q 516 442 535 481 q 457 372 497 404 q 353 312 417 340 q 197 254 289 283 q 220 155 197 192 q 285 118 243 118 q 360 147 324 118 q 425 228 396 175 l 449 225 l 494 169 q 446 95 475 129 q 381 36 417 61 q 305 -3 344 11 q 226 -17 265 -17 q 85 49 138 -17 q 33 226 33 114 q 63 388 33 310 q 141 525 92 465 q 253 621 190 585 q 386 657 317 657 q 496 623 457 657 q 535 526 535 589 m 338 535 q 253 480 292 535 q 201 339 215 425 q 340 406 297 371 q 383 486 383 442 q 338 535 383 535 m 158 800 q 218 852 179 817 q 294 924 257 888 q 389 1014 339 965 l 417 1014 q 489 924 454 965 q 549 852 518 888 q 596 800 579 817 l 549 743 l 526 738 q 497 762 518 744 q 452 798 475 779 q 409 833 429 817 q 383 853 389 849 q 353 833 376 849 q 301 798 329 817 q 249 762 274 779 q 214 738 224 744 l 192 743 l 158 800 z "},"ë":{"ha":546,"x_min":33,"x_max":589,"o":"m 535 526 q 516 442 535 481 q 457 372 497 404 q 353 312 417 340 q 197 254 289 283 q 220 155 197 192 q 285 118 243 118 q 360 147 324 118 q 425 228 396 175 l 449 225 l 494 169 q 446 95 475 129 q 381 36 417 61 q 305 -3 344 11 q 226 -17 265 -17 q 85 49 138 -17 q 33 226 33 114 q 63 388 33 310 q 141 525 92 465 q 253 621 190 585 q 386 657 317 657 q 496 623 457 657 q 535 526 535 589 m 338 535 q 253 480 292 535 q 201 339 215 425 q 340 406 297 371 q 383 486 383 442 q 338 535 383 535 m 485 782 q 430 802 449 782 q 411 854 411 822 q 441 929 411 899 q 517 960 471 960 q 571 940 553 960 q 589 888 589 919 q 560 812 589 842 q 485 782 531 782 m 243 782 q 189 802 207 782 q 171 854 171 822 q 201 929 171 899 q 276 960 231 960 q 330 940 313 960 q 347 888 347 919 q 318 812 347 842 q 243 782 289 782 z "},"ė":{"ha":546,"x_min":33,"x_max":535,"o":"m 535 526 q 516 442 535 481 q 457 372 497 404 q 353 312 417 340 q 197 254 289 283 q 220 155 197 192 q 285 118 243 118 q 360 147 324 118 q 425 228 396 175 l 449 225 l 494 169 q 446 95 475 129 q 381 36 417 61 q 305 -3 344 11 q 226 -17 265 -17 q 85 49 138 -17 q 33 226 33 114 q 63 388 33 310 q 141 525 92 465 q 253 621 190 585 q 386 657 317 657 q 496 623 457 657 q 535 526 535 589 m 338 535 q 253 480 292 535 q 201 339 215 425 q 340 406 297 371 q 383 486 383 442 q 338 535 383 535 m 368 797 q 303 821 325 797 q 282 882 282 844 q 317 973 282 938 q 406 1008 353 1008 q 470 985 449 1008 q 492 922 492 961 q 456 833 492 868 q 368 797 421 797 z "},"è":{"ha":546,"x_min":33,"x_max":535,"o":"m 535 526 q 516 442 535 481 q 457 372 497 404 q 353 312 417 340 q 197 254 289 283 q 220 155 197 192 q 285 118 243 118 q 360 147 324 118 q 425 228 396 175 l 449 225 l 494 169 q 446 95 475 129 q 381 36 417 61 q 305 -3 344 11 q 226 -17 265 -17 q 85 49 138 -17 q 33 226 33 114 q 63 388 33 310 q 141 525 92 465 q 253 621 190 585 q 386 657 317 657 q 496 623 457 657 q 535 526 535 589 m 338 535 q 253 480 292 535 q 201 339 215 425 q 340 406 297 371 q 383 486 383 442 q 338 535 383 535 m 181 924 l 257 1021 l 275 1022 q 349 946 310 985 q 423 869 382 911 q 508 786 464 828 l 467 732 l 444 726 q 349 795 396 763 q 265 851 301 828 q 183 904 222 879 l 181 924 z "},"ē":{"ha":546,"x_min":33,"x_max":593,"o":"m 535 526 q 516 442 535 481 q 457 372 497 404 q 353 312 417 340 q 197 254 289 283 q 220 155 197 192 q 285 118 243 118 q 360 147 324 118 q 425 228 396 175 l 449 225 l 494 169 q 446 95 475 129 q 381 36 417 61 q 305 -3 344 11 q 226 -17 265 -17 q 85 49 138 -17 q 33 226 33 114 q 63 388 33 310 q 141 525 92 465 q 253 621 190 585 q 386 657 317 657 q 496 623 457 657 q 535 526 535 589 m 338 535 q 253 480 292 535 q 201 339 215 425 q 340 406 297 371 q 383 486 383 442 q 338 535 383 535 m 593 914 l 563 808 l 374 807 q 311 806 343 807 q 251 806 279 806 l 188 806 l 175 821 l 207 926 q 281 925 244 925 l 414 925 q 468 926 439 925 q 524 929 497 926 q 585 933 554 931 l 593 914 z "},"ę":{"ha":546,"x_min":33,"x_max":535,"o":"m 435 -242 q 386 -279 411 -261 q 338 -310 364 -294 q 286 -335 313 -326 q 178 -305 218 -335 q 139 -221 139 -275 q 176 -119 139 -169 q 283 -3 213 -69 q 226 -17 256 -17 q 85 49 138 -17 q 33 226 33 114 q 63 388 33 310 q 141 525 92 465 q 253 621 190 585 q 386 657 317 657 q 496 623 457 657 q 535 526 535 589 q 517 444 535 481 q 458 374 499 407 q 354 313 418 342 q 197 254 290 283 q 220 155 197 192 q 285 118 243 118 q 360 147 324 118 q 425 228 396 175 l 449 225 l 494 169 q 407 47 450 97 q 331 -43 364 -4 q 277 -113 297 -82 q 257 -176 257 -144 q 272 -218 257 -201 q 314 -235 288 -235 q 348 -230 331 -235 q 381 -218 365 -225 q 414 -201 397 -211 l 435 -242 m 338 535 q 253 480 292 535 q 201 339 215 425 q 340 406 296 371 q 383 486 383 442 q 338 535 383 535 z "},"ð":{"ha":681,"x_min":31,"x_max":653,"o":"m 618 988 l 632 906 l 482 832 q 609 633 565 743 q 653 406 653 524 q 625 235 653 313 q 549 101 597 157 q 433 15 500 46 q 286 -17 365 -17 q 97 54 164 -17 q 31 247 31 125 q 56 400 31 328 q 126 526 82 472 q 227 612 169 581 q 347 643 285 643 q 390 626 368 639 q 418 610 411 613 l 424 617 q 342 764 396 697 l 157 675 l 146 679 l 132 764 l 269 832 q 124 944 211 892 l 179 1022 l 197 1029 q 406 897 317 974 l 607 994 l 618 988 m 460 389 q 460 439 460 411 q 457 485 460 467 q 424 508 446 496 q 363 521 401 521 q 256 449 296 521 q 217 258 217 376 q 246 134 217 178 q 328 90 275 90 q 380 113 356 90 q 422 177 404 136 q 449 272 439 218 q 460 389 460 326 z "},"f":{"ha":403,"x_min":-190,"x_max":663,"o":"m 29 553 l 36 617 l 153 635 l 163 724 q 201 842 169 786 q 281 939 233 897 q 389 1006 329 981 q 510 1031 449 1031 q 588 1025 547 1031 q 657 1010 629 1019 l 663 994 l 600 861 l 574 857 q 501 897 533 885 q 443 910 469 910 q 366 877 393 910 q 329 772 339 844 l 313 632 l 501 632 l 508 625 l 494 547 l 315 549 l 303 540 l 238 -58 q 206 -166 231 -115 q 143 -254 181 -217 q 59 -314 106 -292 q -36 -336 13 -336 q -135 -315 -90 -336 q -190 -261 -179 -293 q -177 -225 -186 -246 q -158 -183 -168 -204 q -137 -144 -149 -162 q -118 -112 -126 -125 l -96 -112 q 3 -225 -92 -225 q 69 -196 42 -225 q 99 -114 96 -167 q 103 -29 103 -69 q 107 46 104 11 l 144 533 l 132 543 l 33 546 l 29 553 z "},"g":{"ha":654,"x_min":-111,"x_max":654,"o":"m 261 158 q 297 184 275 158 q 344 256 318 210 q 399 363 369 301 q 458 499 429 425 q 402 524 436 510 q 336 538 368 538 q 294 515 315 538 q 258 456 274 493 q 232 374 242 419 q 222 281 222 328 q 233 194 222 229 q 261 158 244 158 m 222 0 q 168 -37 197 -18 q 114 -73 139 -56 q 73 -104 89 -90 q 57 -125 57 -118 q 69 -156 57 -140 q 101 -183 82 -171 q 147 -202 121 -194 q 200 -210 172 -210 q 334 -157 281 -210 q 400 -8 388 -104 l 432 257 l 419 261 q 354 154 382 197 q 304 82 326 111 q 263 34 282 53 q 222 0 243 15 m 546 24 q 519 -58 540 -15 q 467 -140 499 -100 q 394 -215 435 -179 q 311 -277 354 -250 q 224 -319 268 -304 q 139 -335 179 -335 q 38 -320 85 -335 q -42 -279 -8 -306 q -93 -219 -75 -253 q -107 -146 -111 -185 l -103 -135 q -60 -106 -86 -122 q -1 -72 -33 -90 q 66 -33 31 -53 q 136 6 101 -14 l 138 17 q 74 86 97 38 q 51 204 51 135 q 81 363 51 283 q 156 505 110 442 q 261 608 203 568 q 378 647 319 647 l 500 622 l 511 654 l 528 663 l 639 644 l 654 619 q 598 481 619 550 q 571 360 576 411 q 565 288 568 333 q 558 193 561 243 q 552 97 556 143 q 546 24 549 50 z "},"ğ":{"ha":654,"x_min":-111,"x_max":654,"o":"m 261 158 q 297 184 275 158 q 344 256 318 210 q 399 363 369 301 q 458 499 429 425 q 402 524 436 510 q 336 538 368 538 q 294 515 315 538 q 258 456 274 493 q 232 374 242 419 q 222 281 222 328 q 233 194 222 229 q 261 158 244 158 m 222 0 q 168 -37 197 -18 q 114 -73 139 -56 q 73 -104 89 -90 q 57 -125 57 -118 q 69 -156 57 -140 q 101 -183 82 -171 q 147 -202 121 -194 q 200 -210 172 -210 q 334 -157 281 -210 q 400 -8 388 -104 l 432 257 l 419 261 q 354 154 382 197 q 304 82 326 111 q 263 34 282 53 q 222 0 243 15 m 546 24 q 519 -58 540 -15 q 467 -140 499 -100 q 394 -215 435 -179 q 311 -277 354 -250 q 224 -319 268 -304 q 139 -335 179 -335 q 38 -320 85 -335 q -42 -279 -8 -306 q -93 -219 -75 -253 q -107 -146 -111 -185 l -103 -135 q -60 -106 -86 -122 q -1 -72 -33 -90 q 66 -33 31 -53 q 136 6 101 -14 l 138 17 q 74 86 97 38 q 51 204 51 135 q 81 363 51 283 q 156 505 110 442 q 261 608 203 568 q 378 647 319 647 l 500 622 l 511 654 l 528 663 l 639 644 l 654 619 q 598 481 619 550 q 571 360 576 411 q 565 288 568 333 q 558 193 561 243 q 552 97 556 143 q 546 24 549 50 m 446 886 q 532 909 492 886 q 596 981 572 932 l 621 975 l 651 928 q 619 863 639 894 q 571 808 599 832 q 508 769 543 783 q 431 754 474 754 q 355 769 386 754 q 301 808 324 783 q 267 863 279 832 q 250 928 254 894 l 293 975 l 318 981 q 365 909 331 932 q 446 886 400 886 z "},"ģ":{"ha":654,"x_min":-111,"x_max":654,"o":"m 261 158 q 297 184 275 158 q 344 256 318 210 q 399 363 369 301 q 458 499 429 425 q 402 524 436 510 q 336 538 368 538 q 294 515 315 538 q 258 456 274 493 q 232 374 242 419 q 222 281 222 328 q 233 194 222 229 q 261 158 244 158 m 222 0 q 168 -37 197 -18 q 114 -73 139 -56 q 73 -104 89 -90 q 57 -125 57 -118 q 69 -156 57 -140 q 101 -183 82 -171 q 147 -202 121 -194 q 200 -210 172 -210 q 334 -157 281 -210 q 400 -8 388 -104 l 432 257 l 419 261 q 354 154 382 197 q 304 82 326 111 q 263 34 282 53 q 222 0 243 15 m 546 24 q 519 -58 540 -15 q 467 -140 499 -100 q 394 -215 435 -179 q 311 -277 354 -250 q 224 -319 268 -304 q 139 -335 179 -335 q 38 -320 85 -335 q -42 -279 -8 -306 q -93 -219 -75 -253 q -107 -146 -111 -185 l -103 -135 q -60 -106 -86 -122 q -1 -72 -33 -90 q 66 -33 31 -53 q 136 6 101 -14 l 138 17 q 74 86 97 38 q 51 204 51 135 q 81 363 51 283 q 156 505 110 442 q 261 608 203 568 q 378 647 319 647 l 500 622 l 511 654 l 528 663 l 639 644 l 654 619 q 598 481 619 550 q 571 360 576 411 q 565 288 568 333 q 558 193 561 243 q 552 97 556 143 q 546 24 549 50 m 528 771 q 474 737 503 751 q 418 722 444 722 q 349 754 376 722 q 322 842 322 786 q 339 915 322 879 q 384 982 356 950 q 449 1042 413 1014 q 526 1093 486 1071 l 578 1051 l 578 1028 q 510 961 538 1000 q 483 886 483 922 q 497 833 483 858 q 532 790 511 807 l 528 771 z "},"ġ":{"ha":654,"x_min":-111,"x_max":654,"o":"m 261 158 q 297 184 275 158 q 344 256 318 210 q 399 363 369 301 q 458 499 429 425 q 402 524 436 510 q 336 538 368 538 q 294 515 315 538 q 258 456 274 493 q 232 374 242 419 q 222 281 222 328 q 233 194 222 229 q 261 158 244 158 m 222 0 q 168 -37 197 -18 q 114 -73 139 -56 q 73 -104 89 -90 q 57 -125 57 -118 q 69 -156 57 -140 q 101 -183 82 -171 q 147 -202 121 -194 q 200 -210 172 -210 q 334 -157 281 -210 q 400 -8 388 -104 l 432 257 l 419 261 q 354 154 382 197 q 304 82 326 111 q 263 34 282 53 q 222 0 243 15 m 546 24 q 519 -58 540 -15 q 467 -140 499 -100 q 394 -215 435 -179 q 311 -277 354 -250 q 224 -319 268 -304 q 139 -335 179 -335 q 38 -320 85 -335 q -42 -279 -8 -306 q -93 -219 -75 -253 q -107 -146 -111 -185 l -103 -135 q -60 -106 -86 -122 q -1 -72 -33 -90 q 66 -33 31 -53 q 136 6 101 -14 l 138 17 q 74 86 97 38 q 51 204 51 135 q 81 363 51 283 q 156 505 110 442 q 261 608 203 568 q 378 647 319 647 l 500 622 l 511 654 l 528 663 l 639 644 l 654 619 q 598 481 619 550 q 571 360 576 411 q 565 288 568 333 q 558 193 561 243 q 552 97 556 143 q 546 24 549 50 m 419 797 q 355 821 376 797 q 333 882 333 844 q 369 973 333 938 q 457 1008 404 1008 q 522 985 500 1008 q 543 922 543 961 q 508 833 543 868 q 419 797 472 797 z "},"ß":{"ha":847,"x_min":-190,"x_max":832,"o":"m 29 553 l 36 617 l 153 635 l 163 724 q 201 842 169 786 q 282 940 233 897 q 390 1006 331 982 q 514 1031 450 1031 q 613 1017 568 1031 q 692 981 658 1004 q 744 925 725 958 q 763 853 763 892 q 735 753 763 793 q 673 679 707 713 q 611 615 639 646 q 583 546 583 585 q 602 499 583 519 q 648 460 621 479 q 708 422 675 442 q 767 376 740 401 q 813 317 794 351 q 832 238 832 283 q 809 138 832 185 q 746 57 786 92 q 652 3 706 22 q 538 -17 599 -17 q 472 -10 503 -17 q 416 7 440 -4 q 376 33 392 18 q 360 65 361 49 q 371 101 363 81 q 390 144 379 122 q 414 185 401 165 q 438 218 426 206 l 465 217 q 488 128 461 161 q 563 94 514 94 q 597 102 581 94 q 625 123 613 110 q 644 153 638 136 q 651 188 651 169 q 633 237 651 215 q 588 278 615 258 q 530 317 561 297 q 472 360 499 336 q 426 417 444 385 q 408 492 408 449 q 437 586 408 547 q 499 659 465 625 q 562 726 533 693 q 590 801 590 758 q 558 878 590 847 q 461 910 525 910 q 373 877 406 910 q 329 772 340 844 l 238 -58 q 206 -166 231 -115 q 143 -254 181 -217 q 59 -314 106 -292 q -36 -336 13 -336 q -135 -315 -90 -336 q -190 -261 -179 -293 q -177 -225 -186 -246 q -158 -183 -168 -204 q -137 -144 -149 -162 q -118 -112 -126 -125 l -96 -112 q 3 -225 -92 -225 q 69 -196 42 -225 q 99 -114 96 -167 q 96 -126 97 -117 q 94 -142 94 -136 q 93 -146 93 -147 q 94 -126 93 -144 q 99 -67 96 -107 q 107 46 101 -26 l 144 533 l 132 543 l 33 546 l 29 553 z "},"h":{"ha":703,"x_min":47,"x_max":681,"o":"m 542 149 q 551 151 546 149 q 565 160 556 153 q 591 181 575 167 q 633 218 607 194 l 658 214 l 681 165 q 599 81 635 115 q 533 26 563 47 q 481 -6 504 4 q 439 -15 458 -15 q 372 46 372 -15 q 379 94 372 64 q 397 162 386 125 q 420 238 408 199 q 443 315 432 278 q 461 382 454 351 q 468 432 468 413 q 432 481 468 481 q 391 456 415 481 q 340 385 367 431 q 282 278 313 340 q 222 140 251 215 l 210 40 q 194 22 208 32 q 160 6 181 13 q 114 -6 139 -1 q 65 -11 89 -11 l 47 11 q 110 411 82 231 q 134 564 122 488 q 155 703 146 640 q 171 812 164 767 q 179 872 178 857 q 170 917 182 904 q 128 929 158 929 l 79 929 l 92 1011 q 178 1013 131 1011 q 265 1017 225 1014 q 360 1024 313 1019 l 376 1001 q 331 788 354 899 q 289 576 311 692 q 250 347 267 460 l 258 346 q 374 547 317 468 q 483 658 431 626 q 597 619 554 658 q 640 517 640 579 q 627 440 640 488 q 596 339 614 392 q 561 236 578 286 q 538 153 544 186 l 542 149 z "},"ħ":{"ha":703,"x_min":26,"x_max":681,"o":"m 542 149 q 551 151 546 149 q 565 160 556 153 q 591 181 575 167 q 633 218 607 194 l 658 214 l 681 165 q 599 81 635 115 q 533 26 563 47 q 481 -6 504 4 q 439 -15 458 -15 q 372 46 372 -15 q 379 94 372 64 q 397 162 386 125 q 420 238 408 199 q 443 315 432 278 q 461 382 454 351 q 468 432 468 413 q 432 481 468 481 q 391 456 415 481 q 340 385 367 431 q 282 278 313 340 q 222 140 251 215 l 210 40 q 194 22 208 32 q 160 6 181 13 q 114 -6 139 -1 q 65 -11 89 -11 l 47 11 q 88 269 68 142 q 105 382 96 324 q 123 499 114 440 q 141 613 132 557 q 157 715 150 668 l 40 715 l 26 728 l 38 794 l 168 793 l 179 872 q 170 917 182 904 q 128 929 158 929 l 79 929 l 92 1011 q 178 1013 131 1011 q 265 1017 225 1014 q 360 1024 313 1019 l 376 1001 q 364 943 371 975 q 349 878 357 915 q 332 794 342 840 l 440 800 l 460 781 l 454 717 l 315 717 q 281 535 299 631 q 250 347 264 440 l 258 346 q 374 547 317 468 q 483 658 431 626 q 597 619 554 658 q 640 517 640 579 q 627 440 640 488 q 596 339 614 392 q 561 236 578 286 q 538 153 544 186 l 542 149 z "},"i":{"ha":393,"x_min":38,"x_max":379,"o":"m 250 792 q 189 816 210 792 q 168 876 168 840 q 202 966 168 931 q 292 1001 236 1001 q 351 979 331 1001 q 371 919 371 957 q 337 828 371 864 q 250 792 303 792 m 240 146 q 249 148 244 146 q 264 158 254 150 q 290 178 274 165 q 332 215 306 192 l 356 213 l 379 164 q 233 24 289 65 q 138 -17 176 -17 q 72 53 72 -17 q 106 257 90 164 q 117 335 111 296 q 128 406 124 374 q 136 463 133 439 q 139 494 139 486 q 86 547 139 547 l 38 547 l 51 629 q 136 631 90 629 q 222 635 182 632 q 317 642 268 638 l 333 619 q 296 474 314 550 q 264 323 281 407 q 235 151 247 239 l 240 146 z "},"j":{"ha":376,"x_min":-87,"x_max":382,"o":"m 228 25 q 139 -193 211 -103 q -50 -339 67 -283 l -87 -297 l -83 -281 q -17 -222 -44 -251 q 30 -155 11 -193 q 61 -67 49 -117 q 82 50 74 -18 q 117 256 101 163 q 128 334 122 294 q 140 406 135 374 q 149 463 146 439 q 151 494 151 486 q 97 547 151 547 l 49 547 l 63 629 q 147 631 101 629 q 233 635 193 632 q 326 642 279 638 l 344 619 q 303 438 324 535 q 265 248 285 354 q 228 25 244 142 m 260 792 q 199 815 221 792 q 178 876 178 838 q 213 967 178 932 q 301 1001 247 1001 q 361 980 340 1001 q 382 919 382 958 q 347 827 382 863 q 260 792 313 792 z "},"į":{"ha":407,"x_min":8,"x_max":379,"o":"m 306 -236 q 257 -274 282 -256 q 208 -305 235 -289 q 157 -329 182 -321 q 48 -299 88 -329 q 8 -217 8 -269 q 39 -124 8 -169 q 132 -17 69 -78 q 72 53 72 -15 q 106 257 90 164 q 117 335 111 296 q 128 406 124 374 q 136 463 133 439 q 139 494 139 486 q 86 547 139 547 l 38 547 l 51 629 q 136 631 90 629 q 222 635 182 632 q 317 642 268 638 l 333 619 q 296 474 314 550 q 264 323 281 407 q 235 151 247 239 l 240 146 q 249 148 244 146 q 264 158 254 150 q 290 178 274 165 q 332 215 306 192 l 356 213 l 379 164 q 267 43 314 93 q 188 -45 219 -7 q 142 -113 157 -83 q 126 -171 126 -143 q 142 -213 126 -197 q 185 -229 157 -229 q 218 -224 201 -229 q 250 -212 235 -219 q 283 -196 267 -206 l 306 -236 m 250 792 q 189 816 210 792 q 168 876 168 840 q 202 966 168 931 q 292 1001 236 1001 q 351 979 331 1001 q 371 919 371 957 q 337 828 371 864 q 250 792 303 792 z "},"k":{"ha":639,"x_min":47,"x_max":643,"o":"m 317 261 l 326 285 q 378 313 351 297 q 426 348 404 329 q 461 390 447 367 q 475 439 475 413 q 439 481 475 481 q 397 456 421 481 q 343 385 372 431 q 283 276 314 339 q 222 139 253 214 l 210 40 q 194 22 208 32 q 160 6 181 13 q 114 -6 139 -1 q 65 -11 89 -11 l 47 11 q 114 426 85 240 q 138 583 126 506 q 160 722 150 660 q 175 827 169 785 q 181 879 181 869 q 128 929 181 929 l 79 929 l 92 1011 q 178 1013 131 1011 q 265 1017 225 1014 q 360 1024 313 1019 l 376 1001 q 331 788 354 899 q 289 576 311 692 q 250 347 267 460 l 258 346 q 374 547 317 468 q 483 658 431 626 q 599 619 556 658 q 643 518 643 581 q 597 389 643 453 q 458 265 550 325 q 507 181 482 222 q 553 107 532 139 q 600 35 578 69 l 599 11 l 447 -26 l 429 -17 l 317 261 z "},"ķ":{"ha":639,"x_min":47,"x_max":643,"o":"m 317 261 l 326 285 q 378 313 351 297 q 426 348 404 329 q 461 390 447 367 q 475 439 475 413 q 439 481 475 481 q 397 456 421 481 q 343 385 372 431 q 283 276 314 339 q 222 139 253 214 l 210 40 q 194 22 208 32 q 160 6 181 13 q 114 -6 139 -1 q 65 -11 89 -11 l 47 11 q 114 426 85 240 q 138 583 126 506 q 160 722 150 660 q 175 827 169 785 q 181 879 181 869 q 128 929 181 929 l 79 929 l 92 1011 q 178 1013 131 1011 q 265 1017 225 1014 q 360 1024 313 1019 l 376 1001 q 331 788 354 899 q 289 576 311 692 q 250 347 267 460 l 258 346 q 374 547 317 468 q 483 658 431 626 q 599 619 556 658 q 643 518 643 581 q 597 389 643 453 q 458 265 550 325 q 507 181 482 222 q 553 107 532 139 q 600 35 578 69 l 599 11 l 447 -26 l 429 -17 l 317 261 m 199 -119 q 253 -85 224 -100 q 308 -71 282 -71 q 377 -103 350 -71 q 404 -190 404 -135 q 388 -263 404 -228 q 342 -331 371 -299 q 277 -391 314 -362 q 200 -442 240 -419 l 149 -400 l 149 -376 q 216 -310 189 -349 q 243 -235 243 -271 q 229 -181 243 -207 q 194 -139 215 -156 l 199 -119 z "},"l":{"ha":375,"x_min":54,"x_max":376,"o":"m 222 146 q 231 148 226 146 q 246 158 236 150 q 272 178 256 165 q 314 215 288 192 l 339 213 l 361 164 q 215 24 271 65 q 119 -17 160 -17 q 54 49 54 -17 q 60 93 54 56 q 74 188 65 131 q 94 315 83 244 q 117 460 106 386 q 140 605 129 533 q 160 735 151 676 q 175 832 169 793 q 181 879 181 871 q 128 929 181 929 l 79 929 l 92 1011 q 178 1013 132 1011 q 265 1017 225 1014 q 360 1024 313 1019 l 376 1001 q 311 683 342 839 q 285 546 299 617 q 258 405 271 475 q 235 270 246 335 q 218 151 225 206 l 222 146 z "},"ĺ":{"ha":375,"x_min":54,"x_max":443,"o":"m 222 146 q 231 148 226 146 q 246 158 236 150 q 272 178 256 165 q 314 215 288 192 l 339 213 l 361 164 q 215 24 271 65 q 119 -17 160 -17 q 54 49 54 -17 q 60 93 54 56 q 74 188 65 131 q 94 315 83 244 q 117 460 106 386 q 140 605 129 533 q 160 735 151 676 q 175 832 169 793 q 181 879 181 871 q 128 929 181 929 l 79 929 l 92 1011 q 178 1013 132 1011 q 265 1017 225 1014 q 360 1024 313 1019 l 376 1001 q 311 683 342 839 q 285 546 299 617 q 258 405 271 475 q 235 270 246 335 q 218 151 225 206 l 222 146 m 442 1238 q 358 1183 403 1213 q 274 1126 321 1158 q 179 1058 228 1094 l 158 1064 l 117 1118 q 201 1201 160 1160 q 276 1278 243 1243 q 350 1356 315 1318 l 368 1354 l 443 1257 l 442 1238 z "},"ľ":{"ha":518,"x_min":54,"x_max":586,"o":"m 222 146 q 231 148 226 146 q 246 158 236 150 q 272 178 256 165 q 314 215 288 192 l 339 213 l 361 164 q 215 24 271 65 q 119 -17 160 -17 q 54 49 54 -17 q 60 93 54 56 q 74 188 65 131 q 94 315 83 244 q 117 460 106 386 q 140 605 129 533 q 160 735 151 676 q 175 832 169 793 q 181 879 181 871 q 128 929 181 929 l 79 929 l 92 1011 q 178 1013 132 1011 q 265 1017 225 1014 q 360 1024 313 1019 l 376 1001 q 311 683 342 839 q 285 546 299 617 q 258 405 271 475 q 235 270 246 335 q 218 151 225 206 l 222 146 m 586 953 q 561 858 575 908 q 533 762 550 815 q 499 653 517 708 l 428 625 l 408 631 q 423 747 417 690 q 432 849 429 804 q 438 947 436 901 l 578 967 l 586 953 z "},"ļ":{"ha":375,"x_min":-31,"x_max":376,"o":"m 222 146 q 231 148 226 146 q 246 158 236 150 q 272 178 256 165 q 314 215 288 192 l 339 213 l 361 164 q 215 24 271 65 q 119 -17 160 -17 q 54 49 54 -17 q 60 93 54 56 q 74 188 65 131 q 94 315 83 244 q 117 460 106 386 q 140 605 129 533 q 160 735 151 676 q 175 832 169 793 q 181 879 181 871 q 128 929 181 929 l 79 929 l 92 1011 q 178 1013 132 1011 q 265 1017 225 1014 q 360 1024 313 1019 l 376 1001 q 311 683 342 839 q 285 546 299 617 q 258 405 271 475 q 235 270 246 335 q 218 151 225 206 l 222 146 m 19 -119 q 74 -85 44 -100 q 129 -71 103 -71 q 198 -103 171 -71 q 225 -190 225 -135 q 208 -263 225 -228 q 163 -331 192 -299 q 98 -391 135 -362 q 21 -442 61 -419 l -31 -400 l -31 -376 q 37 -310 10 -349 q 64 -235 64 -271 q 50 -181 64 -207 q 15 -139 36 -156 l 19 -119 z "},"ŀ":{"ha":524,"x_min":54,"x_max":542,"o":"m 222 146 q 231 148 226 146 q 246 158 236 150 q 272 178 256 165 q 314 215 288 192 l 339 213 l 361 164 q 215 24 271 65 q 119 -17 160 -17 q 54 49 54 -17 q 60 93 54 56 q 74 188 65 131 q 94 315 83 244 q 117 460 106 386 q 140 605 129 533 q 160 735 151 676 q 175 832 169 793 q 181 879 181 871 q 128 929 181 929 l 79 929 l 92 1011 q 178 1013 132 1011 q 265 1017 225 1014 q 360 1024 313 1019 l 376 1001 q 311 683 342 839 q 285 546 299 617 q 258 405 271 475 q 235 270 246 335 q 218 151 225 206 l 222 146 m 415 294 q 348 319 369 294 q 326 385 326 344 q 360 477 326 440 q 451 514 394 514 q 519 489 496 514 q 542 424 542 464 q 507 331 542 367 q 415 294 472 294 z "},"ł":{"ha":375,"x_min":-1,"x_max":410,"o":"m 222 146 q 231 148 226 146 q 246 158 236 150 q 272 178 256 165 q 314 215 288 192 l 339 213 l 361 164 q 215 24 271 65 q 119 -17 160 -17 q 54 49 54 -17 q 59 88 54 54 q 72 172 64 121 q 90 288 79 224 q 111 422 100 353 l 36 383 l 24 386 l -1 472 l 131 542 q 149 662 140 604 q 165 765 158 719 q 176 841 172 811 q 181 879 181 871 q 128 929 181 929 l 79 929 l 92 1011 q 178 1013 132 1011 q 265 1017 225 1014 q 360 1024 313 1019 l 376 1001 q 351 885 365 947 q 326 760 340 831 q 297 611 313 690 l 374 651 l 385 646 l 410 561 l 274 490 q 242 310 257 397 q 218 151 228 222 l 222 146 z "},"m":{"ha":1061,"x_min":39,"x_max":1039,"o":"m 900 149 q 909 151 904 149 q 923 160 914 153 q 949 181 932 168 q 992 218 965 194 l 1017 214 l 1039 165 q 955 81 992 115 q 889 26 918 47 q 838 -6 860 4 q 796 -15 815 -15 q 729 46 729 -15 q 744 126 729 72 q 778 238 760 179 q 813 351 797 297 q 829 432 829 404 q 793 481 829 481 q 749 453 775 481 q 694 378 724 426 q 631 265 664 331 q 565 119 597 199 l 553 40 q 538 22 551 32 q 504 6 525 13 q 458 -6 483 -1 q 410 -11 433 -11 l 392 11 q 436 204 417 117 q 453 279 444 242 q 467 348 461 317 q 478 403 474 379 q 482 436 482 426 q 446 481 482 481 q 406 456 429 481 q 355 386 382 431 q 299 278 328 342 q 240 140 269 215 l 228 40 q 213 22 226 32 q 178 6 199 13 q 132 -6 157 -1 q 83 -11 107 -11 l 65 11 q 100 228 85 129 q 113 312 107 269 q 125 390 119 354 q 135 451 131 425 q 140 490 139 478 q 131 535 143 522 q 88 547 118 547 l 39 547 l 53 629 q 138 631 92 629 q 224 635 183 632 q 318 642 269 638 l 333 619 q 308 533 321 579 q 286 446 297 494 q 268 347 275 397 l 275 346 q 389 547 333 468 q 497 658 444 626 q 608 620 565 658 q 650 521 650 582 q 644 476 650 506 q 631 418 638 446 q 611 347 622 383 l 618 346 q 734 545 675 464 q 846 658 793 626 q 958 620 917 658 q 999 519 999 582 q 985 442 999 490 q 955 340 972 393 q 920 237 938 288 q 896 153 903 186 l 900 149 z "},"n":{"ha":721,"x_min":39,"x_max":699,"o":"m 560 149 q 569 151 564 149 q 583 160 574 153 q 609 181 593 167 q 651 218 625 194 l 676 214 l 699 165 q 553 26 608 68 q 457 -15 497 -15 q 390 46 390 -15 q 397 94 390 64 q 415 162 404 125 q 438 238 426 199 q 461 315 450 278 q 479 382 472 351 q 486 432 486 413 q 450 481 486 481 q 409 456 433 481 q 358 385 385 431 q 300 277 331 340 q 240 139 269 214 l 228 40 q 213 22 226 32 q 178 6 199 13 q 132 -6 157 -1 q 83 -11 107 -11 l 65 11 q 100 228 85 129 q 113 312 107 269 q 125 390 119 354 q 135 451 131 425 q 140 490 139 478 q 131 535 143 522 q 88 547 118 547 l 39 547 l 53 629 q 138 631 92 629 q 224 635 183 632 q 318 642 269 638 l 333 619 q 308 533 321 579 q 286 446 297 494 q 268 347 275 397 l 276 346 q 392 547 335 468 q 501 658 449 626 q 614 619 572 658 q 656 518 656 581 q 642 441 656 489 q 613 340 629 393 q 579 236 596 286 q 556 153 563 186 l 560 149 z "},"ń":{"ha":721,"x_min":39,"x_max":699,"o":"m 560 149 q 569 151 564 149 q 583 160 574 153 q 609 181 593 167 q 651 218 625 194 l 676 214 l 699 165 q 553 26 608 68 q 457 -15 497 -15 q 390 46 390 -15 q 397 94 390 64 q 415 162 404 125 q 438 238 426 199 q 461 315 450 278 q 479 382 472 351 q 486 432 486 413 q 450 481 486 481 q 409 456 433 481 q 358 385 385 431 q 300 277 331 340 q 240 139 269 214 l 228 40 q 213 22 226 32 q 178 6 199 13 q 132 -6 157 -1 q 83 -11 107 -11 l 65 11 q 100 228 85 129 q 113 312 107 269 q 125 390 119 354 q 135 451 131 425 q 140 490 139 478 q 131 535 143 522 q 88 547 118 547 l 39 547 l 53 629 q 138 631 92 629 q 224 635 183 632 q 318 642 269 638 l 333 619 q 308 533 321 579 q 286 446 297 494 q 268 347 275 397 l 276 346 q 392 547 335 468 q 501 658 449 626 q 614 619 572 658 q 656 518 656 581 q 642 441 656 489 q 613 340 629 393 q 579 236 596 286 q 556 153 563 186 l 560 149 m 625 906 q 542 851 586 881 q 458 794 504 826 q 363 726 411 763 l 342 732 l 300 786 q 385 869 343 828 q 460 946 426 911 q 533 1024 499 986 l 551 1022 l 626 925 l 625 906 z "},"ň":{"ha":721,"x_min":39,"x_max":699,"o":"m 560 149 q 569 151 564 149 q 583 160 574 153 q 609 181 593 167 q 651 218 625 194 l 676 214 l 699 165 q 553 26 608 68 q 457 -15 497 -15 q 390 46 390 -15 q 397 94 390 64 q 415 162 404 125 q 438 238 426 199 q 461 315 450 278 q 479 382 472 351 q 486 432 486 413 q 450 481 486 481 q 409 456 433 481 q 358 385 385 431 q 300 277 331 340 q 240 139 269 214 l 228 40 q 213 22 226 32 q 178 6 199 13 q 132 -6 157 -1 q 83 -11 107 -11 l 65 11 q 100 228 85 129 q 113 312 107 269 q 125 390 119 354 q 135 451 131 425 q 140 490 139 478 q 131 535 143 522 q 88 547 118 547 l 39 547 l 53 629 q 138 631 92 629 q 224 635 183 632 q 318 642 269 638 l 333 619 q 308 533 321 579 q 286 446 297 494 q 268 347 275 397 l 276 346 q 392 547 335 468 q 501 658 449 626 q 614 619 572 658 q 656 518 656 581 q 642 441 656 489 q 613 340 629 393 q 579 236 596 286 q 556 153 563 186 l 560 149 m 281 1001 l 303 1006 q 383 938 343 969 q 449 888 424 907 q 526 938 478 907 q 624 1006 575 969 l 643 1001 l 678 943 q 594 868 636 907 q 518 797 553 829 q 442 724 478 760 l 414 724 q 356 797 386 760 q 297 868 329 829 q 232 943 264 907 l 281 1001 z "},"ņ":{"ha":721,"x_min":39,"x_max":699,"o":"m 560 149 q 569 151 564 149 q 583 160 574 153 q 609 181 593 167 q 651 218 625 194 l 676 214 l 699 165 q 553 26 608 68 q 457 -15 497 -15 q 390 46 390 -15 q 397 94 390 64 q 415 162 404 125 q 438 238 426 199 q 461 315 450 278 q 479 382 472 351 q 486 432 486 413 q 450 481 486 481 q 409 456 433 481 q 358 385 385 431 q 300 277 331 340 q 240 139 269 214 l 228 40 q 213 22 226 32 q 178 6 199 13 q 132 -6 157 -1 q 83 -11 107 -11 l 65 11 q 100 228 85 129 q 113 312 107 269 q 125 390 119 354 q 135 451 131 425 q 140 490 139 478 q 131 535 143 522 q 88 547 118 547 l 39 547 l 53 629 q 138 631 92 629 q 224 635 183 632 q 318 642 269 638 l 333 619 q 308 533 321 579 q 286 446 297 494 q 268 347 275 397 l 276 346 q 392 547 335 468 q 501 658 449 626 q 614 619 572 658 q 656 518 656 581 q 642 441 656 489 q 613 340 629 393 q 579 236 596 286 q 556 153 563 186 l 560 149 m 217 -119 q 271 -85 242 -100 q 326 -71 300 -71 q 395 -103 368 -71 q 422 -190 422 -135 q 406 -263 422 -228 q 360 -331 389 -299 q 295 -391 332 -362 q 218 -442 258 -419 l 167 -400 l 167 -376 q 234 -310 207 -349 q 261 -235 261 -271 q 247 -181 261 -207 q 213 -139 233 -156 l 217 -119 z "},"ñ":{"ha":721,"x_min":39,"x_max":699,"o":"m 560 149 q 569 151 564 149 q 583 160 574 153 q 609 181 593 167 q 651 218 625 194 l 676 214 l 699 165 q 553 26 608 68 q 457 -15 497 -15 q 390 46 390 -15 q 397 94 390 64 q 415 162 404 125 q 438 238 426 199 q 461 315 450 278 q 479 382 472 351 q 486 432 486 413 q 450 481 486 481 q 409 456 433 481 q 358 385 385 431 q 300 277 331 340 q 240 139 269 214 l 228 40 q 213 22 226 32 q 178 6 199 13 q 132 -6 157 -1 q 83 -11 107 -11 l 65 11 q 100 228 85 129 q 113 312 107 269 q 125 390 119 354 q 135 451 131 425 q 140 490 139 478 q 131 535 143 522 q 88 547 118 547 l 39 547 l 53 629 q 138 631 92 629 q 224 635 183 632 q 318 642 269 638 l 333 619 q 308 533 321 579 q 286 446 297 494 q 268 347 275 397 l 276 346 q 392 547 335 468 q 501 658 449 626 q 614 619 572 658 q 656 518 656 581 q 642 441 656 489 q 613 340 629 393 q 579 236 596 286 q 556 153 563 186 l 560 149 m 240 749 l 192 799 l 193 814 l 315 954 l 338 960 q 382 953 354 960 q 439 937 410 946 q 494 921 468 928 q 535 914 519 914 q 563 926 546 914 q 594 953 579 938 q 631 992 611 969 l 646 992 l 696 940 l 693 926 l 571 785 l 549 779 q 504 787 532 779 q 448 803 476 794 q 393 819 419 811 q 353 826 367 826 q 324 815 340 826 q 292 788 307 803 q 256 749 274 771 l 240 749 z "},"o":{"ha":617,"x_min":38,"x_max":583,"o":"m 292 94 q 377 165 346 94 q 408 365 408 236 q 324 535 408 535 q 277 516 299 535 q 240 463 256 497 q 217 381 225 429 q 208 276 208 333 q 231 142 208 190 q 292 94 253 94 m 238 -17 q 91 49 144 -17 q 38 232 38 114 q 64 400 38 322 q 136 535 90 478 q 244 626 182 593 q 381 658 307 658 q 531 597 478 658 q 583 424 583 536 q 557 249 583 329 q 485 110 531 169 q 376 17 439 50 q 238 -17 313 -17 z "},"ó":{"ha":617,"x_min":38,"x_max":583,"o":"m 292 94 q 377 165 346 94 q 408 365 408 236 q 324 535 408 535 q 277 516 299 535 q 240 463 256 497 q 217 381 225 429 q 208 276 208 333 q 231 142 208 190 q 292 94 253 94 m 238 -17 q 91 49 144 -17 q 38 232 38 114 q 64 400 38 322 q 136 535 90 478 q 244 626 182 593 q 381 658 307 658 q 531 597 478 658 q 583 424 583 536 q 557 249 583 329 q 485 110 531 169 q 376 17 439 50 q 238 -17 313 -17 m 568 906 q 485 851 529 881 q 401 794 447 826 q 306 726 354 763 l 285 732 l 243 786 q 328 869 286 828 q 403 946 369 911 q 476 1024 442 986 l 494 1022 l 569 925 l 568 906 z "},"ô":{"ha":617,"x_min":38,"x_max":594,"o":"m 292 94 q 377 165 346 94 q 408 365 408 236 q 324 535 408 535 q 277 516 299 535 q 240 463 256 497 q 217 381 225 429 q 208 276 208 333 q 231 142 208 190 q 292 94 253 94 m 238 -17 q 91 49 144 -17 q 38 232 38 114 q 64 400 38 322 q 136 535 90 478 q 244 626 182 593 q 381 658 307 658 q 531 597 478 658 q 583 424 583 536 q 557 249 583 329 q 485 110 531 169 q 376 17 439 50 q 238 -17 313 -17 m 157 800 q 217 852 178 817 q 293 924 256 888 q 388 1014 338 965 l 415 1014 q 488 924 453 965 q 547 852 517 888 q 594 800 578 817 l 547 743 l 525 738 q 495 762 517 744 q 451 798 474 779 q 408 833 428 817 q 382 853 388 849 q 351 833 375 849 q 300 798 328 817 q 247 762 272 779 q 213 738 222 744 l 190 743 l 157 800 z "},"ö":{"ha":617,"x_min":38,"x_max":592,"o":"m 292 94 q 377 165 346 94 q 408 365 408 236 q 324 535 408 535 q 277 516 299 535 q 240 463 256 497 q 217 381 225 429 q 208 276 208 333 q 231 142 208 190 q 292 94 253 94 m 238 -17 q 91 49 144 -17 q 38 232 38 114 q 64 400 38 322 q 136 535 90 478 q 244 626 182 593 q 381 658 307 658 q 531 597 478 658 q 583 424 583 536 q 557 249 583 329 q 485 110 531 169 q 376 17 439 50 q 238 -17 313 -17 m 488 782 q 433 802 451 782 q 414 854 414 822 q 444 929 414 899 q 519 960 474 960 q 574 940 556 960 q 592 888 592 919 q 563 812 592 842 q 488 782 533 782 m 246 782 q 192 802 210 782 q 174 854 174 822 q 203 929 174 899 q 279 960 233 960 q 333 940 315 960 q 350 888 350 919 q 321 812 350 842 q 246 782 292 782 z "},"ò":{"ha":617,"x_min":38,"x_max":583,"o":"m 292 94 q 377 165 346 94 q 408 365 408 236 q 324 535 408 535 q 277 516 299 535 q 240 463 256 497 q 217 381 225 429 q 208 276 208 333 q 231 142 208 190 q 292 94 253 94 m 238 -17 q 91 49 144 -17 q 38 232 38 114 q 64 400 38 322 q 136 535 90 478 q 244 626 182 593 q 381 658 307 658 q 531 597 478 658 q 583 424 583 536 q 557 249 583 329 q 485 110 531 169 q 376 17 439 50 q 238 -17 313 -17 m 172 924 l 249 1021 l 267 1022 q 340 946 301 985 q 415 869 374 911 q 500 786 456 828 l 458 732 l 436 726 q 340 795 388 763 q 257 851 293 828 q 175 904 214 879 l 172 924 z "},"ő":{"ha":617,"x_min":38,"x_max":647,"o":"m 292 94 q 377 165 346 94 q 408 365 408 236 q 324 535 408 535 q 277 516 299 535 q 240 463 256 497 q 217 381 225 429 q 208 276 208 333 q 231 142 208 190 q 292 94 253 94 m 238 -17 q 91 49 144 -17 q 38 232 38 114 q 64 400 38 322 q 136 535 90 478 q 244 626 182 593 q 381 658 307 658 q 531 597 478 658 q 583 424 583 536 q 557 249 583 329 q 485 110 531 169 q 376 17 439 50 q 238 -17 313 -17 m 446 925 q 381 868 415 899 q 315 808 351 842 q 240 738 278 774 l 221 739 l 176 778 q 239 859 208 818 q 294 933 269 900 q 350 1008 324 972 l 365 1010 l 444 940 l 446 925 m 647 925 q 582 868 617 899 q 516 808 553 842 q 440 738 479 774 l 422 739 l 378 778 q 440 859 410 818 q 494 933 469 900 q 550 1008 522 972 l 567 1010 l 646 940 l 647 925 z "},"˝":{"ha":533,"x_min":76,"x_max":547,"o":"m 346 925 q 281 868 315 899 q 215 808 251 842 q 140 738 178 774 l 121 739 l 76 778 q 139 859 108 818 q 194 933 169 900 q 250 1008 224 972 l 265 1010 l 344 940 l 346 925 m 547 925 q 482 868 517 899 q 416 808 453 842 q 340 738 379 774 l 322 739 l 278 778 q 340 859 310 818 q 394 933 369 900 q 450 1008 422 972 l 467 1010 l 546 940 l 547 925 z "},"ō":{"ha":617,"x_min":38,"x_max":593,"o":"m 292 94 q 377 165 346 94 q 408 365 408 236 q 324 535 408 535 q 277 516 299 535 q 240 463 256 497 q 217 381 225 429 q 208 276 208 333 q 231 142 208 190 q 292 94 253 94 m 238 -17 q 91 49 144 -17 q 38 232 38 114 q 64 400 38 322 q 136 535 90 478 q 244 626 182 593 q 381 658 307 658 q 531 597 478 658 q 583 424 583 536 q 557 249 583 329 q 485 110 531 169 q 376 17 439 50 q 238 -17 313 -17 m 593 914 l 563 808 l 374 807 q 311 806 343 807 q 251 806 279 806 l 188 806 l 175 821 l 207 926 q 281 925 244 925 l 414 925 q 468 926 439 925 q 524 929 497 926 q 585 933 554 931 l 593 914 z "},"ø":{"ha":617,"x_min":-3,"x_max":622,"o":"m 92 47 q 38 232 38 114 q 64 400 38 322 q 136 535 90 478 q 244 626 182 593 q 381 658 307 658 q 446 650 414 658 l 532 794 l 618 753 l 622 736 l 535 592 q 583 424 583 532 q 557 249 583 329 q 485 110 531 169 q 376 17 439 50 q 238 -17 313 -17 q 178 -8 204 -17 l 83 -162 l 0 -122 l -3 -108 l 92 47 m 208 243 l 368 518 q 324 535 349 535 q 277 516 299 535 q 240 463 256 497 q 217 381 225 429 q 208 276 208 333 l 208 243 m 292 94 q 377 165 346 94 q 408 365 408 236 l 408 379 l 251 111 q 292 94 268 94 z "},"õ":{"ha":617,"x_min":38,"x_max":639,"o":"m 292 94 q 377 165 346 94 q 408 365 408 236 q 324 535 408 535 q 277 516 299 535 q 240 463 256 497 q 217 381 225 429 q 208 276 208 333 q 231 142 208 190 q 292 94 253 94 m 238 -17 q 91 49 144 -17 q 38 232 38 114 q 64 400 38 322 q 136 535 90 478 q 244 626 182 593 q 381 658 307 658 q 531 597 478 658 q 583 424 583 536 q 557 249 583 329 q 485 110 531 169 q 376 17 439 50 q 238 -17 313 -17 m 183 749 l 135 799 l 136 814 l 258 954 l 281 960 q 325 953 297 960 q 382 937 353 946 q 437 921 411 928 q 478 914 463 914 q 506 926 489 914 q 538 953 522 938 q 574 992 554 969 l 589 992 l 639 940 l 636 926 l 514 785 l 492 779 q 447 787 475 779 q 391 803 419 794 q 336 819 363 811 q 296 826 310 826 q 267 815 283 826 q 235 788 250 803 q 199 749 217 771 l 183 749 z "},"p":{"ha":696,"x_min":-57,"x_max":665,"o":"m -42 -247 q 10 -225 -6 -243 q 38 -156 25 -207 q 53 -76 43 -131 q 75 47 64 -21 q 97 189 86 115 q 117 326 108 263 q 132 435 126 389 q 138 496 138 482 q 85 547 138 547 l 36 547 l 50 629 q 135 631 89 629 q 221 635 181 632 q 315 642 267 638 l 332 621 q 294 491 310 554 q 265 357 278 428 l 274 356 q 385 549 336 479 q 485 658 435 618 q 617 599 568 658 q 665 439 665 539 q 636 277 665 357 q 561 135 607 197 q 458 33 515 72 q 343 -6 400 -6 l 210 17 l 183 -165 q 190 -219 178 -206 q 242 -233 201 -233 l 303 -233 l 304 -242 l 289 -318 q 163 -319 225 -318 q 53 -324 101 -321 q -57 -328 -4 -326 l -42 -247 m 453 507 q 419 481 440 507 q 370 409 397 456 q 313 298 343 363 q 254 154 283 233 q 280 143 264 150 q 315 130 296 136 q 352 119 333 124 q 388 115 371 115 q 427 140 408 115 q 461 201 446 164 q 485 285 476 239 q 494 376 494 332 q 482 468 494 429 q 453 507 469 507 z "},"q":{"ha":657,"x_min":31,"x_max":646,"o":"m 383 68 l 422 268 l 411 269 q 299 91 349 158 q 199 -17 250 24 q 76 41 121 -17 q 31 197 31 99 q 60 360 31 279 q 137 504 89 440 q 244 608 185 568 q 364 647 303 647 l 482 622 l 507 692 l 525 701 l 636 683 l 646 660 q 626 592 640 649 q 594 455 613 536 q 558 278 576 374 q 524 92 539 182 q 498 -72 508 1 q 488 -183 488 -146 q 496 -222 488 -211 q 525 -232 504 -232 l 572 -232 l 575 -239 l 561 -317 q 420 -319 483 -317 q 313 -325 357 -322 q 218 -333 260 -329 l 233 -251 q 283 -244 264 -249 q 313 -228 301 -239 q 331 -201 325 -218 q 343 -154 338 -183 l 383 68 m 239 146 q 275 172 253 146 q 324 245 297 199 q 381 356 351 292 q 442 497 411 421 q 388 523 422 508 q 321 538 353 538 q 277 515 299 538 q 239 454 256 492 q 212 369 222 417 q 201 272 201 321 q 213 183 201 219 q 239 146 224 146 z "},"r":{"ha":528,"x_min":39,"x_max":557,"o":"m 65 11 q 103 233 86 133 q 117 319 110 276 q 128 397 124 361 q 137 458 133 432 q 140 493 140 483 q 128 535 140 522 q 88 547 117 547 l 39 547 l 53 629 q 138 631 92 629 q 224 635 183 632 q 318 642 269 638 l 333 619 q 313 543 322 582 q 293 467 303 510 q 276 383 283 425 l 283 383 q 334 487 306 438 q 392 574 363 536 q 448 633 421 611 q 496 656 475 656 q 557 519 557 608 q 543 446 557 489 l 524 438 q 508 446 517 442 q 491 451 501 449 q 468 454 481 454 q 354 381 413 454 q 243 168 296 307 l 228 40 q 213 22 226 32 q 178 6 199 13 q 132 -6 157 -1 q 83 -11 107 -11 l 65 11 z "},"ŕ":{"ha":528,"x_min":39,"x_max":557,"o":"m 65 11 q 103 233 86 133 q 117 319 110 276 q 128 397 124 361 q 137 458 133 432 q 140 493 140 483 q 128 535 140 522 q 88 547 117 547 l 39 547 l 53 629 q 138 631 92 629 q 224 635 183 632 q 318 642 269 638 l 333 619 q 313 543 322 582 q 293 467 303 510 q 276 383 283 425 l 283 383 q 334 487 306 438 q 392 574 363 536 q 448 633 421 611 q 496 656 475 656 q 557 519 557 608 q 543 446 557 489 l 524 438 q 508 446 517 442 q 491 451 501 449 q 468 454 481 454 q 354 381 413 454 q 243 168 296 307 l 228 40 q 213 22 226 32 q 178 6 199 13 q 132 -6 157 -1 q 83 -11 107 -11 l 65 11 m 458 906 q 375 851 419 881 q 291 794 338 826 q 196 726 244 763 l 175 732 l 133 786 q 218 869 176 828 q 293 946 260 911 q 367 1024 332 986 l 385 1022 l 460 925 l 458 906 z "},"ř":{"ha":528,"x_min":39,"x_max":557,"o":"m 65 11 q 103 233 86 133 q 117 319 110 276 q 128 397 124 361 q 137 458 133 432 q 140 493 140 483 q 128 535 140 522 q 88 547 117 547 l 39 547 l 53 629 q 138 631 92 629 q 224 635 183 632 q 318 642 269 638 l 333 619 q 313 543 322 582 q 293 467 303 510 q 276 383 283 425 l 283 383 q 334 487 306 438 q 392 574 363 536 q 448 633 421 611 q 496 656 475 656 q 557 519 557 608 q 543 446 557 489 l 524 438 q 508 446 517 442 q 491 451 501 449 q 468 454 481 454 q 354 381 413 454 q 243 168 296 307 l 228 40 q 213 22 226 32 q 178 6 199 13 q 132 -6 157 -1 q 83 -11 107 -11 l 65 11 m 107 1001 l 129 1006 q 210 938 169 969 q 275 888 250 907 q 353 938 304 907 q 450 1006 401 969 l 469 1001 l 504 943 q 421 868 463 907 q 344 797 379 829 q 268 724 304 760 l 240 724 q 182 797 213 760 q 123 868 156 829 q 58 943 90 907 l 107 1001 z "},"ŗ":{"ha":528,"x_min":-4,"x_max":557,"o":"m 65 11 q 103 233 86 133 q 117 319 110 276 q 128 397 124 361 q 137 458 133 432 q 140 493 140 483 q 128 535 140 522 q 88 547 117 547 l 39 547 l 53 629 q 138 631 92 629 q 224 635 183 632 q 318 642 269 638 l 333 619 q 313 543 322 582 q 293 467 303 510 q 276 383 283 425 l 283 383 q 334 487 306 438 q 392 574 363 536 q 448 633 421 611 q 496 656 475 656 q 557 519 557 608 q 543 446 557 489 l 524 438 q 508 446 517 442 q 491 451 501 449 q 468 454 481 454 q 354 381 413 454 q 243 168 296 307 l 228 40 q 213 22 226 32 q 178 6 199 13 q 132 -6 157 -1 q 83 -11 107 -11 l 65 11 m 46 -119 q 100 -85 71 -100 q 156 -71 129 -71 q 224 -103 197 -71 q 251 -190 251 -135 q 235 -263 251 -228 q 190 -331 218 -299 q 124 -391 161 -362 q 47 -442 88 -419 l -4 -400 l -4 -376 q 63 -310 36 -349 q 90 -235 90 -271 q 76 -181 90 -207 q 42 -139 63 -156 l 46 -119 z "},"s":{"ha":513,"x_min":0,"x_max":513,"o":"m 94 218 q 131 128 97 161 q 218 96 164 96 q 274 113 253 96 q 296 158 296 131 q 269 210 296 188 q 207 257 243 233 q 160 290 183 272 q 118 328 138 307 q 87 375 99 349 q 75 435 75 401 q 96 522 75 482 q 152 593 117 563 q 235 641 188 624 q 338 658 283 658 q 438 643 390 658 q 513 601 485 628 q 479 524 497 561 q 446 460 461 486 l 418 460 q 376 519 403 497 q 315 542 349 542 q 270 525 289 542 q 251 483 251 508 q 263 449 251 464 q 293 419 274 435 q 347 381 317 400 q 405 337 378 361 q 451 283 432 313 q 469 211 469 253 q 447 123 469 164 q 388 51 425 82 q 299 1 350 19 q 192 -17 249 -17 q 65 6 118 -17 q 0 67 13 29 q 11 106 4 85 q 28 149 18 128 q 47 188 38 169 q 67 219 57 207 l 94 218 z "},"ś":{"ha":513,"x_min":0,"x_max":546,"o":"m 94 218 q 131 128 97 161 q 218 96 164 96 q 274 113 253 96 q 296 158 296 131 q 269 210 296 188 q 207 257 243 233 q 160 290 183 272 q 118 328 138 307 q 87 375 99 349 q 75 435 75 401 q 96 522 75 482 q 152 593 117 563 q 235 641 188 624 q 338 658 283 658 q 438 643 390 658 q 513 601 485 628 q 479 524 497 561 q 446 460 461 486 l 418 460 q 376 519 403 497 q 315 542 349 542 q 270 525 289 542 q 251 483 251 508 q 263 449 251 464 q 293 419 274 435 q 347 381 317 400 q 405 337 378 361 q 451 283 432 313 q 469 211 469 253 q 447 123 469 164 q 388 51 425 82 q 299 1 350 19 q 192 -17 249 -17 q 65 6 118 -17 q 0 67 13 29 q 11 106 4 85 q 28 149 18 128 q 47 188 38 169 q 67 219 57 207 l 94 218 m 544 906 q 461 851 506 881 q 377 794 424 826 q 282 726 331 763 l 261 732 l 219 786 q 304 869 263 828 q 379 946 346 911 q 453 1024 418 986 l 471 1022 l 546 925 l 544 906 z "},"š":{"ha":513,"x_min":0,"x_max":583,"o":"m 94 218 q 131 128 97 161 q 218 96 164 96 q 274 113 253 96 q 296 158 296 131 q 269 210 296 188 q 207 257 243 233 q 160 290 183 272 q 118 328 138 307 q 87 375 99 349 q 75 435 75 401 q 96 522 75 482 q 152 593 117 563 q 235 641 188 624 q 338 658 283 658 q 438 643 390 658 q 513 601 485 628 q 479 524 497 561 q 446 460 461 486 l 418 460 q 376 519 403 497 q 315 542 349 542 q 270 525 289 542 q 251 483 251 508 q 263 449 251 464 q 293 419 274 435 q 347 381 317 400 q 405 337 378 361 q 451 283 432 313 q 469 211 469 253 q 447 123 469 164 q 388 51 425 82 q 299 1 350 19 q 192 -17 249 -17 q 65 6 118 -17 q 0 67 13 29 q 11 106 4 85 q 28 149 18 128 q 47 188 38 169 q 67 219 57 207 l 94 218 m 186 1001 l 208 1006 q 289 938 249 969 q 354 888 329 907 q 432 938 383 907 q 529 1006 481 969 l 549 1001 l 583 943 q 500 868 542 907 q 424 797 458 829 q 347 724 383 760 l 319 724 q 261 797 292 760 q 202 868 235 829 q 138 943 169 907 l 186 1001 z "},"ş":{"ha":513,"x_min":0,"x_max":513,"o":"m 163 -15 q 56 10 100 -11 q 0 67 11 32 q 11 106 4 85 q 28 149 18 128 q 47 188 38 169 q 67 219 57 207 l 94 218 q 131 128 97 161 q 218 96 164 96 q 274 113 253 96 q 296 158 296 131 q 269 210 296 188 q 207 257 243 233 q 160 290 183 272 q 118 328 138 307 q 87 375 99 349 q 75 435 75 401 q 96 522 75 482 q 152 593 117 563 q 235 641 188 624 q 338 658 283 658 q 438 643 390 658 q 513 601 485 628 q 479 524 497 561 q 446 460 461 486 l 418 460 q 376 519 403 497 q 315 542 349 542 q 270 525 289 542 q 251 483 251 508 q 263 449 251 464 q 293 419 274 435 q 347 381 317 400 q 405 337 378 361 q 451 283 432 313 q 469 211 469 253 q 451 130 469 168 q 401 62 433 92 q 327 12 369 32 q 235 -14 285 -8 l 217 -61 q 254 -85 233 -72 q 292 -115 275 -99 q 322 -151 310 -132 q 333 -189 333 -169 q 316 -244 333 -218 q 270 -289 299 -269 q 206 -319 242 -308 q 133 -331 171 -331 q 99 -326 117 -331 q 66 -315 81 -322 q 42 -297 51 -307 q 33 -272 33 -286 q 40 -253 33 -264 q 56 -228 46 -242 q 76 -203 65 -215 q 97 -181 88 -190 l 108 -181 q 122 -239 106 -219 q 168 -258 139 -258 q 210 -246 193 -258 q 226 -214 226 -233 q 217 -191 226 -203 q 192 -167 207 -179 q 158 -142 176 -154 q 122 -119 140 -131 l 163 -15 z "},"ș":{"ha":513,"x_min":0,"x_max":513,"o":"m 94 218 q 131 128 97 161 q 218 96 164 96 q 274 113 253 96 q 296 158 296 131 q 269 210 296 188 q 207 257 243 233 q 160 290 183 272 q 118 328 138 307 q 87 375 99 349 q 75 435 75 401 q 96 522 75 482 q 152 593 117 563 q 235 641 188 624 q 338 658 283 658 q 438 643 390 658 q 513 601 485 628 q 479 524 497 561 q 446 460 461 486 l 418 460 q 376 519 403 497 q 315 542 349 542 q 270 525 289 542 q 251 483 251 508 q 263 449 251 464 q 293 419 274 435 q 347 381 317 400 q 405 337 378 361 q 451 283 432 313 q 469 211 469 253 q 447 123 469 164 q 388 51 425 82 q 299 1 350 19 q 192 -17 249 -17 q 65 6 118 -17 q 0 67 13 29 q 11 106 4 85 q 28 149 18 128 q 47 188 38 169 q 67 219 57 207 l 94 218 m 113 -119 q 167 -85 138 -100 q 222 -71 196 -71 q 291 -103 264 -71 q 318 -190 318 -135 q 301 -263 318 -228 q 256 -331 285 -299 q 191 -391 228 -362 q 114 -442 154 -419 l 63 -400 l 63 -376 q 130 -310 103 -349 q 157 -235 157 -271 q 143 -181 157 -207 q 108 -139 129 -156 l 113 -119 z "},"t":{"ha":426,"x_min":40,"x_max":475,"o":"m 393 219 l 415 169 q 352 95 383 129 q 292 36 321 61 q 241 -3 264 11 q 201 -17 218 -17 q 98 20 132 -17 q 71 122 64 57 l 140 535 l 131 543 l 44 546 l 40 553 l 49 617 l 154 633 q 162 690 158 661 q 168 742 165 718 q 175 794 172 768 l 353 843 l 367 826 q 350 767 358 799 q 334 704 343 739 q 317 632 325 669 l 468 632 l 475 625 l 463 547 l 314 549 l 297 539 l 231 189 q 258 143 224 143 q 300 161 275 143 q 369 224 325 179 l 393 219 z "},"ŧ":{"ha":426,"x_min":-7,"x_max":475,"o":"m 393 219 l 415 169 q 352 95 383 129 q 292 36 321 61 q 241 -3 264 11 q 201 -17 218 -17 q 98 20 132 -17 q 71 122 64 57 l 104 325 l 7 325 l -7 338 l 3 404 l 118 403 l 140 535 l 131 543 l 44 546 l 40 553 l 49 617 l 154 633 q 162 690 158 661 q 168 742 165 718 q 175 794 172 768 l 353 843 l 367 826 q 350 767 358 799 q 334 704 343 739 q 317 632 325 669 l 468 632 l 475 625 l 463 547 l 314 549 l 297 539 l 271 404 l 400 410 l 419 390 l 414 326 l 257 326 l 231 189 q 258 143 224 143 q 300 161 275 143 q 369 224 325 179 l 393 219 z "},"ţ":{"ha":426,"x_min":38,"x_max":475,"o":"m 167 -14 q 89 31 114 -4 q 71 122 64 65 l 140 535 l 131 543 l 44 546 l 40 553 l 49 617 l 154 633 q 162 690 158 661 q 168 742 165 718 q 175 794 172 768 l 353 843 l 367 826 q 350 767 358 799 q 334 704 343 739 q 317 632 325 669 l 468 632 l 475 625 l 463 547 l 314 549 l 297 539 l 231 189 q 258 143 224 143 q 300 161 275 143 q 369 224 325 179 l 393 219 l 415 169 q 324 66 368 111 q 244 0 279 21 l 221 -61 q 258 -85 238 -72 q 297 -115 279 -99 q 326 -151 314 -132 q 338 -189 338 -169 q 320 -244 338 -218 q 274 -289 303 -269 q 210 -319 246 -308 q 138 -331 175 -331 q 103 -326 121 -331 q 70 -315 85 -322 q 47 -297 56 -307 q 38 -272 38 -286 q 44 -253 38 -264 q 60 -228 50 -242 q 81 -203 69 -215 q 101 -181 92 -190 l 113 -181 q 126 -239 110 -219 q 172 -258 143 -258 q 214 -246 197 -258 q 231 -214 231 -233 q 221 -191 231 -203 q 196 -167 211 -179 q 163 -142 181 -154 q 126 -119 144 -131 l 167 -14 z "},"u":{"ha":706,"x_min":51,"x_max":696,"o":"m 432 281 q 327 95 379 168 q 224 -15 275 22 q 103 20 146 -15 q 60 117 60 56 q 74 200 60 146 q 106 313 89 254 q 137 424 122 372 q 151 500 151 476 q 99 547 151 547 l 51 547 l 65 629 q 150 631 104 629 q 236 635 196 632 q 331 642 282 638 l 347 619 q 288 431 313 517 q 265 356 276 393 q 246 287 254 319 q 233 230 238 254 q 228 193 228 206 q 260 153 228 153 q 300 178 276 153 q 353 251 324 204 q 415 364 382 299 q 479 507 447 429 l 499 635 l 519 646 l 633 638 l 651 617 q 614 467 632 544 q 582 317 599 400 q 553 151 565 235 l 558 146 q 567 148 563 146 q 580 157 571 150 q 606 178 589 164 q 650 215 622 192 l 674 213 l 696 164 q 609 76 646 111 q 544 21 572 42 q 495 -8 517 0 q 454 -17 474 -17 q 394 36 394 -17 q 401 79 394 47 q 415 149 407 111 q 432 224 424 188 q 444 279 440 260 l 432 281 z "},"ú":{"ha":706,"x_min":51,"x_max":696,"o":"m 432 281 q 327 95 379 168 q 224 -15 275 22 q 103 20 146 -15 q 60 117 60 56 q 74 200 60 146 q 106 313 89 254 q 137 424 122 372 q 151 500 151 476 q 99 547 151 547 l 51 547 l 65 629 q 150 631 104 629 q 236 635 196 632 q 331 642 282 638 l 347 619 q 288 431 313 517 q 265 356 276 393 q 246 287 254 319 q 233 230 238 254 q 228 193 228 206 q 260 153 228 153 q 300 178 276 153 q 353 251 324 204 q 415 364 382 299 q 479 507 447 429 l 499 635 l 519 646 l 633 638 l 651 617 q 614 467 632 544 q 582 317 599 400 q 553 151 565 235 l 558 146 q 567 148 563 146 q 580 157 571 150 q 606 178 589 164 q 650 215 622 192 l 674 213 l 696 164 q 609 76 646 111 q 544 21 572 42 q 495 -8 517 0 q 454 -17 474 -17 q 394 36 394 -17 q 401 79 394 47 q 415 149 407 111 q 432 224 424 188 q 444 279 440 260 l 432 281 m 611 906 q 528 851 572 881 q 444 794 490 826 q 349 726 397 763 l 328 732 l 286 786 q 371 869 329 828 q 446 946 413 911 q 519 1024 485 986 l 538 1022 l 613 925 l 611 906 z "},"û":{"ha":706,"x_min":51,"x_max":696,"o":"m 432 281 q 327 95 379 168 q 224 -15 275 22 q 103 20 146 -15 q 60 117 60 56 q 74 200 60 146 q 106 313 89 254 q 137 424 122 372 q 151 500 151 476 q 99 547 151 547 l 51 547 l 65 629 q 150 631 104 629 q 236 635 196 632 q 331 642 282 638 l 347 619 q 288 431 313 517 q 265 356 276 393 q 246 287 254 319 q 233 230 238 254 q 228 193 228 206 q 260 153 228 153 q 300 178 276 153 q 353 251 324 204 q 415 364 382 299 q 479 507 447 429 l 499 635 l 519 646 l 633 638 l 651 617 q 614 467 632 544 q 582 317 599 400 q 553 151 565 235 l 558 146 q 567 148 563 146 q 580 157 571 150 q 606 178 589 164 q 650 215 622 192 l 674 213 l 696 164 q 609 76 646 111 q 544 21 572 42 q 495 -8 517 0 q 454 -17 474 -17 q 394 36 394 -17 q 401 79 394 47 q 415 149 407 111 q 432 224 424 188 q 444 279 440 260 l 432 281 m 200 800 q 260 852 221 817 q 336 924 299 888 q 431 1014 381 965 l 458 1014 q 531 924 496 965 q 590 852 560 888 q 638 800 621 817 l 590 743 l 568 738 q 538 762 560 744 q 494 798 517 779 q 451 833 471 817 q 425 853 431 849 q 394 833 418 849 q 343 798 371 817 q 290 762 315 779 q 256 738 265 744 l 233 743 l 200 800 z "},"ü":{"ha":706,"x_min":51,"x_max":696,"o":"m 432 281 q 327 95 379 168 q 224 -15 275 22 q 103 20 146 -15 q 60 117 60 56 q 74 200 60 146 q 106 313 89 254 q 137 424 122 372 q 151 500 151 476 q 99 547 151 547 l 51 547 l 65 629 q 150 631 104 629 q 236 635 196 632 q 331 642 282 638 l 347 619 q 288 431 313 517 q 265 356 276 393 q 246 287 254 319 q 233 230 238 254 q 228 193 228 206 q 260 153 228 153 q 300 178 276 153 q 353 251 324 204 q 415 364 382 299 q 479 507 447 429 l 499 635 l 519 646 l 633 638 l 651 617 q 614 467 632 544 q 582 317 599 400 q 553 151 565 235 l 558 146 q 567 148 563 146 q 580 157 571 150 q 606 178 589 164 q 650 215 622 192 l 674 213 l 696 164 q 609 76 646 111 q 544 21 572 42 q 495 -8 517 0 q 454 -17 474 -17 q 394 36 394 -17 q 401 79 394 47 q 415 149 407 111 q 432 224 424 188 q 444 279 440 260 l 432 281 m 529 782 q 474 802 493 782 q 456 854 456 822 q 485 929 456 899 q 561 960 515 960 q 615 940 597 960 q 633 888 633 919 q 604 812 633 842 q 529 782 575 782 m 288 782 q 233 802 251 782 q 215 854 215 822 q 245 929 215 899 q 321 960 275 960 q 374 940 357 960 q 392 888 392 919 q 363 812 392 842 q 288 782 333 782 z "},"ù":{"ha":706,"x_min":51,"x_max":696,"o":"m 432 281 q 327 95 379 168 q 224 -15 275 22 q 103 20 146 -15 q 60 117 60 56 q 74 200 60 146 q 106 313 89 254 q 137 424 122 372 q 151 500 151 476 q 99 547 151 547 l 51 547 l 65 629 q 150 631 104 629 q 236 635 196 632 q 331 642 282 638 l 347 619 q 288 431 313 517 q 265 356 276 393 q 246 287 254 319 q 233 230 238 254 q 228 193 228 206 q 260 153 228 153 q 300 178 276 153 q 353 251 324 204 q 415 364 382 299 q 479 507 447 429 l 499 635 l 519 646 l 633 638 l 651 617 q 614 467 632 544 q 582 317 599 400 q 553 151 565 235 l 558 146 q 567 148 563 146 q 580 157 571 150 q 606 178 589 164 q 650 215 622 192 l 674 213 l 696 164 q 609 76 646 111 q 544 21 572 42 q 495 -8 517 0 q 454 -17 474 -17 q 394 36 394 -17 q 401 79 394 47 q 415 149 407 111 q 432 224 424 188 q 444 279 440 260 l 432 281 m 224 924 l 300 1021 l 318 1022 q 392 946 353 985 q 466 869 425 911 q 551 786 507 828 l 510 732 l 488 726 q 392 795 439 763 q 308 851 344 828 q 226 904 265 879 l 224 924 z "},"ű":{"ha":706,"x_min":51,"x_max":704,"o":"m 432 281 q 327 95 379 168 q 224 -15 275 22 q 103 20 146 -15 q 60 117 60 56 q 74 200 60 146 q 106 313 89 254 q 137 424 122 372 q 151 500 151 476 q 99 547 151 547 l 51 547 l 65 629 q 150 631 104 629 q 236 635 196 632 q 331 642 282 638 l 347 619 q 288 431 313 517 q 265 356 276 393 q 246 287 254 319 q 233 230 238 254 q 228 193 228 206 q 260 153 228 153 q 300 178 276 153 q 353 251 324 204 q 415 364 382 299 q 479 507 447 429 l 499 635 l 519 646 l 633 638 l 651 617 q 614 467 632 544 q 582 317 599 400 q 553 151 565 235 l 558 146 q 567 148 563 146 q 580 157 571 150 q 606 178 589 164 q 650 215 622 192 l 674 213 l 696 164 q 609 76 646 111 q 544 21 572 42 q 495 -8 517 0 q 454 -17 474 -17 q 394 36 394 -17 q 401 79 394 47 q 415 149 407 111 q 432 224 424 188 q 444 279 440 260 l 432 281 m 503 925 q 438 868 472 899 q 372 808 408 842 q 297 738 335 774 l 278 739 l 233 778 q 296 859 265 818 q 351 933 326 900 q 407 1008 381 972 l 422 1010 l 501 940 l 503 925 m 704 925 q 639 868 674 899 q 573 808 610 842 q 497 738 536 774 l 479 739 l 435 778 q 497 859 467 818 q 551 933 526 900 q 607 1008 579 972 l 624 1010 l 703 940 l 704 925 z "}}}
